<?xml version="1.0" standalone="no"?>
<!DOCTYPE svg PUBLIC "-//W3C//DTD SVG 1.1//EN" "http://www.w3.org/Graphics/SVG/1.1/DTD/svg11.dtd" >
<svg xmlns="http://www.w3.org/2000/svg">
<metadata></metadata>
<defs>
<font id="m_1cmedium" horiz-adv-x="1000" >
<font-face units-per-em="1000" ascent="860" descent="-140" />
<missing-glyph horiz-adv-x="374" />
<glyph horiz-adv-x="0" />
<glyph horiz-adv-x="333" />
<glyph unicode=" "  horiz-adv-x="374" />
<glyph unicode="&#x09;" horiz-adv-x="374" />
<glyph unicode="&#xa0;" horiz-adv-x="374" />
<glyph unicode="!" horiz-adv-x="358" d="M114 730h130l-15 -520h-100zM119 0v130h120v-130h-120z" />
<glyph unicode="&#x22;" horiz-adv-x="438" d="M69 770h110l-15 -260h-80zM259 770h110l-15 -260h-80z" />
<glyph unicode="#" horiz-adv-x="688" d="M49 180v86h117l39 218h-106v86h122l28 160h100l-28 -160h120l28 160h100l-28 -160h98v-86h-114l-39 -218h103v-86h-118l-32 -180h-100l32 180h-120l-32 -180h-100l32 180h-102zM386 266l39 218h-120l-39 -218h120z" />
<glyph unicode="$" horiz-adv-x="588" d="M336 315v-208q93 18 93 98q0 41 -20 66t-73 44zM336 18v-103h-84v101q-98 5 -183 39v100q86 -45 183 -51v237q-104 32 -151 80.5t-47 118.5q0 74 50 119.5t148 53.5v102h84v-101q95 -6 173 -29v-96q-77 30 -173 36v-213q111 -32 154.5 -79.5t43.5 -127.5t-50.5 -128.5 t-147.5 -58.5zM252 436v189q-95 -11 -95 -85q0 -70 95 -104z" />
<glyph unicode="%" horiz-adv-x="848" d="M564 730h110l-390 -730h-110zM634 380q83 0 129 -50.5t46 -144.5t-46 -144.5t-129 -50.5t-129 50.5t-46 144.5t46 144.5t129 50.5zM214 740q83 0 129 -50.5t46 -144.5t-46 -144.5t-129 -50.5t-129 50.5t-46 144.5t46 144.5t129 50.5zM634 70q70 0 70 115t-70 115 t-70 -115t70 -115zM214 430q70 0 70 115t-70 115t-70 -115t70 -115z" />
<glyph unicode="&#x26;" horiz-adv-x="738" d="M286 324q-67 -46 -94.5 -80.5t-27.5 -68.5q0 -99 135 -99q53 0 92.5 10.5t89.5 38.5zM370 377l149 -154v189h103v-295l112 -117h-130l-54 55q-129 -65 -256 -65q-240 0 -240 180q0 54 37.5 104.5t131.5 114.5l-10 10q-99 102 -99 181q0 73 55 116.5t155 43.5 q101 0 153 -41t52 -114q0 -54 -35.5 -102t-123.5 -106zM307 443q74 48 97 76t23 61q0 76 -103 76q-49 0 -75.5 -20.5t-26.5 -55.5q0 -30 14.5 -54t70.5 -83z" />
<glyph unicode="'" horiz-adv-x="268" d="M74 770h120l-15 -260h-90z" />
<glyph unicode="(" horiz-adv-x="413" d="M174 308q0 -274 195 -463h-100q-96 88 -148 208t-52 255t52 254.5t148 207.5h100q-195 -189 -195 -462z" />
<glyph unicode=")" horiz-adv-x="413" d="M44 770h100q96 -88 148 -207.5t52 -254.5t-52 -255t-148 -208h-100q195 189 195 463q0 273 -195 462z" />
<glyph unicode="*" horiz-adv-x="535" d="M486 560l-154 -47l97 -128l-69 -51l-92 132l-92 -132l-70 51l97 128l-154 47l27 82l152 -53l-3 161h86l-3 -161l152 53z" />
<glyph unicode="+" horiz-adv-x="738" d="M414 580v-248h245v-84h-245v-248h-90v248h-245v84h245v248h90z" />
<glyph unicode="," horiz-adv-x="338" d="M129 150h140l-110 -260h-100z" />
<glyph unicode="-" horiz-adv-x="478" d="M79 248v84h320v-84h-320z" />
<glyph unicode="." horiz-adv-x="318" d="M94 0v150h130v-150h-130z" />
<glyph unicode="/" horiz-adv-x="533" d="M484 730l-345 -770h-105l345 770h105z" />
<glyph unicode="0" horiz-adv-x="634" d="M319 740q135 0 202.5 -89t67.5 -286t-67.5 -286t-202.5 -89t-202.5 89t-67.5 286t67.5 286t202.5 89zM319 78q81 0 120.5 65.5t39.5 221.5t-39.5 221.5t-120.5 65.5t-120.5 -65.5t-39.5 -221.5t39.5 -221.5t120.5 -65.5z" />
<glyph unicode="1" horiz-adv-x="634" d="M314 730h110v-730h-110v610h-2l-198 -160v120z" />
<glyph unicode="2" horiz-adv-x="634" d="M239 92v-2h310v-90h-460v90q204 162 275 253.5t71 176.5q0 128 -136 128q-90 0 -195 -58v105q96 45 210 45q112 0 173.5 -55.5t61.5 -154.5q0 -100 -63.5 -193t-246.5 -245z" />
<glyph unicode="3" horiz-adv-x="634" d="M344 429q97 0 151 -51.5t54 -147.5q0 -114 -69.5 -177t-195.5 -63q-106 0 -190 35v103q39 -20 94.5 -34t95.5 -14q74 0 114.5 39t40.5 111q0 61 -43.5 90.5t-141.5 29.5h-70v84l215 204v2h-310v90h450v-90l-215 -209v-2h20z" />
<glyph unicode="4" horiz-adv-x="634" d="M354 248v323h-2l-223 -321v-2h225zM462 248h117v-88h-117v-160h-108v160h-335v88l335 482h108v-482z" />
<glyph unicode="5" horiz-adv-x="634" d="M339 470q104 0 162 -59t58 -166q0 -126 -71 -190.5t-209 -64.5q-96 0 -180 35v102q100 -47 180 -47q170 0 170 165q0 139 -130 139q-74 0 -120 -44h-95l20 390h405v-90h-305l-10 -200h2q54 30 123 30z" />
<glyph unicode="6" horiz-adv-x="634" d="M178 431l2 -1q58 60 169 60t175.5 -65t64.5 -175q0 -122 -72 -191t-193 -69q-265 0 -265 330q0 211 80 315.5t230 104.5q75 0 140 -20v-95q-63 25 -140 25q-78 0 -129.5 -57t-61.5 -162zM324 80q73 0 114 43.5t41 126.5q0 72 -42.5 114.5t-112.5 42.5q-68 0 -110.5 -43.5 t-42.5 -113.5q0 -78 43 -124t110 -46z" />
<glyph unicode="7" horiz-adv-x="634" d="M84 730h480v-90q-91 -148 -157.5 -299.5t-122.5 -340.5h-115q112 350 290 638v2h-375v90z" />
<glyph unicode="8" horiz-adv-x="634" d="M319 430q69 16 106 48t37 72q0 48 -37 76t-106 28q-68 0 -103.5 -27.5t-35.5 -76.5q0 -42 35.5 -73.5t103.5 -46.5zM314 345q-79 -19 -120 -56.5t-41 -83.5q0 -60 44.5 -94.5t121.5 -34.5t119.5 34.5t42.5 94.5q0 105 -167 140zM319 -10q-127 0 -198.5 57t-71.5 153 q0 58 40 107.5t110 76.5v2q-60 26 -92.5 71.5t-32.5 102.5q0 81 65 130.5t180 49.5t180 -49.5t65 -130.5q0 -112 -125 -164v-2q150 -51 150 -194q0 -96 -71.5 -153t-198.5 -57z" />
<glyph unicode="9" horiz-adv-x="634" d="M460 299l-2 1q-58 -60 -169 -60q-112 0 -176 66.5t-64 183.5q0 115 72 182.5t193 67.5q265 0 265 -320q0 -223 -78.5 -326.5t-231.5 -103.5q-80 0 -150 20v95q73 -25 150 -25q85 0 137 56.5t54 162.5zM314 650q-73 0 -114 -41.5t-41 -118.5q0 -79 42.5 -123t112.5 -44 q69 0 111 45t42 122q0 72 -43.5 116t-109.5 44z" />
<glyph unicode=":" horiz-adv-x="398" d="M134 390v150h130v-150h-130zM134 0v150h130v-150h-130z" />
<glyph unicode=";" horiz-adv-x="418" d="M149 150h140l-110 -260h-100zM149 390v150h130v-150h-130z" />
<glyph unicode="&#x3c;" horiz-adv-x="678" d="M584 475l-455 -184v-2l455 -184v-95l-520 225v110l520 225v-95z" />
<glyph unicode="=" horiz-adv-x="758" d="M89 365v85h580v-85h-580zM89 130v85h580v-85h-580z" />
<glyph unicode="&#x3e;" horiz-adv-x="678" d="M94 475v95l520 -225v-110l-520 -225v95l455 184v2z" />
<glyph unicode="?" horiz-adv-x="628" d="M329 215h-110q0 35 9 65.5t19.5 50t32.5 41.5t35 31.5l39 28.5q33 23 49 36.5t31 38t15 53.5q0 88 -145 88q-103 0 -220 -38v100q114 30 235 30q118 0 181.5 -46.5t63.5 -123.5q0 -35 -9 -62.5t-29.5 -49.5t-35.5 -34.5t-44 -32.5q-30 -21 -44.5 -33t-35 -34t-29 -48.5 t-8.5 -60.5zM214 0v130h120v-130h-120z" />
<glyph unicode="@" horiz-adv-x="828" d="M584 111v-87q-75 -34 -170 -34q-159 0 -267 105t-108 270q0 164 106.5 269.5t268.5 105.5q164 0 269.5 -104.5t105.5 -270.5q0 -98 -54 -148.5t-155 -50.5q-45 0 -75 16t-36 40h-2q-46 -56 -125 -56q-69 0 -111 50q-50 59 -31 153t72.5 145.5t128.5 51.5q26 0 51 -14 q20 -12 33 -27h2l9 38h114l-49 -240q-15 -70 -4 -81q8 -6 22 -6q126 0 126 129q0 133 -80 214.5t-211 81.5q-128 0 -209.5 -83t-81.5 -213t81.5 -213t209.5 -83q95 0 170 42zM361 262q75 0 99 107q12 51 -8 82q-17 23 -48 23q-35 0 -62 -28t-38 -78q-12 -52 9 -82 q18 -24 48 -24z" />
<glyph unicode="A" horiz-adv-x="678" d="M29 0l250 730h120l250 -730h-118l-59 194h-270l-59 -194h-114zM229 280h216l-107 350h-2z" />
<glyph unicode="B" horiz-adv-x="613" d="M194 432h40q110 0 158.5 28t48.5 85q0 55 -39 81t-128 26q-45 0 -80 -7v-213zM194 346v-261q39 -7 90 -7q94 0 138 35t44 107q0 65 -53 95.5t-179 30.5h-40zM574 210q0 -220 -290 -220q-107 0 -200 15v720q89 15 190 15q270 0 270 -180q0 -60 -41 -105.5t-109 -58.5v-2 q84 -13 132 -62t48 -122z" />
<glyph unicode="C" horiz-adv-x="628" d="M384 80q80 0 165 26v-96q-84 -20 -175 -20q-152 0 -243.5 98t-91.5 277q0 177 88.5 276t246.5 99q91 0 170 -20v-96q-51 16 -81 21t-79 5q-108 0 -170.5 -74.5t-62.5 -210.5t64 -210.5t169 -74.5z" />
<glyph unicode="D" horiz-adv-x="673" d="M634 375q0 -385 -360 -385q-102 0 -190 15v720q89 15 190 15q177 0 268.5 -91.5t91.5 -273.5zM529 375q0 142 -62.5 208.5t-192.5 66.5q-45 0 -80 -7v-556q35 -7 80 -7q133 0 194 68.5t61 226.5z" />
<glyph unicode="E" horiz-adv-x="598" d="M194 640v-208h310v-86h-310v-256h330v-90h-440v730h440v-90h-330z" />
<glyph unicode="F" horiz-adv-x="583" d="M84 730h430v-90h-320v-218h300v-86h-300v-336h-110v730z" />
<glyph unicode="G" horiz-adv-x="698" d="M409 740q94 0 175 -20v-94q-83 26 -165 26q-129 0 -198.5 -73.5t-69.5 -213.5q0 -134 68 -210.5t180 -76.5q61 0 115 18v250h-215v86h320v-397q-108 -45 -230 -45q-154 0 -252 102t-98 273q0 174 99 274.5t271 100.5z" />
<glyph unicode="H" horiz-adv-x="698" d="M194 730v-298h310v298h110v-730h-110v346h-310v-346h-110v730h110z" />
<glyph unicode="I" horiz-adv-x="338" d="M109 0v730h120v-730h-120z" />
<glyph unicode="J" horiz-adv-x="543" d="M39 20v100q97 -40 180 -40q70 0 102.5 43t32.5 147v460h115v-490q0 -131 -60 -190.5t-190 -59.5q-102 0 -180 30z" />
<glyph unicode="K" horiz-adv-x="638" d="M194 730v-320h2l268 320h130l-300 -350l310 -380h-130l-278 350h-2v-350h-110v730h110z" />
<glyph unicode="L" horiz-adv-x="593" d="M199 730v-638h335v-92h-450v730h115z" />
<glyph unicode="M" horiz-adv-x="828" d="M84 0v730h106l221 -430h2l221 430h110v-730h-110v540h-2l-170 -340h-100l-170 340h-2v-540h-106z" />
<glyph unicode="N" horiz-adv-x="698" d="M84 0v730h108l312 -545h2v545h108v-730h-108l-312 545h-2v-545h-108z" />
<glyph unicode="O" horiz-adv-x="728" d="M364 740q150 0 237.5 -99t87.5 -276t-87.5 -276t-237.5 -99t-237.5 99t-87.5 276t87.5 276t237.5 99zM364 80q102 0 157.5 71.5t55.5 213.5t-55.5 213.5t-157.5 71.5t-157.5 -71.5t-55.5 -213.5t55.5 -213.5t157.5 -71.5z" />
<glyph unicode="P" horiz-adv-x="618" d="M194 364q50 -8 100 -8q88 0 135 38.5t47 110.5t-46 109.5t-136 37.5q-57 0 -100 -7v-281zM194 275v-275h-110v725q103 15 220 15q138 0 209 -58.5t71 -166.5q0 -245 -280 -245q-53 0 -110 5z" />
<glyph unicode="Q" horiz-adv-x="758" d="M364 650q-102 0 -157.5 -71.5t-55.5 -213.5t55.5 -213.5t157.5 -71.5t157.5 71.5t55.5 213.5t-55.5 213.5t-157.5 71.5zM364 -10q-150 0 -237.5 99t-87.5 276t87.5 276t237.5 99t237.5 -99t87.5 -276q0 -113 -41 -196t-114 -128v-2q65 -21 128.5 -73.5t101.5 -115.5h-130 q-54 85 -107.5 112.5t-162.5 27.5z" />
<glyph unicode="R" horiz-adv-x="638" d="M194 386h60q212 0 212 144q0 61 -45.5 91.5t-146.5 30.5q-45 0 -80 -7v-259zM194 300v-300h-110v725q94 15 200 15q144 0 217 -53t73 -147q0 -76 -39 -130t-106 -74v-2q43 -26 80 -119l85 -215h-114l-83 215q-21 54 -46.5 69.5t-96.5 15.5h-60z" />
<glyph unicode="S" horiz-adv-x="568" d="M279 652q-54 0 -83 -27t-29 -75q0 -39 27 -70.5t80 -49.5q132 -44 183.5 -98t51.5 -137q0 -101 -62 -153t-183 -52q-103 0 -190 45v105q87 -60 180 -60q145 0 145 115q0 44 -28.5 75t-96.5 55q-114 39 -164.5 93.5t-50.5 131.5q0 88 56 139t154 51q113 0 210 -40v-103 q-100 55 -200 55z" />
<glyph unicode="T" horiz-adv-x="638" d="M59 730h520v-92h-205v-638h-110v638h-205v92z" />
<glyph unicode="U" horiz-adv-x="668" d="M334 -10q-260 0 -260 265v475h112v-480q0 -88 36.5 -128t113.5 -40t113.5 40t36.5 128v480h108v-475q0 -265 -260 -265z" />
<glyph unicode="V" horiz-adv-x="678" d="M147 730l193 -620h2l193 620h114l-250 -730h-120l-250 730h118z" />
<glyph unicode="W" horiz-adv-x="888" d="M156 730l109 -610h2l109 610h140l109 -610h2l109 610h108l-155 -730h-135l-109 610h-2l-109 -610h-135l-155 730h112z" />
<glyph unicode="X" horiz-adv-x="668" d="M186 730l149 -285h2l149 285h123l-205 -360l210 -370h-129l-152 295h-2l-152 -295h-125l210 370l-205 360h127z" />
<glyph unicode="Y" horiz-adv-x="668" d="M158 730l177 -340h2l177 340h125l-247 -430v-300h-116v300l-247 430h129z" />
<glyph unicode="Z" horiz-adv-x="628" d="M74 730h480v-90l-352 -548v-2h352v-90h-480v90l352 548v2h-352v90z" />
<glyph unicode="[" horiz-adv-x="488" d="M214 690v-765h190v-80h-290v925h290v-80h-190z" />
<glyph unicode="\" horiz-adv-x="533" d="M49 730h105l345 -770h-105z" />
<glyph unicode="]" horiz-adv-x="488" d="M274 -75v765h-190v80h290v-925h-290v80h190z" />
<glyph unicode="^" horiz-adv-x="658" d="M39 280l225 450h130l225 -450h-112l-178 380l-178 -380h-112z" />
<glyph unicode="_" horiz-adv-x="580" d="M0 -155v80h580v-80h-580z" />
<glyph unicode="`" horiz-adv-x="303" d="M154 810l110 -270h-90l-160 270h140z" />
<glyph unicode="a" horiz-adv-x="548" d="M259 530q126 0 173 -45t47 -165v-320h-98l-2 75h-2q-58 -85 -173 -85q-68 0 -111.5 44t-43.5 116q0 88 67 136.5t203 48.5h55v20q0 53 -25 74t-90 21q-82 0 -180 -38v88q93 30 180 30zM374 262h-55q-82 0 -123.5 -27.5t-41.5 -74.5q0 -37 22 -61t53 -24q66 0 105.5 41.5 t39.5 113.5v32z" />
<glyph unicode="b" horiz-adv-x="593" d="M184 185q0 -45 38.5 -80t91.5 -35q61 0 95.5 47t34.5 143q0 190 -130 190q-53 0 -91.5 -35t-38.5 -80v-150zM549 260q0 -124 -59.5 -197t-150.5 -73q-49 0 -84.5 16.5t-73.5 58.5h-2l-2 -65h-98v730h105v-265h2q65 65 153 65q95 0 152.5 -71t57.5 -199z" />
<glyph unicode="c" horiz-adv-x="498" d="M39 260q0 131 63 200.5t177 69.5q70 0 145 -15v-90q-70 23 -138 23t-102.5 -45t-34.5 -143q0 -100 36.5 -144t110.5 -44q66 0 133 28v-90q-70 -20 -140 -20q-120 0 -185 68.5t-65 201.5z" />
<glyph unicode="d" horiz-adv-x="593" d="M409 185v150q0 45 -38.5 80t-91.5 35q-130 0 -130 -190q0 -96 34.5 -143t95.5 -47q53 0 91.5 35t38.5 80zM44 260q0 128 57.5 199t152.5 71q88 0 153 -65h2v265h105v-730h-98l-2 65h-2q-38 -42 -73.5 -58.5t-84.5 -16.5q-91 0 -150.5 73t-59.5 197z" />
<glyph unicode="e" horiz-adv-x="533" d="M145 308h241q-1 144 -112 144q-59 0 -90.5 -34t-38.5 -110zM145 230q7 -162 164 -162q67 0 145 32v-88q-83 -22 -155 -22q-125 0 -192.5 68t-67.5 202t60.5 202t174.5 68q108 0 161.5 -64.5t53.5 -200.5q0 -14 -3 -35h-341z" />
<glyph unicode="f" horiz-adv-x="513" d="M54 420v80h110v40q0 104 45 152t140 48q50 0 95 -15v-80q-38 15 -75 15q-53 0 -74 -24.5t-21 -90.5v-45h160v-80h-160v-420h-110v420h-110z" />
<glyph unicode="g" horiz-adv-x="578" d="M399 205v120q0 50 -37 87.5t-88 37.5q-125 0 -125 -180q0 -96 33.5 -143t91.5 -47q51 0 88 37.5t37 87.5zM44 270q0 124 53 192t147 68q49 0 84.5 -16.5t73.5 -58.5h2l2 65h98v-485q0 -136 -61 -200.5t-189 -64.5q-78 0 -150 20v90q70 -30 150 -30q76 0 110.5 42.5 t34.5 137.5v35h-2q-65 -65 -153 -65t-144 71t-56 199z" />
<glyph unicode="h" horiz-adv-x="588" d="M519 310v-310h-103v290q0 93 -21.5 124t-80.5 31q-46 0 -88 -43.5t-42 -91.5v-310h-105v730h105v-275h2q69 75 158 75q91 0 133 -50.5t42 -169.5z" />
<glyph unicode="i" horiz-adv-x="328" d="M109 0v520h110v-520h-110zM109 640v110h110v-110h-110z" />
<glyph unicode="j" horiz-adv-x="368" d="M-11 -220v88q104 0 132 25t28 117v510h110v-510q0 -72 -10.5 -114t-41.5 -69.5t-81.5 -37t-136.5 -9.5zM149 640v110h110v-110h-110z" />
<glyph unicode="k" horiz-adv-x="573" d="M186 250h-2v-250h-105v730h105v-440h2l218 230h125l-240 -250l240 -270h-125z" />
<glyph unicode="l" horiz-adv-x="328" d="M109 0v750h110v-750h-110z" />
<glyph unicode="m" horiz-adv-x="793" d="M452 360v-360h-103v300q0 91 -17 120.5t-63 29.5q-29 0 -59.5 -30t-30.5 -60v-360h-105v520h100l2 -60h2q58 70 131 70q44 0 71 -18t48 -62h2q59 80 142 80q81 0 116.5 -44.5t35.5 -155.5v-330h-103v300q0 92 -16.5 121t-63.5 29q-29 0 -59 -30t-30 -60z" />
<glyph unicode="n" horiz-adv-x="583" d="M176 455q72 75 163 75t133 -51.5t42 -168.5v-310h-102v295q0 89 -22.5 122t-80.5 33q-47 0 -88.5 -41.5t-41.5 -88.5v-320h-105v520h98l2 -65h2z" />
<glyph unicode="o" horiz-adv-x="568" d="M284 530q115 0 180 -70.5t65 -199.5t-65 -199.5t-180 -70.5t-180 70.5t-65 199.5t65 199.5t180 70.5zM284 70q138 0 138 190t-138 190t-138 -190t138 -190z" />
<glyph unicode="p" horiz-adv-x="588" d="M179 185q0 -46 38.5 -80.5t91.5 -34.5q60 0 95 48t35 142q0 190 -130 190q-53 0 -91.5 -34.5t-38.5 -80.5v-150zM544 260q0 -124 -59.5 -197t-150.5 -73q-88 0 -153 65h-2v-275h-105v740h98l2 -65h2q38 42 73.5 58.5t84.5 16.5q95 0 152.5 -71t57.5 -199z" />
<glyph unicode="q" horiz-adv-x="588" d="M409 185v150q0 46 -38.5 80.5t-91.5 34.5q-130 0 -130 -190q0 -94 35 -142t95 -48q53 0 91.5 34.5t38.5 80.5zM44 260q0 128 57.5 199t152.5 71q49 0 84.5 -16.5t73.5 -58.5h2l2 65h98v-740h-105v275h-2q-65 -65 -153 -65q-91 0 -150.5 73t-59.5 197z" />
<glyph unicode="r" horiz-adv-x="468" d="M414 435h-20q-108 0 -159 -45.5t-51 -139.5v-250h-110v520h105v-100h2q32 46 89 73t124 27h20v-85z" />
<glyph unicode="s" horiz-adv-x="508" d="M269 450q-105 0 -105 -60q0 -30 20 -49t70 -31q115 -27 155 -64.5t40 -110.5q0 -68 -52.5 -106.5t-152.5 -38.5q-92 0 -170 30v85q78 -35 160 -35q110 0 110 65q0 31 -22 50.5t-78 34.5q-102 25 -143.5 63.5t-41.5 96.5q0 70 50.5 110t149.5 40q87 0 170 -25v-85 q-83 30 -160 30z" />
<glyph unicode="t" horiz-adv-x="513" d="M259 500h180v-80h-180v-240q0 -68 16 -89t64 -21q45 0 85 13v-83q-49 -10 -105 -10q-92 0 -128.5 39t-36.5 141v250h-105v80h105v190h105v-190z" />
<glyph unicode="u" horiz-adv-x="578" d="M402 65q-72 -75 -163 -75q-88 0 -129 48.5t-41 161.5v320h103v-305q0 -83 22 -114t75 -31q47 0 88.5 41.5t41.5 88.5v320h105v-520h-98l-2 65h-2z" />
<glyph unicode="v" horiz-adv-x="558" d="M148 520l132 -460h2l132 460h110l-175 -520h-140l-175 520h114z" />
<glyph unicode="w" horiz-adv-x="798" d="M158 520l87 -430h2l84 430h140l84 -430h2l87 430h110l-135 -520h-135l-84 420h-2l-84 -420h-135l-135 520h114z" />
<glyph unicode="x" horiz-adv-x="558" d="M278 200h-2l-114 -200h-113l170 265l-165 255h117l109 -190h2l109 190h113l-165 -255l170 -265h-117z" />
<glyph unicode="y" horiz-adv-x="558" d="M273 120h2l143 400h106l-295 -740h-106l96 220l-185 520h110z" />
<glyph unicode="z" horiz-adv-x="548" d="M74 520h400v-80l-275 -358v-2h275v-80h-400v80l275 358v2h-275v80z" />
<glyph unicode="{" horiz-adv-x="528" d="M284 465q0 -63 -22 -99t-73 -58v-2q51 -21 73 -57t22 -99v-120q0 -66 19 -85.5t76 -19.5h60v-80h-110q-77 0 -111 36t-34 119v145q0 120 -85 120h-40v85h40q85 0 85 120v145q0 83 34 119t111 36h110v-80h-60q-57 0 -76 -19t-19 -86v-120z" />
<glyph unicode="|" horiz-adv-x="368" d="M134 -220v1030h100v-1030h-100z" />
<glyph unicode="}" horiz-adv-x="528" d="M244 465v120q0 67 -19 86t-76 19h-60v80h110q77 0 111 -36t34 -119v-145q0 -120 85 -120h40v-85h-40q-85 0 -85 -120v-145q0 -83 -34 -119t-111 -36h-110v80h60q57 0 76 19.5t19 85.5v120q0 63 22 99t73 57v2q-51 22 -73 58t-22 99z" />
<glyph unicode="~" horiz-adv-x="708" d="M592 361l62 -50q-70 -111 -179 -111q-78 0 -144 65q-48 48 -98 48q-65 0 -117 -74l-62 50q70 111 179 111q78 0 144 -65q48 -48 98 -48q65 0 117 74z" />
<glyph unicode="&#xa5;" horiz-adv-x="678" d="M84 140v70h198v80h-198v70h163l-213 370h129l177 -340h2l177 340h125l-213 -370h163v-70h-198v-80h198v-70h-198v-140h-114v140h-198z" />
<glyph unicode="&#xad;" horiz-adv-x="478" d="M79 248v84h320v-84h-320z" />
<glyph unicode="&#x2000;" horiz-adv-x="427" />
<glyph unicode="&#x2001;" horiz-adv-x="855" />
<glyph unicode="&#x2002;" horiz-adv-x="475" />
<glyph unicode="&#x2003;" horiz-adv-x="950" />
<glyph unicode="&#x2004;" horiz-adv-x="317" />
<glyph unicode="&#x2005;" horiz-adv-x="238" />
<glyph unicode="&#x2006;" horiz-adv-x="158" />
<glyph unicode="&#x2007;" horiz-adv-x="142" />
<glyph unicode="&#x2008;" horiz-adv-x="106" />
<glyph unicode="&#x2009;" horiz-adv-x="190" />
<glyph unicode="&#x200a;" horiz-adv-x="47" />
<glyph unicode="&#x2010;" horiz-adv-x="250" d="M0 320v85h250v-85h-250z" />
<glyph unicode="&#x2011;" horiz-adv-x="468" d="M79 248v84h310v-84h-310z" />
<glyph unicode="&#x2012;" horiz-adv-x="568" d="M79 248v84h410v-84h-410z" />
<glyph unicode="&#x2013;" horiz-adv-x="475" d="M0 248v84h475v-84h-475z" />
<glyph unicode="&#x2014;" horiz-adv-x="950" d="M0 248v84h950v-84h-950z" />
<glyph unicode="&#x2015;" horiz-adv-x="990" d="M0 320v85h990v-85h-990z" />
<glyph unicode="&#x2016;" horiz-adv-x="558" d="M336 -220v1030h98v-1030h-98zM124 -220v1030h98v-1030h-98z" />
<glyph unicode="&#x2017;" horiz-adv-x="600" d="M0 -295v77h600v-77h-600zM0 -142v77h600v-77h-600z" />
<glyph unicode="&#x2018;" horiz-adv-x="323" d="M184 510h-140l110 260h100z" />
<glyph unicode="&#x2019;" horiz-adv-x="323" d="M139 770h140l-110 -260h-100z" />
<glyph unicode="&#x201a;" horiz-adv-x="338" d="M129 150h140l-110 -260h-100z" />
<glyph unicode="&#x201b;" horiz-adv-x="323" d="M184 770l70 -260h-100l-110 260h140z" />
<glyph unicode="&#x201c;" horiz-adv-x="503" d="M369 510h-130l110 260h90zM169 510h-130l110 260h90z" />
<glyph unicode="&#x201d;" horiz-adv-x="503" d="M334 770h130l-110 -260h-90zM134 770h130l-110 -260h-90z" />
<glyph unicode="&#x201e;" horiz-adv-x="518" d="M324 150h130l-110 -260h-90zM124 150h130l-110 -260h-90z" />
<glyph unicode="&#x201f;" horiz-adv-x="503" d="M169 770l70 -260h-90l-110 260h130zM369 770l70 -260h-90l-110 260h130z" />
<glyph unicode="&#x2020;" horiz-adv-x="558" d="M499 520v-80h-170v-560h-100v560h-170v80h170v210h100v-210h170z" />
<glyph unicode="&#x2021;" horiz-adv-x="578" d="M509 440h-170v-210h170v-80h-170v-270h-100v270h-170v80h170v210h-170v80h170v210h100v-210h170v-80z" />
<glyph unicode="&#x2022;" horiz-adv-x="488" d="M244 170q-50 0 -85 35t-35 85t35 85t85 35t85 -35t35 -85t-35 -85t-85 -35z" />
<glyph unicode="&#x2023;" horiz-adv-x="508" d="M414 290l-280 -155v310z" />
<glyph unicode="&#x2024;" horiz-adv-x="318" d="M94 0v150h130v-150h-130z" />
<glyph unicode="&#x2025;" d="M669 288v150h130v-150h-130zM169 288v150h130v-150h-130z" />
<glyph unicode="&#x2026;" d="M752 288v150h130v-150h-130zM419 288v150h130v-150h-130zM86 288v150h130v-150h-130z" />
<glyph unicode="&#x2027;" horiz-adv-x="388" d="M129 215v150h130v-150h-130z" />
<glyph unicode="&#x202f;" horiz-adv-x="171" />
<glyph unicode="&#x205f;" horiz-adv-x="213" />
<glyph unicode="&#x3000;" />
<glyph unicode="&#x3001;" d="M330 -3l-90 -70q-90 111 -190 215l85 75q109 -116 195 -220z" />
<glyph unicode="&#x3002;" d="M52 72q0 66 47 113t113 47t113 -47t47 -113t-47 -113t-113 -47t-113 47t-47 113zM132 72q0 -33 23.5 -56.5t56.5 -23.5t56.5 23.5t23.5 56.5t-23.5 56.5t-56.5 23.5t-56.5 -23.5t-23.5 -56.5z" />
<glyph unicode="&#x3008;" d="M635 360l270 -462h-110l-270 462l270 462h110z" />
<glyph unicode="&#x3009;" d="M365 360l-270 462h110l270 -462l-270 -462h-110z" />
<glyph unicode="&#x300a;" d="M635 360l270 -462h-105l-270 462l270 462h105zM465 360l270 -462h-105l-270 462l270 462h105z" />
<glyph unicode="&#x300b;" d="M365 360l-270 462h105l270 -462l-270 -462h-105zM535 360l-270 462h105l270 -462l-270 -462h-105z" />
<glyph unicode="&#x300c;" d="M535 825h400v-85h-300v-675h-100v760z" />
<glyph unicode="&#x300d;" d="M465 -105h-400v85h300v675h100v-760z" />
<glyph unicode="&#x300e;" d="M555 85h75v605h245v75h-320v-680zM555 25h-60v800h440v-195h-245v-605h-135z" />
<glyph unicode="&#x300f;" d="M445 635h-75v-605h-245v-75h320v680zM445 695h60v-800h-440v195h245v605h135z" />
<glyph unicode="&#x3010;" d="M600 -102v924h305q-95 -90 -147.5 -211t-52.5 -251t52.5 -251t147.5 -211h-305z" />
<glyph unicode="&#x3011;" d="M400 -102h-305q95 90 147.5 211t52.5 251t-52.5 251t-147.5 211h305v-924z" />
<glyph unicode="&#x3014;" d="M880 744l-270 -84v-600l270 -84v-84l-370 116v704l370 116v-84z" />
<glyph unicode="&#x3015;" d="M120 744v84l370 -116v-704l-370 -116v84l270 84v600z" />
<glyph unicode="&#x3016;" d="M540 -102v924h365q-86 -90 -133 -211t-47 -251t47 -251t133 -211h-365zM665 360q0 221 123 402h-188v-804h188q-123 181 -123 402z" />
<glyph unicode="&#x3017;" d="M460 -102h-365q86 90 133 211t47 251t-47 251t-133 211h365v-924zM335 360q0 -221 -123 -402h188v804h-188q123 -181 123 -402z" />
<glyph unicode="&#x3018;" d="M660 158l220 -64v-202l-415 116v704l415 116v-202l-220 -64v-404zM525 55l295 -86v78l-220 64v498l220 64v78l-295 -86v-610z" />
<glyph unicode="&#x3019;" d="M340 158v404l-220 64v202l415 -116v-704l-415 -116v202zM475 55v610l-295 86v-78l220 -64v-498l-220 -64v-78z" />
<glyph unicode="&#x301a;" d="M530 -102h-60v924h410v-194h-215v-536h215v-194h-350zM530 -42h290v74h-215v656h215v74h-290v-804z" />
<glyph unicode="&#x301b;" d="M470 -42v804h-290v-74h215v-656h-215v-74h290zM470 -102h-350v194h215v536h-215v194h410v-924h-60z" />
<glyph unicode="&#x301c;" d="M682 335q54 0 96.5 24.5t89.5 85.5l81 -68q-104 -145 -267 -145q-116 0 -215 87q-76 66 -149 66q-54 0 -97 -25t-91 -86l-79 69q104 145 267 145q116 0 215 -87q76 -66 149 -66z" />
<glyph unicode="&#x301d;" d="M650 825l70 -210h-70l-120 210h120zM835 825l70 -210h-70l-120 210h120z" />
<glyph unicode="&#x301e;" d="M350 825h120l-120 -210h-70zM165 825h120l-120 -210h-70z" />
<glyph unicode="&#x301f;" d="M350 -105l-70 210h70l120 -210h-120zM165 -105l-70 210h70l120 -210h-120z" />
<glyph unicode="&#x3041;" d="M600 -67l-25 84q74 15 118 57t44 97q0 79 -65 113q-55 -146 -152.5 -229t-199.5 -83q-69 0 -110.5 41t-41.5 112q0 82 51.5 145.5t144.5 95.5v99h-162v79h162v93h92v-93h342v-79h-342v-77q42 6 89 6q136 0 211.5 -60t75.5 -163q0 -91 -62 -154.5t-170 -83.5zM587 307 q-13 2 -42 2q-53 0 -89 -8v-187q83 72 131 193zM364 62v209q-101 -51 -101 -136q0 -38 17.5 -58t48.5 -20q15 0 35 5z" />
<glyph unicode="&#x3042;" d="M594 20q99 19 157.5 75t58.5 130q0 110 -99 157q-68 -187 -191 -294.5t-250 -107.5q-82 0 -131 49.5t-49 135.5q0 102 65 181t180 120v134h-205v85h205v120h100v-120h435v-85h-435v-109q57 9 120 9q168 0 261.5 -74t93.5 -201q0 -112 -77 -190.5t-212 -104.5zM620 406 q-27 4 -65 4q-65 0 -120 -12v-263q121 99 185 271zM335 79v287q-68 -32 -106.5 -82.5t-38.5 -108.5q0 -51 23.5 -78t66.5 -27q26 0 55 9z" />
<glyph unicode="&#x3043;" d="M634 530l91 27q110 -222 110 -516h-99q0 269 -102 489zM320 540q-36 -124 -36 -268q0 -91 29.5 -153.5t59.5 -62.5q21 0 55.5 46.5t67.5 133.5l88 -34q-40 -115 -101 -180.5t-117 -65.5q-67 0 -124.5 92.5t-57.5 223.5q0 151 40 279z" />
<glyph unicode="&#x3044;" d="M681 672l96 30q67 -130 102.5 -295.5t35.5 -341.5h-105q0 163 -34 322t-95 285zM260 684q-45 -158 -45 -334q0 -120 41 -202.5t82 -82.5q28 0 73 61t89 174l95 -37q-50 -142 -124.5 -222.5t-140.5 -80.5q-82 0 -151 114t-69 276q0 187 48 346z" />
<glyph unicode="&#x3045;" d="M337 42q186 18 276.5 70t90.5 124q0 88 -150 88q-121 0 -338 -51l-21 87q209 53 364 53q125 0 184.5 -47t59.5 -125q0 -120 -113.5 -195.5t-331.5 -92.5zM318 615q183 -27 370 -27v-90q-173 0 -381 30z" />
<glyph unicode="&#x3046;" d="M124 460q263 65 451 65q156 0 228 -58t72 -152q0 -149 -142 -244t-408 -116l-25 95q236 23 353 93t117 167q0 120 -200 120q-156 0 -424 -62zM276 775q240 -35 454 -35v-95q-210 0 -466 38z" />
<glyph unicode="&#x3047;" d="M231 437h513v-97l-171 -131v-1h3q21 0 35 -19.5t27 -70.5q12 -46 26 -58t54 -12q49 0 96 14l17 -85q-60 -16 -123 -16q-72 0 -106 22.5t-48 79.5q-11 45 -22.5 61.5t-28.5 16.5t-54 -25t-220 -162l-55 73l436 324l-1 1h-378v85zM318 620q189 -28 370 -28v-86 q-168 0 -381 29z" />
<glyph unicode="&#x3048;" d="M798 453l-223 -177l1 -1h4q30 0 48 -25t37 -99q16 -62 34.5 -77.5t70.5 -15.5q64 0 124 17l17 -90q-75 -20 -151 -20q-86 0 -126 28t-59 101q-16 61 -31.5 83.5t-38.5 22.5t-66.5 -30.5t-282.5 -213.5l-59 78l558 429l-1 2h-489v90h633v-102zM264 690l12 90 q240 -35 454 -35v-93q-198 0 -466 38z" />
<glyph unicode="&#x3049;" d="M208 457v79h175v101h94v-101h174v-79h-174v-106q17 1 52 1q118 0 191 -55t73 -132q0 -189 -229 -215l-20 85q152 17 152 125q0 41 -45.5 72t-121.5 31q-20 0 -52 -2v-173q0 -72 -28 -99.5t-99 -27.5q-78 0 -134 49.5t-56 119.5q0 69 58.5 125.5t164.5 81.5v120h-175z M689 520l67 48q75 -97 125 -180l-70 -43q-54 88 -122 175zM383 246q-63 -17 -95.5 -48t-32.5 -68q0 -33 26.5 -59t58.5 -26q24 0 33.5 10.5t9.5 37.5v153z" />
<glyph unicode="&#x304a;" d="M140 675h220v130h100v-130h225v-85h-225v-148q36 3 75 3q149 0 239.5 -68t90.5 -162q0 -116 -72 -183t-213 -82l-20 90q104 12 153 53.5t49 116.5q0 56 -62 98t-165 42q-41 0 -75 -3v-232q0 -84 -33.5 -117t-116.5 -33q-93 0 -161.5 60.5t-68.5 144.5q0 86 73.5 156.5 t206.5 100.5v163h-220v85zM734 658l71 56q96 -116 159 -219l-76 -49q-65 104 -154 212zM360 331q-88 -22 -134 -65.5t-46 -95.5q0 -45 37.5 -81.5t82.5 -36.5q34 0 47 14.5t13 51.5v213z" />
<glyph unicode="&#x304b;" d="M313 816l97 -11q-15 -97 -36 -195h76h73.5t54 -5.5t41 -10t26 -22t18 -31.5t8 -50t4.5 -66v-90q0 -189 -45.5 -282t-119.5 -93q-39 0 -97.5 14t-109.5 37l32 91q105 -42 155 -42q14 0 28 17t26 51t19 91.5t7 130.5v57t-2 41t-3 31t-8 19t-11 13.5t-18.5 5t-24.5 3.5h-33 h-117q-68 -287 -189 -567l-92 35q108 249 178 532h-165v90h187q26 116 41 206zM705 660l94 32q103 -244 171 -506l-97 -23q-68 263 -168 497z" />
<glyph unicode="&#x304c;" d="M628 731l81 42q60 -106 89 -163l-81 -39q-46 87 -89 160zM776 767l83 43q51 -90 91 -166l-83 -40q-42 80 -91 163zM313 816l97 -11q-15 -97 -36 -195h76h73.5t54 -5.5t41 -10t26 -22t18 -31.5t8 -50t4.5 -66v-90q0 -189 -45.5 -282t-119.5 -93q-39 0 -97.5 14t-109.5 37 l32 91q105 -42 155 -42q14 0 28 17t26 51t19 91.5t7 130.5v57t-2 41t-3 31t-8 19t-11 13.5t-18.5 5t-24.5 3.5h-33h-117q-68 -287 -189 -567l-92 35q108 249 178 532h-165v90h187q26 116 41 206zM967 169l-95 -30q-57 172 -144 363l92 39q88 -194 147 -372z" />
<glyph unicode="&#x304d;" d="M638 304l2 1q-27 51 -52 113q-262 -8 -489 -8v85q242 0 458 7q-19 61 -28 105q-198 -6 -390 -6v85q185 0 375 6q-8 52 -9 108l101 5q3 -52 11 -110q85 3 257 11l3 -85q-167 -8 -245 -11q12 -54 30 -105q162 6 237 10l3 -85l-207 -9q35 -79 95 -168l-95 -63 q-128 62 -244 62q-97 0 -138.5 -23t-41.5 -69q0 -62 60.5 -92t204.5 -30q113 0 234 19l12 -87q-125 -20 -246 -20q-375 0 -375 210q0 81 73 129.5t217 48.5q94 0 187 -34z" />
<glyph unicode="&#x304e;" d="M690 797l74 38q42 -72 80 -148l-59 -29l2 -51q-56 -3 -175 -7q12 -54 30 -105q162 6 247 10l3 -85q-214 -9 -217 -9q39 -85 95 -168l-95 -63q-128 62 -244 62q-170 0 -170 -92q0 -62 60.5 -92t204.5 -30q113 0 234 19l12 -87q-125 -20 -246 -20q-375 0 -375 210 q0 81 72 129.5t208 48.5q94 0 187 -34l2 1q-26 49 -52 112q-282 -7 -479 -7v85q237 0 448 7q-19 61 -28 105q-193 -6 -380 -6v85q158 0 365 5q-8 54 -9 109l101 5q3 -51 11 -111q103 4 152 7zM832 812l76 38q47 -81 82 -151l-76 -37z" />
<glyph unicode="&#x304f;" d="M372 463q-59 -38 -75.5 -52.5t-16.5 -30.5q0 -15 14.5 -28.5t68.5 -50.5q204 -140 407 -311l-73 -74q-192 161 -396 304q-95 65 -118 90.5t-23 69.5q0 46 24.5 72t122.5 90q185 121 365 262l68 -76q-200 -157 -368 -265z" />
<glyph unicode="&#x3050;" d="M581 518l89 45q56 -97 98 -178l-89 -43q-41 80 -98 176zM735 559l90 46q54 -89 100 -180l-90 -44q-46 88 -100 178zM627 814l61 -84q-187 -150 -361 -264q-59 -39 -75.5 -54t-16.5 -32q0 -15 14.5 -29t68.5 -51q207 -147 400 -315l-66 -79q-175 151 -396 311 q-95 66 -118 92t-23 71q0 48 24.5 74.5t122.5 91.5q182 121 365 268z" />
<glyph unicode="&#x3051;" d="M370 590h320v190h100v-190h155v-90h-155v-135q0 -142 -24.5 -220t-83.5 -121t-176 -74l-32 90q61 17 94 31t60.5 35t39 55.5t17 81t5.5 122.5v135h-320v90zM258 759q-48 -186 -48 -399t48 -399l-103 -12q-50 190 -50 411t50 411z" />
<glyph unicode="&#x3052;" d="M874 676l-77 -20q-30 95 -55 155l77 24q34 -95 55 -159zM917 671q-27 88 -57 159l79 25q27 -74 56 -163zM238 749q-48 -186 -48 -399t48 -399l-103 -12q-50 190 -50 411t50 411zM345 575h285v195h100v-195h190v-90h-190v-130q0 -142 -24.5 -220t-83.5 -121t-176 -74 l-32 90q61 17 94 31t60.5 35t39 55.5t17 81t5.5 122.5v130h-285v90z" />
<glyph unicode="&#x3053;" d="M215 628v92h580v-92h-580zM125 175q0 101 150 247l76 -61q-119 -115 -119 -176q0 -59 72 -94.5t201 -35.5q73 0 170.5 13t160.5 32l20 -95q-65 -19 -167.5 -32t-183.5 -13q-176 0 -278 59t-102 156z" />
<glyph unicode="&#x3054;" d="M618 521l81 42q60 -106 89 -163l-81 -39q-46 87 -89 160zM766 557l83 43q51 -90 91 -166l-83 -40q-42 80 -91 163zM205 648v92h580v-92h-580zM115 175q0 101 150 247l76 -61q-119 -115 -119 -176q0 -59 72 -94.5t201 -35.5q73 0 170.5 13t160.5 32l20 -95 q-65 -19 -167.5 -32t-183.5 -13q-176 0 -278 59t-102 156z" />
<glyph unicode="&#x3055;" d="M445 335q-87 0 -136 -35t-49 -95q0 -160 270 -160q116 0 239 25l17 -90q-125 -25 -256 -25q-194 0 -284.5 71t-90.5 184q0 98 76 156.5t209 58.5q102 0 198 -43l2 2q-47 88 -70 193q-221 -7 -470 -7v90q239 0 453 7q-8 52 -13 128l100 5q4 -69 12 -130q161 6 248 10 l3 -90q-74 -4 -234 -10q32 -137 120 -272l-94 -53q-112 80 -250 80z" />
<glyph unicode="&#x3056;" d="M690 797l74 38q42 -72 80 -148l-64 -32q19 1 55 2.5t55 2.5l3 -90q-80 -4 -232 -10q33 -132 118 -262l-94 -53q-112 80 -250 80q-87 0 -136 -35t-49 -95q0 -160 270 -160q116 0 239 25l17 -90q-125 -25 -256 -25q-194 0 -284.5 71t-90.5 184q0 98 76 156.5t209 58.5 q102 0 198 -43l2 2q-42 79 -68 183q-278 -7 -472 -7v90q239 0 455 7q-11 63 -15 138l100 5q4 -69 14 -140q43 1 124 5q-38 72 -78 142zM832 812l76 38q47 -81 82 -151l-76 -37z" />
<glyph unicode="&#x3057;" d="M208 775l107 -3q-13 -279 -13 -447q0 -88 10 -143t34 -85.5t56 -41t83 -10.5q204 0 320 299l95 -36q-67 -181 -173 -272t-242 -91q-163 0 -226.5 81.5t-63.5 298.5q0 198 13 450z" />
<glyph unicode="&#x3058;" d="M516 703l89 45q56 -97 98 -178l-89 -43q-41 80 -98 176zM670 744l90 46q54 -89 100 -180l-90 -44q-46 88 -100 178zM188 775l107 -3q-13 -279 -13 -447q0 -88 10 -143t34 -85.5t56 -41t83 -10.5q204 0 320 299l95 -36q-67 -181 -173 -272t-242 -91q-163 0 -226.5 81.5 t-63.5 298.5q0 198 13 450z" />
<glyph unicode="&#x3059;" d="M585 222q-50 -52 -145 -52q-87 0 -143.5 55.5t-56.5 139.5t56.5 139.5t143.5 55.5q66 0 118 -30h2v80h-490v85h490v120h100v-120h270v-85h-270v-208q22 -57 22 -132q0 -150 -83 -228.5t-273 -101.5l-16 94q144 18 205 60t71 123q0 1 0.5 2t0.5 2zM342 365q0 -45 32.5 -75 t83.5 -30q50 0 82 30t32 75t-32 75t-82 30q-51 0 -83.5 -30t-32.5 -75z" />
<glyph unicode="&#x305a;" d="M658 476l81 42q60 -106 89 -163l-81 -39q-46 87 -89 160zM806 512l83 43q51 -90 91 -166l-83 -40q-42 80 -91 163zM545 222q-50 -52 -145 -52q-87 0 -143.5 55.5t-56.5 139.5t56.5 139.5t143.5 55.5q65 0 118 -30h2v80h-465v85h465v120h100v-120h295v-85h-295v-208 q22 -57 22 -132q0 -150 -83 -228.5t-273 -101.5l-16 94q144 18 205 60t71 123q0 1 0.5 2t0.5 2zM302 365q0 -45 32.5 -75t83.5 -30q50 0 82 30t32 75t-32 75t-82 30q-51 0 -83.5 -30t-32.5 -75z" />
<glyph unicode="&#x305b;" d="M225 775h100v-178q119 2 357 8v195h98v-191l148 6l3 -90l-151 -6v-167q0 -78 -22.5 -106t-82.5 -28q-34 0 -104 13t-108 27l24 92q38 -13 93.5 -24t74.5 -11q20 0 23.5 7t3.5 50v143q-119 -4 -357 -8v-307q0 -52 7 -79.5t32.5 -45t65.5 -22.5t115 -5q143 0 282 19l9 -92 q-137 -20 -291 -20q-101 0 -160.5 10t-97 39t-50 74t-12.5 122v306q-53 -1 -157 -1v90q104 0 157 1v179z" />
<glyph unicode="&#x305c;" d="M195 765h100v-188q112 1 333 7v206h97v-202q125 4 183 7l3 -90q-59 -3 -186 -7v-160q0 -79 -22.5 -107.5t-82.5 -28.5q-34 0 -103.5 13.5t-108.5 27.5l24 92q38 -13 93.5 -24t74.5 -11q20 0 24 7.5t4 50.5v136q-221 -6 -333 -7v-297q0 -52 7 -79.5t32.5 -45t65.5 -22.5 t115 -5q143 0 282 19l9 -92q-137 -20 -291 -20q-101 0 -160.5 10t-97 39t-50 74t-12.5 122v296q-49 -1 -147 -1v90q98 0 147 1v189zM736 815l79 25q30 -81 53 -160l-79 -23q-26 84 -53 158zM859 831l81 24q26 -68 55 -163l-81 -23q-36 109 -55 162z" />
<glyph unicode="&#x305d;" d="M478 358v2l-405 -30l-6 90q132 10 258 66t291 177l-1 2h-390v90h558v-89q-204 -144 -383 -221v-2l507 37l6 -90l-263 -19q-106 -40 -160.5 -95t-54.5 -114q0 -120 225 -120q81 0 159 15l12 -92q-84 -15 -171 -15q-178 0 -256.5 54.5t-78.5 145.5q0 56 39 110t114 98z" />
<glyph unicode="&#x305e;" d="M458 358v2l-405 -30l-6 90q132 10 258 66t291 177l-1 2h-390v90h548l7 -62l55 17q30 -81 53 -160l-79 -23l-42 128q-196 -136 -367 -210v-2l507 37l6 -90l-263 -19q-106 -40 -160.5 -95t-54.5 -114q0 -120 225 -120q81 0 159 15l12 -92q-84 -15 -171 -15 q-178 0 -256.5 54.5t-78.5 145.5q0 56 39 110t114 98zM859 701l81 24q26 -68 55 -163l-81 -23q-36 109 -55 162z" />
<glyph unicode="&#x305f;" d="M885 405q-206 0 -402 -25l-6 90q197 25 408 25v-90zM505 295l65 -60q-40 -32 -55 -51t-15 -36q0 -41 53 -67t142 -26q93 0 199 20l12 -90q-106 -20 -211 -20q-134 0 -214.5 48.5t-80.5 124.5q0 77 105 157zM105 595v90h162q16 84 23 126l100 -9q-9 -58 -21 -117h356v-90 h-373q-73 -351 -177 -649l-100 23q104 294 174 626h-144z" />
<glyph unicode="&#x3060;" d="M670 787l74 38q42 -72 80 -148l-74 -37q-36 70 -80 147zM812 802l76 38q47 -81 82 -151l-76 -37zM875 395q-206 0 -402 -25l-6 90q197 25 408 25v-90zM495 285l65 -60q-40 -32 -55 -51t-15 -36q0 -41 53 -67t142 -26q93 0 199 20l12 -90q-106 -20 -211 -20 q-134 0 -214.5 48.5t-80.5 124.5q0 77 105 157zM95 585v90h162q16 84 23 126l100 -9q-9 -58 -21 -117h336v-90h-353q-73 -351 -177 -649l-100 23q104 294 174 626h-144z" />
<glyph unicode="&#x3061;" d="M100 580v90h227q15 68 23 131l100 -7q-7 -50 -22 -124h472v-90h-494q-29 -103 -72 -201l2 -1q120 52 229 52q137 0 208.5 -58t71.5 -167q0 -113 -99 -181.5t-266 -68.5q-124 0 -246 25l17 90q122 -25 229 -25q120 0 190 45t70 120q0 130 -180 130q-151 0 -280 -87l-89 39 q78 159 114 288h-205z" />
<glyph unicode="&#x3062;" d="M695 802l74 38q42 -72 80 -148l-74 -37q-36 70 -80 147zM837 817l76 38q47 -81 82 -151l-76 -37zM90 555v90h224q17 79 26 146l100 -7q-11 -78 -25 -139h475v-90h-498q-26 -92 -68 -186l2 -1q120 52 229 52q137 0 208.5 -58t71.5 -167q0 -113 -99 -181.5t-266 -68.5 q-124 0 -246 25l17 90q122 -25 229 -25q120 0 190 45t70 120q0 130 -180 130q-151 0 -280 -87l-89 39q74 151 110 273h-201z" />
<glyph unicode="&#x3063;" d="M164 491q244 59 365 59q306 0 306 -255q0 -318 -521 -318l-7 95q221 0 321 53t100 160q0 87 -50 127.5t-159 40.5q-104 0 -333 -56z" />
<glyph unicode="&#x3064;" d="M84 617q300 75 451 75q380 0 380 -317q0 -390 -645 -390l-8 100q280 0 410 69.5t130 210.5q0 115 -67 170t-210 55q-133 0 -419 -72z" />
<glyph unicode="&#x3065;" d="M690 797l74 38q42 -72 80 -148l-74 -37q-36 70 -80 147zM832 812l76 38q47 -81 82 -151l-76 -37zM64 607q300 75 451 75q380 0 380 -317q0 -390 -645 -390l-8 100q280 0 410 69.5t130 210.5q0 115 -67 170t-210 55q-133 0 -419 -72z" />
<glyph unicode="&#x3066;" d="M298 282q0 104 65 190t188 143v2q-268 -10 -459 -10v95q400 0 815 20l5 -95q-250 -24 -376 -115t-126 -220q0 -107 72.5 -169.5t192.5 -62.5q56 0 124 11l12 -96q-76 -13 -141 -13q-170 0 -271 87t-101 233z" />
<glyph unicode="&#x3067;" d="M648 461l81 42q60 -106 89 -163l-81 -39q-46 87 -89 160zM796 497l83 43q51 -90 91 -166l-83 -40q-42 80 -91 163zM278 272q0 110 64.5 198t188.5 145v2q-268 -10 -459 -10v95q400 0 815 20l5 -95q-251 -25 -376.5 -117t-125.5 -228q0 -114 72.5 -178t192.5 -64 q56 0 124 11l12 -96q-76 -13 -141 -13q-171 0 -271.5 88.5t-100.5 241.5z" />
<glyph unicode="&#x3068;" d="M245 769l107 17q28 -162 64 -307q154 69 403 126l20 -95q-292 -66 -438 -147.5t-146 -167.5q0 -145 265 -145q146 0 314 25l12 -95q-172 -25 -326 -25q-185 0 -280 60t-95 175q0 133 171 237q-40 163 -71 342z" />
<glyph unicode="&#x3069;" d="M588 761l81 42q60 -106 89 -163l-81 -39q-46 87 -89 160zM736 797l83 43q51 -90 91 -166l-83 -40q-42 80 -91 163zM799 560l20 -95q-316 -71 -450 -141.5t-134 -153.5q0 -130 265 -130q146 0 314 25l12 -95q-172 -25 -326 -25q-375 0 -375 225q0 131 176 227 q-46 181 -76 362l107 17q27 -163 71 -332q147 59 396 116z" />
<glyph unicode="&#x306a;" d="M931 560q-88 16 -190 17v-344q92 -52 204 -149l-64 -72q-91 76 -142 111q-9 -91 -62.5 -132t-160.5 -41q-106 0 -165.5 48.5t-59.5 131.5q0 81 58.5 128t166.5 47q58 0 125 -24v389q170 0 301 -20zM70 580v90h178q14 48 40 146l94 -12q-22 -90 -34 -134h177v-90h-203 q-74 -248 -182 -505l-92 32q105 249 173 473h-151zM641 184q-67 34 -125 34q-125 0 -125 -88q0 -45 33 -70t92 -25q72 0 98.5 28t26.5 105v16z" />
<glyph unicode="&#x306b;" d="M445 595v93h427v-93h-427zM268 759q-48 -186 -48 -399t48 -399l-103 -12q-50 190 -50 411t50 411zM365 185q0 44 33 101t92 109l75 -62q-44 -41 -69.5 -81.5t-25.5 -66.5q0 -97 195 -97q108 0 219 27l15 -92q-119 -31 -234 -31q-139 0 -219.5 52.5t-80.5 140.5z" />
<glyph unicode="&#x306c;" d="M222 563q-20 75 -47 191l90 20q14 -63 38 -160q100 46 217 46q39 0 68 -4q27 81 47 153l95 -18q-27 -92 -48 -157q111 -38 174.5 -125.5t63.5 -203.5q0 -88 -22 -160q27 -29 71 -87l-68 -53l-42 53q-65 -103 -169 -103q-71 0 -118 42t-47 108q0 67 46.5 108.5t123.5 41.5 q66 0 121 -36q4 33 4 86q0 81 -45.5 144.5t-124.5 92.5q-100 -273 -208.5 -412.5t-196.5 -139.5q-75 0 -125 68.5t-50 191.5q0 95 40 176t112 137zM346 163q-49 137 -96 298q-85 -87 -85 -211q0 -74 24.5 -117t55.5 -43q41 0 101 73zM410 253q75 123 146 310q-24 2 -36 2 q-108 0 -192 -45q37 -134 82 -267zM795 125q-49 45 -105 45q-34 0 -54.5 -18.5t-20.5 -46.5t20.5 -46.5t54.5 -18.5q73 0 105 85z" />
<glyph unicode="&#x306d;" d="M70 635h195v155h95v-251q92 85 162 118t138 33q129 0 192 -86.5t63 -273.5q0 -91 -20 -162q41 -50 69 -90l-65 -59l-45 57q-68 -106 -194 -106q-84 0 -137 47t-53 123q0 77 51.5 123.5t138.5 46.5q81 0 149 -56q3 35 3 76q0 142 -37 202.5t-120 60.5q-56 0 -123.5 -41 t-171.5 -146v-466h-95v364l-146 -172l-70 64q122 150 216 250v104h-195v85zM788 152q-40 42 -66 55t-62 13q-43 0 -69 -22.5t-26 -57.5t26 -57.5t69 -22.5q92 0 128 92z" />
<glyph unicode="&#x306e;" d="M590 65q114 14 177 90.5t63 204.5q0 115 -74 193t-190 86q-23 -192 -54.5 -323t-70.5 -199t-78.5 -95t-87.5 -27q-77 0 -141 90t-64 220q0 191 130 310.5t340 119.5q169 0 279.5 -106t110.5 -269q0 -170 -86.5 -273.5t-233.5 -116.5zM462 634q-134 -21 -213 -109.5 t-79 -219.5q0 -85 35.5 -147.5t69.5 -62.5q16 0 33 13.5t38.5 51t41 95.5t39.5 156t35 223z" />
<glyph unicode="&#x306f;" d="M931 535h-170v-304q70 -52 173 -157l-69 -69q-64 67 -107 106q-20 -161 -202 -161q-107 0 -166 48.5t-59 136.5q0 83 58.5 129t166.5 46q54 0 105 -20v245h-300v90h300v160h100v-160h170v-90zM238 759q-48 -186 -48 -399t48 -399l-98 -12q-50 190 -50 411t50 411z M661 185q-56 33 -110 33q-120 0 -120 -83q0 -95 120 -95q58 0 84 27t26 88v30z" />
<glyph unicode="&#x3070;" d="M736 815l79 25q30 -81 53 -160l-79 -23q-26 84 -53 158zM859 831l81 24q26 -68 55 -163l-81 -23q-36 109 -55 162zM911 515h-200v-286q71 -52 183 -165l-69 -69q-63 66 -116 114q-7 -83 -57 -126t-136 -43q-107 0 -166 48.5t-59 136.5q0 83 58.5 129t166.5 46 q48 0 95 -16v231h-290v90h290v170h100v-170h200v-90zM218 749q-48 -186 -48 -399t48 -399l-98 -12q-50 190 -50 411t50 411zM611 181q-50 27 -100 27q-120 0 -120 -83q0 -95 120 -95q51 0 75.5 27.5t24.5 87.5v36z" />
<glyph unicode="&#x3071;" d="M921 525h-170v-304q70 -52 173 -157l-69 -69q-64 67 -107 106q-20 -161 -202 -161q-107 0 -166 48.5t-59 136.5q0 83 58.5 129t166.5 46q54 0 105 -20v245h-300v90h300v160h68q42 55 111 55q58 0 99 -41t41 -99q0 -65 -49 -107v-58zM228 749q-48 -186 -48 -399t48 -399 l-98 -12q-50 190 -50 411t50 411zM895 690q0 27 -19 46t-46 19t-46 -19t-19 -46t19 -46t46 -19t46 19t19 46zM651 175q-56 33 -110 33q-120 0 -120 -83q0 -95 120 -95q58 0 84 27t26 88v30z" />
<glyph unicode="&#x3072;" d="M323 633l-1 2h-227v90h367v-94q-99 -61 -161.5 -164.5t-62.5 -206.5q0 -107 56.5 -163.5t160.5 -56.5q112 0 174.5 69t62.5 196q0 190 -91 388l73 60q133 -158 299 -284l-56 -75q-81 60 -160 138l-2 -1q40 -135 40 -251q0 -153 -91.5 -241.5t-248.5 -88.5 q-152 0 -237.5 80t-85.5 225q0 99 50 199t141 179z" />
<glyph unicode="&#x3073;" d="M658 771l81 42q60 -106 89 -163l-81 -39q-46 87 -89 160zM806 807l83 43q51 -90 91 -166l-83 -40q-42 80 -91 163zM445 30q112 0 175 61.5t63 173.5q0 135 -92 325l73 60q60 -71 141.5 -148t157.5 -136l-56 -75q-88 68 -167 149l-2 -2q48 -111 48 -203q0 -134 -92 -214.5 t-249 -80.5q-152 0 -237.5 80t-85.5 225q0 99 50 199t141 179l-1 2h-227v90h367v-94q-99 -61 -161.5 -164.5t-62.5 -206.5q0 -107 56.5 -163.5t160.5 -56.5z" />
<glyph unicode="&#x3074;" d="M435 30q112 0 175 61.5t63 173.5q0 135 -92 325l73 60q60 -71 141.5 -148t157.5 -136l-56 -75q-88 68 -167 149l-2 -2q48 -111 48 -203q0 -134 -92 -214.5t-249 -80.5q-152 0 -237.5 80t-85.5 225q0 99 50 199t141 179l-1 2h-227v90h367v-94q-99 -61 -161.5 -164.5 t-62.5 -206.5q0 -107 56.5 -163.5t160.5 -56.5zM980 710q0 -58 -41 -99t-99 -41t-99 41t-41 99t41 99t99 41t99 -41t41 -99zM905 710q0 27 -19 46t-46 19t-46 -19t-19 -46t19 -46t46 -19t46 19t19 46z" />
<glyph unicode="&#x3075;" d="M483 660h-253v90h525v-90q-117 -6 -188.5 -51t-71.5 -99q0 -33 19.5 -67.5t71.5 -90.5q61 -67 85 -112.5t24 -94.5q0 -91 -66 -145.5t-174 -54.5q-95 0 -177 46l34 88q91 -39 138 -39q58 0 95 29t37 76q0 36 -19 71t-75 94q-56 58 -79.5 101.5t-23.5 88.5t23 82.5 t76 75.5zM726 405l88 40q97 -165 156 -351l-92 -28q-54 177 -152 339zM165 434l95 -23q-50 -181 -141 -351l-88 38q89 169 134 336z" />
<glyph unicode="&#x3076;" d="M210 740h470v-96q-93 -14 -149 -55.5t-56 -88.5q0 -33 19.5 -67.5t71.5 -90.5q61 -67 85 -112.5t24 -94.5q0 -91 -66 -145.5t-174 -54.5q-95 0 -177 46l34 88q91 -39 138 -39q58 0 95 29t37 76q0 36 -19 71t-75 94q-56 58 -79.5 101.5t-23.5 88.5q0 44 23 81.5t76 76.5 l-1 2h-253v90zM688 809l86 30q25 -62 66 -174l-86 -27q-26 76 -66 171zM840 824l88 31q34 -84 67 -177l-88 -28q-30 83 -67 174zM716 395l88 40q97 -165 156 -351l-92 -28q-54 177 -152 339zM155 424l95 -23q-50 -181 -141 -351l-88 38q89 169 134 336z" />
<glyph unicode="&#x3077;" d="M726 395l88 40q97 -165 156 -351l-92 -28q-54 177 -152 339zM165 424l95 -23q-50 -181 -141 -351l-88 38q89 169 134 336zM905 687q0 -58 -41 -99t-99 -41q-43 0 -78 24t-51 62q-70 -21 -110.5 -57.5t-40.5 -75.5q0 -33 19.5 -67.5t71.5 -90.5q61 -67 85 -112.5t24 -94.5 q0 -91 -66 -145.5t-174 -54.5q-95 0 -177 46l34 88q91 -39 138 -39q58 0 95 29t37 76q0 36 -19 71t-75 94q-56 58 -79.5 101.5t-23.5 88.5q0 44 23 81.5t76 76.5l-1 2h-253v90h415q16 39 51 63t79 24q58 0 99 -41t41 -99zM830 687q0 27 -19 46t-46 19t-46 -19t-19 -46 q0 -26 19 -45.5t46 -19.5t46 19.5t19 45.5z" />
<glyph unicode="&#x3078;" d="M109 167l-78 71l172 206q87 109 120 135t87 26q49 0 85 -24.5t153 -135.5l320 -296l-71 -83l-355 329q-71 68 -92 84t-42 16q-22 0 -42 -17.5t-74 -86.5z" />
<glyph unicode="&#x3079;" d="M566 693l89 45q56 -97 98 -178l-89 -43q-41 80 -98 176zM720 734l90 46q54 -89 100 -180l-90 -44q-46 88 -100 178zM109 157l-78 71l172 206q87 109 120 135t87 26q49 0 85 -24.5t153 -135.5l320 -296l-71 -83l-355 329q-71 68 -92 84t-42 16q-22 0 -42 -17.5t-74 -86.5z " />
<glyph unicode="&#x307a;" d="M109 157l-78 71l172 206q87 109 120 135t87 26q49 0 85 -24.5t153 -135.5l320 -296l-71 -83l-355 329q-71 68 -92 84t-42 16q-22 0 -42 -17.5t-74 -86.5zM930 650q0 -62 -44 -106t-106 -44t-106 44t-44 106t44 106t106 44t106 -44t44 -106zM850 650q0 29 -20.5 49.5 t-49.5 20.5t-49.5 -20.5t-20.5 -49.5t20.5 -49.5t49.5 -20.5t49.5 20.5t20.5 49.5z" />
<glyph unicode="&#x307b;" d="M926 652h-175v-134h175v-88h-175v-208q72 -48 183 -161l-69 -66q-64 67 -117 112q-20 -159 -192 -159q-107 0 -163.5 44.5t-56.5 129.5q0 73 51.5 118t168.5 45q50 0 95 -14v159h-285v88h285v134h-285v90h560v-90zM238 759q-48 -186 -48 -399t48 -399l-98 -12 q-50 190 -50 411t50 411zM651 172q-47 23 -100 23q-61 0 -88 -18t-27 -55q0 -84 110 -84q54 0 79.5 27t25.5 87v20z" />
<glyph unicode="&#x307c;" d="M740 801l80 25q30 -81 53 -160l-80 -24h-62v-134h185v-88h-185v-208q72 -48 183 -161l-69 -66q-64 67 -117 112q-20 -159 -192 -159q-107 0 -163.5 44.5t-56.5 129.5q0 73 51.5 118t168.5 45q50 0 95 -14v159h-285v88h285v134h-285v90h418zM859 831l81 24q26 -68 55 -163 l-81 -23q-36 109 -55 162zM228 749q-48 -186 -48 -399t48 -399l-98 -12q-50 190 -50 411t50 411zM631 162q-47 23 -100 23q-61 0 -88 -18t-27 -55q0 -84 110 -84q54 0 79.5 27t25.5 87v20z" />
<glyph unicode="&#x307d;" d="M228 749q-48 -186 -48 -399t48 -399l-98 -12q-50 190 -50 411t50 411zM990 710q0 -58 -41 -99t-99 -41q-39 0 -72 19.5t-51 52.5h-6v-134h185v-88h-185v-208q72 -48 183 -161l-69 -66q-64 67 -117 112q-20 -159 -192 -159q-107 0 -163.5 44.5t-56.5 129.5q0 73 51.5 118 t168.5 45q50 0 95 -14v159h-285v88h285v134h-285v90h376q8 51 47 84.5t91 33.5q58 0 99 -41t41 -99zM915 710q0 27 -19 46t-46 19t-46 -19t-19 -46t19 -46t46 -19t46 19t19 46zM621 162q-47 23 -100 23q-61 0 -88 -18t-27 -55q0 -84 110 -84q54 0 79.5 27t25.5 87v20z" />
<glyph unicode="&#x307e;" d="M115 695h405v105h100v-105h265v-90h-265v-110h230v-90h-230v-182q109 -59 243 -179l-63 -72q-107 98 -183 146q-10 -92 -63.5 -132.5t-163.5 -40.5q-102 0 -161 48t-59 132q0 73 52.5 120t167.5 47q64 0 130 -23v136h-370v90h370v110h-405v90zM520 173q-67 29 -120 29 q-66 0 -95.5 -19t-29.5 -58q0 -43 30 -66.5t85 -23.5q75 0 102.5 28.5t27.5 106.5v3z" />
<glyph unicode="&#x307f;" d="M282 -30q-77 0 -147 76.5t-70 171.5q0 89 91.5 154.5t249.5 75.5q13 95 24 207h-292v90h394v-90q-9 -100 -23 -206q98 -6 188 -31q3 102 3 247h100q0 -184 -5 -279q85 -33 163 -82l-46 -84q-61 38 -124 66q-8 -82 -23 -136.5t-44 -93.5t-62.5 -64.5t-91.5 -56.5l-53 85 q67 34 97.5 61t51.5 83.5t29 157.5q-93 29 -197 35q-25 -162 -57.5 -249t-67 -112.5t-88.5 -25.5zM392 354q-106 -9 -164 -47.5t-58 -88.5q0 -51 38.5 -99.5t73.5 -48.5q63 0 110 284z" />
<glyph unicode="&#x3080;" d="M300 600h-215v90h215v115h100v-115h175v-90h-175v-265q0 -92 -31 -189q-14 -44 -14 -58q0 -20 9.5 -29t52 -15t133.5 -6q121 0 156.5 16.5t35.5 67.5q0 62 -39 224l97 21q45 -171 45 -265q0 -62 -25 -94.5t-87.5 -47.5t-182.5 -15q-128 0 -193 9t-88.5 28.5t-23.5 57.5 q0 24 17 66q12 32 17 52l-1 1q-35 -9 -63 -9q-68 0 -109 51t-41 149q0 96 40.5 148t109.5 52q44 0 83 -21l2 1v70zM667 631l51 78q128 -77 240 -160l-51 -78q-120 89 -240 160zM155 350q0 -60 19.5 -87.5t60.5 -27.5q36 0 53 27t17 88q0 56 -18.5 85.5t-51.5 29.5 q-41 0 -60.5 -27.5t-19.5 -87.5z" />
<glyph unicode="&#x3081;" d="M655 811l95 -20q-25 -95 -46 -162q106 -40 166 -124t60 -195q0 -153 -84.5 -247t-235.5 -113l-23 92q116 14 179.5 83.5t63.5 184.5q0 77 -41 135t-116 88q-96 -272 -210 -407.5t-218 -135.5q-74 0 -124.5 67.5t-50.5 187.5q0 103 44.5 188.5t124.5 142.5q-19 68 -44 178 l95 20q16 -74 36 -151q89 37 194 37q51 0 90 -7q25 79 45 158zM578 557q-29 3 -58 3q-91 0 -168 -33q32 -118 85 -274q78 126 141 304zM370 161q-59 160 -103 313q-102 -89 -102 -229q0 -75 26.5 -116t63.5 -41q51 0 115 73z" />
<glyph unicode="&#x3082;" d="M345 795l105 -3l-9 -122h374v-90h-380q-7 -119 -8 -148h323v-90h-327q-3 -78 -3 -132q0 -107 32.5 -138.5t142.5 -31.5q115 0 165 34t50 108q0 28 -12 82l97 22q15 -63 15 -111q0 -230 -315 -230q-162 0 -221 56t-59 209q0 54 3 132h-223v90h227q1 31 8 148h-210v90h216z " />
<glyph unicode="&#x3083;" d="M468 605l94 26l35 -123q42 9 82 9q82 0 131.5 -49t49.5 -132q0 -91 -53.5 -142.5t-145.5 -51.5q-55 0 -105 12l9 88q48 -9 87 -9q50 0 79.5 26.5t29.5 71.5q0 47 -25 72t-72 25q-20 0 -44 -5l26 -102l-89 -25l-28 101q-27 -8 -117 -41q56 -189 112 -398l-97 -24 q-58 222 -107 387l-156 -61l-34 84l164 64l-51 160l94 29l49 -155l118 41z" />
<glyph unicode="&#x3084;" d="M473 769l99 27l45 -159q59 13 108 13q99 0 159.5 -60t60.5 -160q0 -109 -65 -170.5t-175 -61.5q-68 0 -134 15l10 93q61 -13 114 -13q66 0 105.5 35.5t39.5 96.5q0 62 -34 96t-96 34q-30 0 -69 -9l34 -132l-95 -28l-36 133q-59 -19 -163 -58q81 -271 141 -505l-102 -25 q-69 264 -137 493l-204 -79l-36 90l212 82l-65 204l100 31l63 -199q114 41 166 57z" />
<glyph unicode="&#x3085;" d="M511 637h98v-89q118 -8 179.5 -66.5t61.5 -164.5q0 -109 -66.5 -168t-191.5 -64q-18 -58 -60 -94.5t-115 -60.5l-46 79q90 32 117 85q-96 23 -161 100l54 70q54 -65 129 -83q1 14 1 46v227q-114 -23 -185 -124t-71 -250h-87v474h90v-181h1q91 149 252 172v92zM609 458 v-231q0 -35 -1 -51q143 14 143 141t-142 141z" />
<glyph unicode="&#x3086;" d="M90 700h95v-245h2q119 207 338 231v119h105v-116q148 -9 225 -81t77 -203q0 -134 -83 -207t-240 -78q-22 -73 -73.5 -118.5t-143.5 -76.5l-49 85q63 22 100 50t56 69q-130 27 -216 133l59 73q71 -91 180 -114q3 33 3 74v295q-152 -25 -247.5 -155.5t-95.5 -324.5h-92v590 zM627 217q99 7 150 55t51 133q0 173 -198 188v-298q0 -42 -3 -78z" />
<glyph unicode="&#x3087;" d="M461 629h99v-131h246v-84h-246v-192q99 -43 257 -167l-59 -72q-125 99 -198 140q-1 -178 -175 -178q-101 0 -151 44.5t-50 116.5q0 73 52 113.5t149 40.5q41 0 76 -7v376zM461 165q-33 9 -76 9q-103 0 -103 -68q0 -39 24.5 -57.5t78.5 -18.5q41 0 58.5 22t17.5 76v37z " />
<glyph unicode="&#x3088;" d="M880 535h-315v-255q130 -56 328 -208l-63 -80q-165 132 -265 184v-6q0 -115 -51.5 -170t-158.5 -55q-125 0 -185 54.5t-60 140.5q0 88 63 136.5t182 48.5q57 0 105 -11v481h105v-170h315v-90zM460 218q-50 14 -105 14q-75 0 -107.5 -23t-32.5 -69q0 -54 34 -79.5 t106 -25.5q56 0 80.5 31t24.5 104v48z" />
<glyph unicode="&#x3089;" d="M198 576l102 -9q-17 -127 -31 -212h2q65 47 151.5 76t165.5 29q284 0 284 -230q0 -133 -110.5 -204t-323.5 -71q-109 0 -219 13l6 92q145 -15 213 -15q156 0 236.5 48t80.5 137q0 140 -183 140q-69 0 -159.5 -35.5t-171.5 -95.5l-93 22q27 155 50 315zM281 755 q232 -30 461 -30v-90q-236 0 -473 30z" />
<glyph unicode="&#x308a;" d="M290 760v-224h2q53 100 131 152t172 52q120 0 187.5 -85t67.5 -240q0 -241 -136 -353t-429 -112l-5 95q248 0 354 86t106 284q0 111 -40 168t-115 57q-107 0 -198 -112t-100 -273h-99v505h102z" />
<glyph unicode="&#x308b;" d="M534 39q21 41 21 71q0 75 -127 75q-57 0 -88.5 -19.5t-31.5 -45.5q0 -37 45 -59.5t139 -22.5q29 0 42 1zM636 55q134 41 134 175q0 79 -50 115.5t-168 36.5q-201 0 -412 -111l-38 73l504 312v2h-434v87h620l3 -89l-358 -206l1 -1q79 16 150 16q151 0 222.5 -55.5 t71.5 -167.5q0 -139 -101 -215.5t-289 -76.5q-145 0 -217.5 44t-72.5 126q0 63 60 106.5t170 43.5q115 0 165.5 -38.5t50.5 -111.5q0 -29 -12 -65z" />
<glyph unicode="&#x308c;" d="M60 635h225v160h100v-287q109 97 172 134.5t113 37.5q66 0 94 -45t28 -160q0 -61 -12 -138q-12 -80 -12 -137q0 -46 6.5 -71.5t14.5 -32t21 -6.5q39 0 121 83l53 -71q-48 -54 -103.5 -85.5t-98.5 -31.5q-62 0 -91 46.5t-29 158.5q0 52 13 138q13 83 13 137 q0 45 -6.5 70.5t-15 32.5t-21.5 7q-48 0 -260 -198v-442h-100v346l-176 -174l-68 66l244 241v131h-225v90z" />
<glyph unicode="&#x308d;" d="M780 646l-358 -210l1 -2q88 21 155 21q300 0 300 -213q0 -136 -101.5 -208t-301.5 -72q-99 0 -210 13v95q103 -12 203 -12q294 0 294 174q0 70 -51 104t-169 34q-186 0 -407 -119l-38 73l499 324v2h-414v88h596z" />
<glyph unicode="&#x308e;" d="M157 506h160v120h89v-190q122 104 223 104q108 0 158.5 -68t50.5 -219q0 -131 -61 -203.5t-165 -72.5q-69 0 -130 32l29 84q55 -24 101 -24q61 0 95 46.5t34 137.5q0 109 -26.5 152t-90.5 43q-40 0 -90.5 -30t-127.5 -105v-371h-89v276l-113 -131l-66 60q101 123 179 204 v76h-160v79z" />
<glyph unicode="&#x308f;" d="M75 635h205v155h95v-251q89 79 156.5 110t133.5 31q130 0 192.5 -85t62.5 -270q0 -161 -76 -250.5t-204 -89.5q-84 0 -160 38l32 89q67 -30 128 -30q83 0 130.5 62.5t47.5 180.5q0 140 -37 198.5t-121 58.5q-55 0 -121 -38.5t-164 -137.5v-466h-95v365l-156 -183l-70 64 q136 167 226 260v104h-205v85z" />
<glyph unicode="&#x3090;" d="M255 -25q-75 0 -127.5 62t-52.5 163q0 154 111.5 260.5t292.5 122.5l25 99h-319v83h423v-83l-27 -99q155 -13 249.5 -102.5t94.5 -225.5q0 -147 -65.5 -228.5t-159.5 -81.5q-78 0 -128 43.5t-50 113.5q0 69 49 114.5t124 45.5q70 0 134 -49q1 13 1 42q0 102 -74.5 168 t-199.5 72q-47 -164 -86.5 -268.5t-76 -159t-67.5 -73.5t-71 -19zM453 489q-128 -21 -205.5 -100t-77.5 -189q0 -56 24.5 -93t55.5 -37q23 0 52 38.5t69.5 136t81.5 244.5zM808 116q-51 54 -108 54q-36 0 -58 -18t-22 -47q0 -31 21.5 -49t58.5 -18q75 0 108 78z" />
<glyph unicode="&#x3091;" d="M195 760h627v-75l-302 -93l1 -2q78 10 114 10q120 0 185 -44t65 -116q0 -99 -108 -155.5t-317 -56.5h-33q-45 -28 -103 -77l1 -2q42 16 65 16q29 0 50.5 -14.5t43.5 -49.5t36.5 -47t34.5 -12q28 0 48 14t56 59l60 -63q-31 -47 -74.5 -74.5t-84.5 -27.5q-51 0 -85 17.5 t-59 58.5q-19 30 -32.5 39.5t-38.5 9.5q-47 0 -101.5 -32t-102.5 -91l-80 56q122 148 238 233q-139 29 -139 117q0 47 61.5 83.5t158.5 36.5q198 0 198 -116q0 -24 -12 -41q214 18 214 114q0 45 -51 65t-189 20q-180 0 -408 -62l-29 77l452 138v2h-360v85zM768 224 q92 -103 171 -231l-86 -41q-75 121 -166 224zM422 318q29 16 38.5 26t9.5 21q0 30 -90 30q-52 0 -81 -11t-29 -26q0 -12 11.5 -20t46 -13.5t94.5 -6.5z" />
<glyph unicode="&#x3092;" d="M350 812l99 -23l-35 -94h426v-85h-460l-46 -106l2 -1q66 27 119 27q63 0 104 -29.5t65 -94.5q98 23 220 36l9 -87q-128 -16 -209 -35q11 -75 11 -175h-105q0 89 -6 148q-204 -63 -204 -148q0 -24 9 -41t34 -32t75.5 -22.5t126.5 -7.5q98 0 247 23l9 -90 q-121 -20 -256 -20q-186 0 -268 43.5t-82 136.5q0 158 291 246q-14 36 -35.5 49.5t-55.5 13.5q-53 0 -125.5 -56t-145.5 -159l-83 54q119 163 193 327h-184v85h219q24 64 41 117z" />
<glyph unicode="&#x3093;" d="M395 787l93 -29l-147 -368l1 -1q53 46 113 46q63 0 103 -50t57 -165q16 -100 34 -135.5t46 -35.5q82 0 150 255l90 -25q-47 -175 -105.5 -247t-137.5 -72q-67 0 -106.5 50t-61.5 178q-16 90 -35.5 125t-46.5 35q-58 0 -122 -88t-154 -312l-91 34z" />
<glyph unicode="&#x3094;" d="M658 771l81 42q60 -106 89 -163l-81 -39q-46 87 -89 160zM806 807l83 43q51 -90 91 -166l-83 -40q-42 80 -91 163zM104 460q263 65 451 65q156 0 228 -58t72 -152q0 -149 -142 -244t-408 -116l-25 95q236 23 353 93t117 167q0 120 -200 120q-156 0 -424 -62zM234 683 l12 92q213 -35 399 -35v-95q-175 0 -411 38z" />
<glyph unicode="&#x3099;" horiz-adv-x="0" d="M5 768l89 45q56 -97 98 -178l-89 -43q-41 80 -98 176zM159 809l90 46q54 -89 100 -180l-90 -44q-46 88 -100 178z" />
<glyph unicode="&#x309a;" horiz-adv-x="0" d="M305 705q0 -62 -44 -106t-106 -44t-106 44t-44 106t44 106t106 44t106 -44t44 -106zM225 705q0 29 -20.5 49.5t-49.5 20.5t-49.5 -20.5t-20.5 -49.5t20.5 -49.5t49.5 -20.5t49.5 20.5t20.5 49.5z" />
<glyph unicode="&#x309b;" d="M5 768l89 45q56 -97 98 -178l-89 -43q-41 80 -98 176zM159 809l90 46q54 -89 100 -180l-90 -44q-46 88 -100 178z" />
<glyph unicode="&#x309c;" d="M305 705q0 -62 -44 -106t-106 -44t-106 44t-44 106t44 106t106 44t106 -44t44 -106zM225 705q0 29 -20.5 49.5t-49.5 20.5t-49.5 -20.5t-20.5 -49.5t20.5 -49.5t49.5 -20.5t49.5 20.5t20.5 49.5z" />
<glyph unicode="&#x30a1;" d="M192 485v87h645v-87q-23 -80 -81 -150.5t-135 -113.5l-57 77q130 76 167 187h-539zM232 37q99 46 135.5 126t36.5 256h100q0 -206 -48 -305t-174 -157z" />
<glyph unicode="&#x30a2;" d="M118 628v92h800v-92q-30 -104 -102 -191t-172 -139l-57 84q170 93 218 246h-687zM395 540h105q0 -257 -61.5 -384t-217.5 -196l-50 87q86 38 133.5 95.5t69 151.5t21.5 246z" />
<glyph unicode="&#x30a3;" d="M170 309q170 23 331 100t268 186l61 -70q-96 -96 -232 -170v-402h-107v350q-152 -64 -305 -86z" />
<glyph unicode="&#x30a4;" d="M92 387q213 30 415.5 128.5t333.5 235.5l65 -74q-118 -122 -294 -218v-507h-112v452q-195 -86 -392 -114z" />
<glyph unicode="&#x30a5;" d="M192 249v267h253v121h99v-121h264v-147q0 -189 -117.5 -293.5t-347.5 -117.5l-12 90q193 10 285 89.5t92 231.5v60h-419v-180h-97z" />
<glyph unicode="&#x30a6;" d="M120 650h320v155h105v-155h335v-175q0 -236 -146.5 -367.5t-428.5 -147.5l-13 95q483 28 483 420v83h-553v-233h-102v325z" />
<glyph unicode="&#x30a7;" d="M210 560h580v-89h-238v-382h262v-89h-628v89h262v382h-238v89z" />
<glyph unicode="&#x30a8;" d="M140 705h720v-95h-305v-500h335v-95h-780v95h335v500h-305v95z" />
<glyph unicode="&#x30a9;" d="M178 510h397v121h97v-121h166v-87h-166v-327q0 -85 -21 -105.5t-105 -20.5q-57 0 -134 8l6 88q86 -8 118 -8q26 0 32.5 6.5t6.5 32.5v230q-171 -164 -353 -267l-45 78q199 111 371 285h-370v87z" />
<glyph unicode="&#x30aa;" d="M100 642h502v156h103v-156h215v-92h-215v-428q0 -96 -24.5 -120t-120.5 -24q-85 0 -168 10l6 94q107 -10 152 -10q34 0 43 9t9 44v319q-214 -214 -455 -351l-47 84q256 144 476 373h-476v92z" />
<glyph unicode="&#x30ab;" d="M375 800h103q0 -59 -4 -155h386v-80q0 -257 -17 -382t-51 -164t-104 -39q-79 0 -199 13l9 97q97 -10 160 -10q38 0 55.5 26.5t27 119.5t9.5 289v35h-282q-19 -221 -85.5 -351.5t-204.5 -237.5l-66 73q80 61 128 123t80.5 158t45.5 235h-246v95h252q3 71 3 155z" />
<glyph unicode="&#x30ac;" d="M675 797l74 38q42 -72 80 -148l-74 -37q-36 70 -80 147zM817 812l76 38q47 -81 82 -151l-76 -37zM365 790h103q0 -66 -4 -170h386v-65q0 -257 -17 -382t-51 -164t-104 -39q-79 0 -199 13l9 97q97 -10 160 -10q38 0 55.5 26.5t27 119.5t9.5 289v20h-283 q-21 -214 -87 -341.5t-202 -232.5l-66 73q79 60 126.5 120.5t80 153.5t45.5 227h-244v95h251q4 69 4 170z" />
<glyph unicode="&#x30ad;" d="M410 782l110 8l14 -168l334 12l4 -95l-330 -11l19 -235l347 12l4 -95l-343 -12l21 -260l-110 -8l-22 265l-366 -12l-4 95l362 12l-19 234l-299 -11l-4 95l295 11z" />
<glyph unicode="&#x30ae;" d="M675 797l74 38q42 -72 80 -148l-74 -37q-36 70 -80 147zM817 812l76 38q47 -81 82 -151l-76 -37zM400 772l110 8l15 -178l333 12l4 -95l-330 -11l19 -225l347 12l4 -95l-343 -12l21 -260l-110 -8l-22 265l-366 -12l-4 95l362 12l-18 224l-300 -11l-4 95l296 11z" />
<glyph unicode="&#x30af;" d="M738 590h-363q-61 -166 -199 -296l-74 65q89 85 144 195.5t69 231.5l102 -7q-4 -47 -15 -94h448v-20q0 -341 -158 -506t-507 -194l-15 95q292 28 423 148.5t145 381.5z" />
<glyph unicode="&#x30b0;" d="M690 787l74 38q42 -72 80 -148l-34 -17v-5q0 -341 -158 -506t-507 -194l-15 95q290 28 420.5 146t146.5 374h-356q-61 -160 -195 -286l-74 65q89 85 144 195.5t69 231.5l102 -7q-4 -50 -17 -104h387zM832 802l76 38q47 -81 82 -151l-76 -37z" />
<glyph unicode="&#x30b1;" d="M925 645v-95h-240q-1 -267 -98.5 -405.5t-310.5 -179.5l-30 92q177 35 253.5 147.5t77.5 345.5h-292q-49 -129 -146 -241l-83 54q150 181 179 428l102 -7q-8 -79 -23 -139h611z" />
<glyph unicode="&#x30b2;" d="M915 625v-95h-240q-1 -266 -98 -400t-311 -175l-30 92q120 23 191 77t105 152t35 254h-296q-48 -123 -142 -231l-83 54q150 181 179 428l102 -7q-7 -75 -26 -149h614zM675 797l74 38q42 -72 80 -148l-74 -37q-36 70 -80 147zM817 812l76 38q47 -81 82 -151l-76 -37z" />
<glyph unicode="&#x30b3;" d="M140 705h710v-690h-710v95h605v500h-605v95z" />
<glyph unicode="&#x30b4;" d="M690 787l74 38q42 -72 80 -148l-44 -22v-650h-700v95h595v485h-595v95h649zM832 802l76 38q47 -81 82 -151l-76 -37z" />
<glyph unicode="&#x30b5;" d="M235 780h103v-175h320v175h107v-175h170v-95h-170v-60q0 -245 -108 -355.5t-371 -134.5l-20 95q155 15 238.5 56t118.5 120t35 219v60h-320v-215h-103v215h-170v95h170v175z" />
<glyph unicode="&#x30b6;" d="M731 810l79 25q30 -81 53 -160l-79 -23q-26 84 -53 158zM854 826l81 24q26 -68 55 -163l-81 -23q-36 109 -55 162zM205 770h103v-175h310v175h107v-175h190v-95h-190v-60q0 -245 -108 -355.5t-371 -134.5l-20 95q155 15 238.5 56t118.5 120t35 219v60h-310v-215h-103v215 h-160v95h160v175z" />
<glyph unicode="&#x30b7;" d="M825 626l100 -17q-56 -316 -230 -465t-520 -179l-15 100q316 27 465.5 152.5t199.5 408.5zM138 515q169 -30 328 -63l-19 -97q-201 41 -328 63zM183 760q172 -28 340 -63l-19 -97q-167 34 -340 63z" />
<glyph unicode="&#x30b8;" d="M815 616l100 -17q-56 -316 -230 -465t-520 -179l-15 100q316 27 465.5 152.5t199.5 408.5zM675 787l74 38q42 -72 80 -148l-74 -37q-36 70 -80 147zM817 802l76 38q47 -81 82 -151l-76 -37zM128 505q169 -30 328 -63l-19 -97q-201 41 -328 63zM173 750q172 -28 340 -63 l-19 -97q-167 34 -340 63z" />
<glyph unicode="&#x30b9;" d="M185 628v97h630v-97q-68 -162 -205 -311q151 -138 289 -279l-73 -71q-144 147 -287 279q-172 -163 -394 -270l-47 86q212 107 365.5 252.5t235.5 313.5h-514z" />
<glyph unicode="&#x30ba;" d="M165 618v97h571l-46 82l74 38q42 -72 80 -148l-49 -25v-44q-68 -162 -205 -311q151 -138 289 -279l-73 -71q-144 147 -287 279q-172 -163 -394 -270l-47 86q212 107 365.5 252.5t235.5 313.5h-514zM832 812l76 38q47 -81 82 -151l-76 -37z" />
<glyph unicode="&#x30bb;" d="M900 5q-193 -25 -382 -25q-143 0 -190.5 46.5t-47.5 191.5v247l-217 -35l-14 97l231 38v215h105v-198l527 85l14 -97q-34 -95 -102 -184t-154 -150l-67 76q136 97 205 239l-423 -69v-244q0 -60 4 -89t22.5 -47.5t46 -22.5t84.5 -4q182 0 353 25z" />
<glyph unicode="&#x30bc;" d="M890 -5q-193 -25 -382 -25q-143 0 -190.5 46.5t-47.5 191.5v227l-217 -35l-14 97l231 38v235h105v-218l527 85l14 -97q-34 -95 -102 -184t-154 -150l-67 76q136 97 205 239l-423 -69v-224q0 -60 4 -89t22.5 -47.5t46 -22.5t84.5 -4q182 0 353 25zM690 797l74 38 q42 -72 80 -148l-74 -37q-36 70 -80 147zM832 812l76 38q47 -81 82 -151l-76 -37z" />
<glyph unicode="&#x30bd;" d="M785 743l105 -6q-10 -254 -76 -408.5t-199 -237t-361 -116.5l-20 97q152 25 250.5 68t165 122.5t97 194t38.5 286.5zM108 690l101 42q80 -165 158 -345l-104 -39q-69 161 -155 342z" />
<glyph unicode="&#x30be;" d="M766 616l105 -10q-31 -308 -174 -452t-453 -189l-23 96q138 22 231.5 60t160 103.5t102.5 160t51 231.5zM675 787l74 38q42 -72 80 -148l-74 -37q-36 70 -80 147zM817 802l76 38q47 -81 82 -151l-76 -37zM98 680l101 42q80 -165 158 -345l-104 -39q-69 161 -155 342z" />
<glyph unicode="&#x30bf;" d="M305 791l100 -7q-4 -41 -14 -89h464v-40q0 -341 -158 -506t-507 -194l-15 95q175 17 288.5 64t178.5 133q-149 77 -306 146l48 92q167 -74 310 -147q44 104 50 262h-379q-61 -174 -197 -301l-71 65q85 82 139.5 193.5t68.5 233.5z" />
<glyph unicode="&#x30c0;" d="M690 787l74 38q42 -72 80 -148l-29 -15v-17q0 -341 -158 -506t-507 -194l-15 95q176 17 290.5 65t179.5 136q-150 76 -299 142l48 92q150 -67 302 -143q42 101 48 258h-369q-61 -174 -197 -301l-71 65q85 82 139.5 193.5t68.5 233.5l100 -7q-4 -41 -14 -89h385zM832 802 l76 38q47 -81 82 -151l-76 -37z" />
<glyph unicode="&#x30c1;" d="M75 320v95h407v5v182q-128 -12 -302 -12v95q210 0 350.5 19.5t278.5 65.5l30 -92q-121 -43 -249 -63v-195v-5h335v-95h-339q-16 -168 -96 -253.5t-244 -116.5l-30 92q130 26 189.5 88t72.5 190h-403z" />
<glyph unicode="&#x30c2;" d="M693 725l25 -94q-80 -20 -147 -29v-192v-5h334v-95h-338q-16 -168 -96 -253.5t-244 -116.5l-29 92q129 26 188.5 88t72.5 190h-404v95h409v5v180q-117 -10 -304 -10v95q185 0 301 11t232 39zM690 797l74 38q42 -72 80 -148l-74 -37q-36 70 -80 147zM832 812l76 38 q47 -81 82 -151l-76 -37z" />
<glyph unicode="&#x30c3;" d="M724 577l100 -5q-6 -306 -121.5 -442t-390.5 -169l-20 92q124 17 202.5 49t130.5 93.5t74 152t25 229.5zM172 532l95 21q36 -123 72 -266l-97 -21q-32 132 -70 266zM389 559l97 21q31 -106 72 -275l-97 -21q-31 131 -72 275z" />
<glyph unicode="&#x30c4;" d="M795 728l105 -6q-6 -254 -71.5 -409t-200 -236.5t-362.5 -111.5l-19 97q155 22 254.5 64t165.5 120.5t94.5 193t33.5 288.5zM98 674l102 22q38 -126 90 -332l-105 -23q-46 190 -87 333zM370 709l105 22q55 -196 90 -345l-105 -22q-47 193 -90 345z" />
<glyph unicode="&#x30c5;" d="M780 615l105 -8q-17 -214 -87 -347.5t-200 -205t-342 -99.5l-19 97q190 27 300.5 87t169 173t73.5 303zM675 787l74 38q42 -72 80 -148l-74 -37q-36 70 -80 147zM817 802l76 38q47 -81 82 -151l-76 -37zM88 664l102 22q38 -126 90 -332l-105 -23q-46 190 -87 333z M360 699l105 22q55 -196 90 -345l-105 -22q-47 193 -90 345z" />
<glyph unicode="&#x30c6;" d="M190 640v95h620v-95h-620zM75 465h850v-95h-335q-1 -176 -82.5 -276.5t-260.5 -143.5l-31 95q145 38 204 111.5t60 213.5h-405v95z" />
<glyph unicode="&#x30c7;" d="M690 797l74 38q42 -72 80 -148l-74 -37q-36 70 -80 147zM832 812l76 38q47 -81 82 -151l-76 -37zM180 630v95h520v-95h-520zM65 455h850v-95h-335q-1 -176 -82.5 -276.5t-260.5 -143.5l-31 95q145 38 204 111.5t60 213.5h-405v95z" />
<glyph unicode="&#x30c8;" d="M240 770h110v-286q271 -65 552 -169l-34 -100q-263 98 -518 161v-426h-110v820z" />
<glyph unicode="&#x30c9;" d="M528 698l90 45q59 -101 97 -178l-89 -43q-41 80 -98 176zM682 739l90 46q54 -89 100 -180l-90 -44q-46 88 -100 178zM220 760h110v-286q271 -65 552 -169l-34 -100q-263 98 -518 161v-426h-110v820z" />
<glyph unicode="&#x30ca;" d="M80 590h400v195h110v-195h330v-100h-330v-25q0 -230 -89 -345.5t-297 -159.5l-36 97q176 38 244 126.5t68 281.5v25h-400v100z" />
<glyph unicode="&#x30cb;" d="M170 602v103h660v-103h-660zM100 15v103h800v-103h-800z" />
<glyph unicode="&#x30cc;" d="M170 635v95h658v-95q-53 -207 -181 -357l234 -192l-67 -80l-240 197q-160 -148 -428 -243l-40 92q231 78 384 216l-215 158l63 83l225 -166q112 129 156 292h-549z" />
<glyph unicode="&#x30cd;" d="M135 655h307v145h110v-145h323v-95q-81 -128 -223 -228l271 -193l-66 -78l-299 212l-6 -3v-330h-110v276q-149 -67 -343 -111l-25 97q227 52 399 144t275 214h-613v95z" />
<glyph unicode="&#x30ce;" d="M820 740q-30 -346 -179.5 -524.5t-468.5 -255.5l-38 106q192 46 309.5 127.5t180.5 215t81 341.5z" />
<glyph unicode="&#x30cf;" d="M695 727q139 -335 235 -726l-112 -22q-90 380 -225 716zM270 716l110 -7q-34 -392 -223 -726l-101 47q178 318 214 686z" />
<glyph unicode="&#x30d0;" d="M568 735l81 42q60 -106 89 -163l-81 -39q-46 87 -89 160zM716 771l83 43q51 -90 91 -166l-83 -40q-42 80 -91 163zM655 491l105 31q88 -234 160 -531l-112 -22q-71 294 -153 522zM260 706l110 -7q-34 -392 -223 -726l-101 47q178 318 214 686z" />
<glyph unicode="&#x30d1;" d="M663 468l104 31q83 -221 153 -508l-112 -22q-67 278 -145 499zM260 706l110 -7q-34 -392 -223 -726l-101 47q178 318 214 686zM870 680q0 -58 -41 -99t-99 -41t-99 41t-41 99t41 99t99 41t99 -41t41 -99zM795 680q0 27 -19 46t-46 19t-46 -19t-19 -46t19 -46t46 -19 t46 19t19 46z" />
<glyph unicode="&#x30d2;" d="M162 750h107v-272q293 49 576 147l29 -95q-301 -103 -605 -152v-160q0 -86 27 -113t113 -27q230 0 450 14l3 -97q-240 -15 -460 -15q-138 0 -189 50.5t-51 189.5v530z" />
<glyph unicode="&#x30d3;" d="M638 765l81 42q60 -106 89 -163l-81 -39q-46 87 -89 160zM786 801l83 43q51 -90 91 -166l-83 -40q-42 80 -91 163zM142 740h107v-292q293 49 576 147l29 -95q-301 -103 -605 -152v-140q0 -86 27 -113t113 -27q230 0 450 14l3 -97q-240 -15 -460 -15q-138 0 -189 50.5 t-51 189.5v530z" />
<glyph unicode="&#x30d4;" d="M142 740h107v-292q241 40 476 114q-65 42 -65 118q0 58 41 99t99 41t99 -41t41 -99q0 -47 -28 -84t-72 -50l14 -46q-301 -103 -605 -152v-140q0 -86 27 -113t113 -27q230 0 450 14l3 -97q-240 -15 -460 -15q-138 0 -189 50.5t-51 189.5v530zM865 680q0 27 -19 46t-46 19 t-46 -19t-19 -46t19 -46t46 -19t46 19t19 46z" />
<glyph unicode="&#x30d5;" d="M125 710h755v-20q0 -339 -158 -513t-491 -207l-19 97q276 29 408 157t148 386h-643v100z" />
<glyph unicode="&#x30d6;" d="M764 835q40 -68 86 -160q-1 -337 -159.5 -509.5t-489.5 -205.5l-19 97q275 29 407.5 157t148.5 386h-643v100h649l-54 97zM832 812l76 38q47 -81 82 -151l-76 -37z" />
<glyph unicode="&#x30d7;" d="M738 600h-643v100h615v10q0 58 41 99t99 41t99 -41t41 -99t-41 -99t-99 -41h-4q-25 -284 -182.5 -431.5t-462.5 -178.5l-19 97q276 29 408 157t148 386zM915 710q0 27 -19 46t-46 19t-46 -19t-19 -46t19 -46t46 -19t46 19t19 46z" />
<glyph unicode="&#x30d8;" d="M314 403l-199 -264l-84 64q25 30 66 84t79 105t45 60q90 127 119.5 155t77.5 28t78.5 -23.5t131.5 -131.5l341 -356l-78 -80l-342 360q-68 74 -92 96t-39 22q-13 0 -34 -25t-70 -94z" />
<glyph unicode="&#x30d9;" d="M596 708l89 45q56 -97 98 -178l-89 -43q-57 107 -98 176zM750 749l90 46q53 -90 100 -180l-90 -44zM314 393l-199 -264l-84 64q25 30 66 84t79 105t45 60q90 127 119.5 155t77.5 28t78.5 -23.5t131.5 -131.5l341 -356l-78 -80l-342 360q-68 74 -92 96t-39 22 q-13 0 -34 -25t-70 -94z" />
<glyph unicode="&#x30da;" d="M314 393l-199 -264l-84 64q25 30 66 84t79 105t45 60q90 127 119.5 155t77.5 28t78.5 -23.5t131.5 -131.5l341 -356l-78 -80l-342 360q-68 74 -92 96t-39 22q-13 0 -34 -25t-70 -94zM930 650q0 -62 -44 -106t-106 -44t-106 44t-44 106t44 106t106 44t106 -44t44 -106z M850 650q0 29 -20.5 49.5t-49.5 20.5t-49.5 -20.5t-20.5 -49.5t20.5 -49.5t49.5 -20.5t49.5 20.5t20.5 49.5z" />
<glyph unicode="&#x30db;" d="M412 56q32 0 37.5 6.5t5.5 46.5v456h-365v95h365v140h110v-140h345v-95h-345v-470q0 -88 -22.5 -111.5t-107.5 -23.5q-72 0 -161 13l11 94q77 -11 127 -11zM223 447l99 -34q-68 -166 -165 -353l-96 43q89 171 162 344zM678 413l96 40q87 -174 165 -358l-98 -40 q-89 207 -163 358z" />
<glyph unicode="&#x30dc;" d="M445 535h-365v95h365v160h110v-160h345v-95h-345v-450q0 -88 -22.5 -111.5t-107.5 -23.5q-72 0 -161 13l11 94q77 -11 127 -11q32 0 37.5 6.5t5.5 46.5v436zM690 797l74 38q42 -72 80 -148l-74 -37q-36 70 -80 147zM832 812l76 38q47 -81 82 -151l-76 -37zM213 437 l99 -34q-68 -166 -165 -353l-96 43q89 171 162 344zM668 402l96 40q86 -170 165 -357l-98 -40q-90 211 -163 357z" />
<glyph unicode="&#x30dd;" d="M555 535v-450q0 -88 -22.5 -111.5t-107.5 -23.5q-72 0 -161 13l11 94q77 -11 127 -11q32 0 37.5 6.5t5.5 46.5v436h-365v95h365v160h110v-160h180q-25 36 -25 80q0 58 41 99t99 41t99 -41t41 -99q0 -44 -25 -80t-65 -51v-44h-345zM213 437l99 -34q-68 -166 -165 -353 l-96 43q89 171 162 344zM668 402l96 40q86 -170 165 -357l-98 -40q-90 211 -163 357zM915 710q0 27 -19 46t-46 19t-46 -19t-19 -46t19 -46t46 -19t46 19t19 46z" />
<glyph unicode="&#x30de;" d="M100 622v98h798v-98q-40 -133 -143 -247t-257 -195l121 -180l-93 -58q-154 233 -305 435l90 61l124 -169q123 61 218.5 158t130.5 195h-684z" />
<glyph unicode="&#x30df;" d="M125 149q376 -13 753 -80l-11 -106q-381 67 -747 80zM213 461q281 -11 578 -62l-14 -106q-290 50 -572 62zM170 746q350 -13 676 -60l-12 -104q-342 48 -669 60z" />
<glyph unicode="&#x30e0;" d="M375 761l107 -20q-73 -321 -190 -638q228 18 465 52l-119 244l96 45q106 -209 208 -434l-99 -42l-44 97q-387 -58 -726 -70l-3 95q32 1 103 5q120 317 202 666z" />
<glyph unicode="&#x30e1;" d="M561 266q-157 -187 -406 -315l-62 88q238 128 381 299q-152 123 -277 210l68 81q136 -96 273 -206q100 146 157 343l107 -22q-60 -223 -176 -393q139 -115 265 -235l-75 -77q-126 120 -255 227z" />
<glyph unicode="&#x30e2;" d="M160 730h680v-98h-365v-202h450v-95h-450v-117q0 -100 25 -125t125 -25q125 0 227 9l3 -97q-124 -10 -250 -10q-150 0 -197.5 47.5t-47.5 197.5v120h-285v95h285v202h-200v98z" />
<glyph unicode="&#x30e3;" d="M299 602l104 18l29 -160l396 81l19 -94q-18 -83 -64.5 -163t-108.5 -134l-76 66q100 91 140 208l-289 -58l72 -403l-104 -18l-72 400l-184 -38l-19 94l186 38z" />
<glyph unicode="&#x30e4;" d="M260 762l110 19l37 -207l502 103l20 -99q-22 -106 -81 -206.5t-138 -165.5l-78 72q64 55 111.5 127.5t71.5 148.5l-390 -80l92 -511l-109 -19l-92 508l-240 -49l-20 99l242 50z" />
<glyph unicode="&#x30e5;" d="M245 560h468l-31 -471h156v-89h-676v89h410l26 382h-353v89z" />
<glyph unicode="&#x30e6;" d="M80 110h525l38 500h-458v95h581l-43 -595h197v-95h-840v95z" />
<glyph unicode="&#x30e7;" d="M197 568h595v-576h-595v89h488v172h-446v88h446v139h-488v88z" />
<glyph unicode="&#x30e8;" d="M125 715h735v-710h-735v95h623v235h-573v95h573v190h-623v95z" />
<glyph unicode="&#x30e9;" d="M105 478h780v-20q0 -464 -622 -503l-16 95q109 7 195.5 27.5t157 58.5t114.5 100t58 146h-667v96zM180 640v95h640v-95h-640z" />
<glyph unicode="&#x30ea;" d="M812 750v-265q0 -255 -120 -382t-384 -158l-23 99q233 32 324 128.5t91 309.5v268h112zM188 305v445h110v-445h-110z" />
<glyph unicode="&#x30eb;" d="M505 745h110v-669q221 47 250 352l100 -13q-19 -217 -133 -332t-307 -115h-20v777zM240 745h110v-200q0 -200 -22.5 -311.5t-70.5 -170t-142 -103.5l-57 90q80 40 116 86t51 136.5t15 272.5v200z" />
<glyph unicode="&#x30ec;" d="M185 750h113v-681q202 16 327 112t193 286l97 -39q-87 -240 -260 -351.5t-450 -111.5h-20v785z" />
<glyph unicode="&#x30ed;" d="M115 720h770v-720h-660h-110v720zM225 98h550v524h-550v-524z" />
<glyph unicode="&#x30ee;" d="M196 572h612v-166q0 -419 -484 -445l-14 92q211 14 303.5 98t92.5 255v71h-411v-197h-99v292z" />
<glyph unicode="&#x30ef;" d="M125 720h755v-195q0 -526 -595 -560l-15 97q264 18 383 129.5t119 333.5v95h-542v-255h-105v355z" />
<glyph unicode="&#x30f0;" d="M115 650h507v125h108v-125h165v-98h-165v-344h200v-98h-200v-165h-108v165h-552v98h195v344h-150v98zM372 208h250v344h-250v-344z" />
<glyph unicode="&#x30f2;" d="M125 720h745v-20q-2 -362 -150 -531.5t-482 -203.5l-16 95q200 21 317 90t171 205h-540v93h568q17 75 22 177h-635v95z" />
<glyph unicode="&#x30f3;" d="M138 646l49 93q169 -82 308 -165l-53 -93q-142 83 -304 165zM825 646l100 -22q-104 -583 -750 -639l-15 102q291 28 453 164t212 395z" />
<glyph unicode="&#x30f4;" d="M690 797l74 38q42 -72 80 -148l-74 -37q-36 70 -80 147zM832 812l76 38q47 -81 82 -151l-76 -37zM110 630h320v165h105v-165h335v-165q0 -236 -146.5 -367.5t-428.5 -147.5l-13 95q483 28 483 420v73h-553v-223h-102v315z" />
<glyph unicode="&#x30f5;" d="M480 421q-16 -173 -69.5 -276t-162.5 -188l-62 69q92 71 137.5 156.5t59.5 238.5h-191v90h198q2 74 2 121h97q0 -66 -3 -121h306v-77q0 -154 -6.5 -244.5t-25 -139.5t-42.5 -63.5t-68 -14.5q-66 0 -163 11l8 91q76 -8 125 -8q27 0 40 19.5t20.5 88t7.5 212.5v35h-208z " />
<glyph unicode="&#x30f6;" d="M839 512v-89h-185q0 -211 -79 -320.5t-252 -141.5l-27 87q138 26 197 111t60 264h-218q-39 -100 -115 -188l-78 51q117 142 142 340l96 -5q-6 -58 -18 -109h477z" />
<glyph unicode="&#x30fb;" d="M425 285v150h150v-150h-150z" />
<glyph unicode="&#x30fc;" d="M90 308v105h820v-105h-820z" />
<glyph unicode="&#x4e00;" d="M50 330v105h900v-105h-900z" />
<glyph unicode="&#x4e01;" d="M60 768h880v-96h-362v-592q0 -36 -1.5 -57t-7 -39.5t-13.5 -26.5t-26.5 -14t-38.5 -7t-56 -1q-55 0 -195 10l-5 95q133 -10 183 -10q36 0 43 7t7 45v590h-408v96z" />
<glyph unicode="&#x4e03;" d="M270 795h110v-284l554 129l22 -95l-576 -134v-303q0 -53 8 -63t55 -15q58 -5 107 -5q57 0 120 5q57 5 72 17q24 20 33 107q4 39 10 152l105 -11q-5 -89 -9 -140t-13.5 -95.5t-20 -64t-33.5 -34.5t-46.5 -19t-67.5 -7q-77 -5 -145 -5q-60 0 -130 5q-41 3 -62.5 5.5 t-42 10.5t-28 16t-14 28.5t-7.5 42t-1 62.5v285l-204 -47l-22 94l226 53v310z" />
<glyph unicode="&#x4e07;" d="M58 758h880v-96h-500q0 -96 -6 -174h430v-80q0 -209 -16.5 -306.5t-52.5 -128.5t-115 -31q-68 0 -206 11l-4 97q128 -10 200 -10q34 0 50.5 21t26.5 96t10 225v13h-333q-22 -161 -86.5 -265.5t-197.5 -205.5l-74 75q107 80 161.5 159.5t78.5 195.5t24 308h-270v96z" />
<glyph unicode="&#x4e08;" d="M946 20l-37 -95q-257 50 -449 203q-111 -118 -363 -203l-44 90q240 83 328 183q-117 119 -173 265l99 39q48 -125 131 -218q49 103 53 281h-421v95h422v150h110v-150h328v-95h-329q-8 -228 -83 -358q164 -132 428 -187z" />
<glyph unicode="&#x4e09;" d="M195 338v92h610v-92h-610zM135 645v95h730v-95h-730zM70 -20v95h860v-95h-860z" />
<glyph unicode="&#x4e0a;" d="M521 792v-262h369v-92h-369v-396h424v-94h-890v94h356v750h110z" />
<glyph unicode="&#x4e0b;" d="M888 337l-58 -84q-173 114 -309 184v-509h-110v750h-356v94h890v-94h-424v-132q163 -77 367 -209z" />
<glyph unicode="&#x4e0d;" d="M70 672v93h860v-93h-298q-38 -59 -78 -110v-642h-108v522q-147 -163 -358 -306l-56 88q316 210 478 448h-440zM629 489q163 -116 340 -273l-68 -79q-175 160 -334 279z" />
<glyph unicode="&#x4e0e;" d="M40 180v90h668q2 19 6 63t6 69h-468l-17 -71l-107 10q56 230 95 485l107 -7q-10 -70 -16 -104h566v-90h-581q-12 -69 -27 -135h563q-8 -137 -16 -220h141v-90h-150q-8 -71 -19.5 -117.5t-24 -74t-34.5 -40.5t-43 -16.5t-59 -3.5q-81 0 -258 7l-2 92q149 -7 235 -7 q26 0 37.5 2.5t24.5 18t19.5 47.5t13.5 92h-660z" />
<glyph unicode="&#x4e14;" d="M950 -60h-900v90h115v760h670v-760h115v-90zM272 538h456v162h-456v-162zM272 450v-162h456v162h-456zM272 200v-170h456v170h-456z" />
<glyph unicode="&#x4e16;" d="M422 630v170h103v-170h187v170h106v-170h147v-92h-147v-330h-396v330h-157v-466h650v-92h-650v-70h-107v628h-123v92h123v170h107v-170h157zM525 538v-246h187v246h-187z" />
<glyph unicode="&#x4e18;" d="M619 40v368h-327v-368h327zM726 40h224v-95h-900v95h132v598v92q183 0 355.5 22.5t275.5 57.5l30 -92q-201 -65 -551 -78v-140h603v-92h-169v-368z" />
<glyph unicode="&#x4e19;" d="M935 780v-90h-385v-68q0 -23 -1 -34h359v-508q0 -99 -23 -122t-120 -23q-17 0 -160 5l-5 92q107 -4 145 -4q41 0 48 6.5t7 45.5v105l-74 -51q-115 149 -235 235q-74 -138 -244 -228l-47 63v-272h-108v656h350v35v67h-377v90h870zM527 458q153 -106 273 -256v293h-263 q-5 -23 -10 -37zM200 232q98 48 153.5 111.5t75.5 151.5h-229v-263z" />
<glyph unicode="&#x4e21;" d="M910 602v-542q0 -99 -21 -122t-111 -23q-29 0 -166 5l-4 92q105 -4 144 -4q38 0 45.5 7t7.5 45v458h-253v-323h83v257h100v-400h-100v56h-270v-100h-100v444h100v-257h83v323h-253v-608h-105v692h358v90h-383v88h870v-88h-383v-90h358z" />
<glyph unicode="&#x4e26;" d="M688 151q70 142 117 361l102 -23q-48 -226 -120 -372zM91 478l99 32q71 -163 118 -366l-100 -30q-50 206 -117 364zM555 25v557h-110v-557h110zM660 25h285v-90h-890v90h285v557h-270v90h242q-40 73 -80 130l99 26q49 -66 96 -156h149q54 76 92 155l103 -22 q-29 -59 -77 -133h236v-90h-270v-557z" />
<glyph unicode="&#x4e2d;" d="M185 308h260v254h-260v-254zM185 218v-60h-103v497h363v165h110v-165h363v-497h-103v60h-260v-318h-110v318h-260zM555 562v-254h260v254h-260z" />
<glyph unicode="&#x4e38;" d="M798 25q40 0 52 13q19 21 28 138q3 42 7 129l95 -10q-4 -74 -6.5 -118t-8.5 -87.5t-10.5 -65.5t-17.5 -43.5t-23.5 -29t-34 -14t-43.5 -7t-58 -0.5q-99 0 -124.5 19.5t-25.5 95.5v515h-193q-3 -156 -32 -268q90 -69 200 -166l-66 -79q-89 79 -170 143q-76 -168 -267 -280 l-67 82q90 51 149.5 115t93.5 152q-84 60 -173 112l54 83q79 -43 149 -92q18 93 19 198h-235v95h235v170h110v-170h300v-585q0 -33 8.5 -39t54.5 -6z" />
<glyph unicode="&#x4e3b;" d="M555 32h380v-92h-870v92h380v226h-290v90h290v187h-360v93h830v-93h-360v-187h290v-90h-290v-226zM285 739l33 91q192 -28 396 -98l-38 -91q-175 63 -391 98z" />
<glyph unicode="&#x4e45;" d="M584 235q-165 -200 -478 -315l-45 90q257 95 397 239.5t197 368.5h-285q-87 -176 -228 -320l-73 71q189 197 276 453l101 -17q-15 -49 -34 -95h356v-92q-42 -170 -121 -295q119 -194 323 -318l-55 -84q-203 118 -331 314z" />
<glyph unicode="&#x4e4d;" d="M935 635h-403v-165h363v-90h-363v-170h363v-92h-363v-208h-110v725h-151q-60 -145 -142 -267l-88 60q123 183 189 398l102 -20q-16 -54 -26 -81h629v-90z" />
<glyph unicode="&#x4e57;" d="M130 760q433 0 739 50l12 -87q-142 -23 -326 -35v-63h365v-83h-110v-82h140v-90h-140v-88h100v-82h-294q132 -101 351 -185l-44 -90q-232 98 -368 216v-231h-110v231q-136 -118 -368 -216l-44 90q219 84 351 185h-294v82h100v88h-140v90h140v82h-110v83h365v57 q-140 -7 -315 -7v85zM445 282v88h-153v-88h153zM555 282h153v88h-153v-88zM555 542v-82h153v82h-153zM445 542h-153v-82h153v82z" />
<glyph unicode="&#x4e5d;" d="M798 25q37 0 49 13q19 23 27 151q2 41 6 116l100 -10q-3 -73 -5.5 -117.5t-8.5 -88t-10.5 -65.5t-17.5 -43t-23 -29t-33 -14.5t-43 -7t-57 -0.5q-99 0 -124.5 19.5t-25.5 95.5v497h-217q-6 -238 -78.5 -381.5t-236.5 -249.5l-68 86q142 89 205 211.5t68 333.5h-215v96 h215v187h110v-187h325v-568q0 -33 7.5 -39t50.5 -6z" />
<glyph unicode="&#x4e5f;" d="M195 762h107v-200l168 36v217h105v-194l315 68v-54q0 -187 -13.5 -278t-38.5 -118t-78 -27q-41 0 -118 8l-4 92q72 -7 100 -7q17 0 25 13t13.5 70.5t7.5 180.5l-209 -46v-365h-105v342l-168 -37v-363q0 -53 9.5 -64t57.5 -14q69 -4 161 -4q87 0 170 4q30 2 43 2.5 t31.5 5.5t24.5 7.5t16.5 16t12.5 22t7.5 35.5t7.5 46.5t7 63.5l105 -22q-4 -50 -7.5 -81t-10.5 -61.5t-13.5 -47t-21 -32t-28.5 -22t-40.5 -13t-52 -8.5t-68.5 -4q-107 -5 -195 -5q-79 0 -177 5q-40 2 -59.5 4t-39.5 9.5t-26.5 15.5t-13 29t-7 43t-0.5 64v344l-156 -34 l-15 97l171 37v223z" />
<glyph unicode="&#x4e71;" d="M777 15q57 0 71 11q23 17 28 101q2 36 4 148l98 -10q-2 -61 -2.5 -93t-4 -73t-5 -59.5t-9.5 -43t-12.5 -32.5t-19 -20t-24 -14t-33.5 -6t-41 -4h-52q-41 0 -64.5 1t-46 3t-33.5 8t-20.5 13.5t-12.5 22t-4.5 30t-1.5 42.5v755h106v-730q0 -37 10 -43.5t69 -6.5zM80 332 h160v126h-202v90h202v106q-100 -11 -170 -16l-10 89q267 21 446 75l33 -89q-76 -24 -191 -44v-121h204v-90h-204v-126h170v-400h-100v46h-236v-60h-102v414zM182 60h236v190h-236v-190z" />
<glyph unicode="&#x4e73;" d="M232 10q26 0 32 8t6 44v67q-100 -9 -225 -16l-5 87q100 5 230 17v68h38q62 29 114 60h-350v85h493v-85q-84 -64 -187 -117v-1q151 17 214 25l1 -87q-119 -17 -215 -26v-89q0 -86 -19.5 -108t-90.5 -22q-38 0 -153 5l-5 90q74 -5 122 -5zM482 440l-86 30q54 103 89 225 l90 -22q-41 -136 -93 -233zM228 639l84 30q35 -69 68 -170l-85 -30q-35 104 -67 170zM68 619l85 29q37 -71 71 -170l-86 -28q-37 104 -70 169zM583 718q-236 -43 -520 -50l-11 90q282 6 515 47zM794 18q44 0 55 11q19 18 24 116q2 35 5 133l97 -11q-2 -72 -3.5 -112 t-6.5 -83t-8.5 -62.5t-15.5 -40.5t-21.5 -27t-32 -12.5t-41.5 -7t-56 -0.5q-58 0 -87.5 3.5t-48 17t-22.5 34t-4 61.5v754h104v-730q0 -31 9.5 -37.5t52.5 -6.5z" />
<glyph unicode="&#x4e86;" d="M110 680v95h780v-95q-150 -157 -325 -274v-331q0 -99 -22.5 -122t-117.5 -23q-41 0 -161 5l-4 95q112 -5 145 -5q36 0 43 7.5t7 45.5v432h84q118 80 215 170h-644z" />
<glyph unicode="&#x4e88;" d="M263 574l59 78q99 -57 186 -114q105 68 199 152h-532v90h665v-90q-119 -117 -252 -206l59 -42h308v-94q-95 -122 -217 -220l-69 75q87 66 160 145h-257v-278q0 -99 -22.5 -122t-117.5 -23q-42 0 -160 5l-4 92q89 -4 144 -4q37 0 43.5 7t6.5 45v278h-417v94h434 q-111 74 -216 132z" />
<glyph unicode="&#x4e89;" d="M780 518h-215v-103h215v103zM132 459l-75 63q184 136 266 313l101 -16q-10 -27 -24 -54h330v-85q-30 -38 -72 -80h227v-185h85v-87h-85v-228h-105v40h-215v-80q0 -98 -22.5 -121.5t-112.5 -23.5q-35 0 -153 5l-4 92q87 -4 135 -4q36 0 43 7t7 45v80h-348v82h348v106h-428 v87h428v103h-208v42q-53 -55 -118 -101zM565 328v-106h215v106h-215zM519 600q46 41 82 80h-252q-27 -40 -62 -80h232z" />
<glyph unicode="&#x4e8b;" d="M955 270v-82h-65v-180h-105v50h-227v-23q0 -82 -23.5 -101t-124.5 -19q-43 0 -148 5l-2 85q115 -5 138 -5q33 0 38.5 3.5t5.5 24.5v30h-357v77h357v53h-397v82h397v50h-357v80h357v40h-214h-106v200h320v40h-387v82h387v63h116v-63h387v-82h-387v-40h320v-200h-320v-40 h332v-130h65zM228 510h214v55h-214v-55zM558 320v-50h227v50h-227zM558 188v-53h227v53h-227zM558 565v-55h214v55h-214z" />
<glyph unicode="&#x4e8c;" d="M160 612v98h680v-98h-680zM65 10v98h870v-98h-870z" />
<glyph unicode="&#x4e91;" d="M639 292l92 41q124 -190 223 -380l-93 -41l-52 94q-365 -48 -724 -61l-5 93q72 2 147 6q77 176 138 374h-305v87h880v-87h-461q-57 -189 -131 -366q205 14 413 39zM140 670v92h720v-92h-720z" />
<glyph unicode="&#x4e94;" d="M105 750h790v-92h-408l-36 -208h334v-388h160v-92h-890v92h218l52 298h-155v90h171l36 208h-272v92zM435 360l-52 -298h295v298h-243z" />
<glyph unicode="&#x4e95;" d="M280 808h108v-170h264v170h108v-170h185v-93h-185v-270h192v-93h-192v-264h-108v264l-290 1q-21 -89 -65.5 -149t-128.5 -125l-73 76q66 50 101 93.5t54 103.5h-202v93h221q11 85 11 243v27h-225v93h225v170zM377 275h275v270h-264v-27q0 -152 -11 -243z" />
<glyph unicode="&#x4e98;" d="M55 -60v88h890v-88h-890zM65 692v88h870v-88h-870zM282 408h436v130h-436v-130zM282 325v-133h436v133h-436zM282 108h-107v514h650v-514h-543z" />
<glyph unicode="&#x4e9c;" d="M65 780h870v-90h-263v-140h218v-362h-218v-158h273v-90h-890v90h273v158h-118h-100v362h218v140h-263v90zM210 270h118v198h-118v-198zM432 468v-198h136v198h-136zM432 188v-158h136v158h-136zM432 550h136v140h-136v-140zM672 468v-198h118v198h-118z" />
<glyph unicode="&#x4ea1;" d="M935 555h-637v-437q0 -54 9 -64.5t58 -13.5q90 -5 163 -5q152 0 352 12l3 -94q-192 -13 -355 -13q-81 0 -183 5q-42 3 -64 5t-42.5 9.5t-28 15.5t-14 29t-7.5 42.5t-1 63.5v445h-123v95h380v165h110v-165h380v-95z" />
<glyph unicode="&#x4ea4;" d="M864 332q-130 123 -294 236l42 54h-241l53 -47q-110 -144 -304 -244l-48 83q163 88 268 208h-270v93h375v120h110v-120h375v-93h-265q139 -96 264 -216zM500 84q-145 -100 -409 -164l-32 95q242 62 359 137q-87 85 -149 217l93 48q60 -128 138 -202q78 74 138 202l95 -43 q-60 -134 -151 -222q117 -75 359 -137l-32 -95q-264 64 -409 164z" />
<glyph unicode="&#x4eab;" d="M960 185v-85h-392v-62q0 -86 -23.5 -107t-119.5 -21q-41 0 -173 5l-4 87q100 -4 160 -4q35 0 42.5 6.5t7.5 40.5v55h-418v85h418v45h59q92 25 166 52h-571v83h776v-83q-130 -58 -261 -97h333zM950 758v-86h-900v86h395v72h110v-72h395zM258 482h484v73h-484v-73zM258 408 h-108v222h700v-222h-592z" />
<glyph unicode="&#x4eac;" d="M425 -80q-54 0 -143 5l-4 93q98 -6 130 -6q35 0 41 7t6 46v195h-197h-108v330h700v-330h-285v-195q0 -99 -22.5 -122t-117.5 -23zM950 738v-88h-900v88h395v82h110v-82h395zM634 169l67 72q140 -106 255 -235l-70 -69q-114 126 -252 232zM357 182q-96 -136 -249 -239 l-63 74q141 95 236 223zM258 342h484v168h-484v-168z" />
<glyph unicode="&#x4ead;" d="M815 235v-90h-250v-80q0 -99 -22.5 -122t-117.5 -23q-54 0 -143 5l-4 90q81 -5 130 -5q35 0 41 6.5t6 45.5v83h-270v90h630zM945 155h-105v130h-680v-130h-105v215h890v-215zM555 748h395v-90h-900v90h395v82h110v-82zM282 410h-107v208h650v-208h-543zM282 482h436v60 h-436v-60z" />
<glyph unicode="&#x4eba;" d="M38 10q196 100 301.5 276t105.5 409v115h110v-115q0 -233 105.5 -409t301.5 -276l-59 -85q-134 65 -239 190.5t-160 285.5q-55 -159 -162 -285t-245 -191z" />
<glyph unicode="&#x4ec1;" d="M298 -20v98h640v-98h-640zM348 592v98h554v-98h-554zM235 561v-651h-105v447q-36 -63 -74 -109l-43 120q134 186 185 446l99 -18q-21 -128 -62 -235z" />
<glyph unicode="&#x4eca;" d="M115 275v93h770v-93q-174 -223 -453 -367l-57 84q230 116 382 283h-642zM765 534v-69h-530v69q-78 -51 -162 -96l-45 89q224 122 406 285h132q182 -163 406 -285l-45 -89q-84 45 -162 96zM733 555q-123 84 -233 187q-110 -103 -233 -187h466z" />
<glyph unicode="&#x4ecb;" d="M642 -75v600h110v-600h-110zM265 525h107v-93q0 -155 -22.5 -249t-73 -155t-146.5 -112l-61 85q78 41 118.5 88.5t59 127t18.5 215.5v93zM500 742q-188 -176 -427 -304l-45 89q224 122 406 285h132q182 -163 406 -285l-45 -89q-239 128 -427 304z" />
<glyph unicode="&#x4ecf;" d="M730 378l100 34q90 -223 155 -463l-102 -33l-29 100q-289 -53 -544 -68l-5 92q44 2 65 4q135 362 228 760l107 -18q-87 -377 -218 -732q157 16 341 47q-53 163 -98 277zM260 491v-581h-108v437q-42 -59 -86 -103l-47 102q187 184 259 468l97 -18q-35 -171 -115 -305z" />
<glyph unicode="&#x4ed4;" d="M605 80v228h-305v94h305v110h29q92 79 164 163h-413v93h530v-93q-95 -124 -203 -216v-57h258v-94h-258v-228q0 -101 -20.5 -123t-113.5 -22q-33 0 -123 5l-5 92q69 -4 115 -4q29 0 34.5 6.5t5.5 45.5zM242 549v-639h-104v468q-36 -58 -76 -106l-54 93q157 183 215 449 l99 -15q-25 -139 -80 -250z" />
<glyph unicode="&#x4ed5;" d="M952 470h-254v-435h230v-93h-610v93h270v435h-290v95h290v237h110v-237h254v-95zM235 561v-651h-105v447q-36 -63 -74 -109l-43 120q134 186 185 446l99 -18q-21 -128 -62 -235z" />
<glyph unicode="&#x4ed6;" d="M385 762h105v-172l108 24v201h100v-178l232 52v-54q0 -190 -9.5 -279t-26 -111.5t-54.5 -22.5q-23 0 -93 4l-17 92q11 0 28 -1t29 -1.5t18 -0.5q7 0 10 5t6 29.5t4 75t2 142.5l-129 -30v-389h-100v366l-108 -24v-390q0 -55 5.5 -65t37.5 -13q47 -4 105 -4q56 0 109 4 q20 2 28.5 2.5t22.5 4t18.5 4t13.5 8t11 10.5t7 17t6 22t4 30.5t4 37t3 47.5l100 -20q-3 -47 -5.5 -76t-8.5 -58t-11 -44t-17.5 -30t-24.5 -21t-35 -12.5t-45 -8.5t-60 -5q-77 -5 -140 -5q-54 0 -126 5q-29 2 -43.5 4t-29 9.5t-19.5 15.5t-9.5 29t-5 43t-0.5 64v371l-89 -21 l-17 97l106 24v196zM250 523v-613h-105v446q-35 -56 -71 -97l-53 99q157 186 217 456l102 -23q-28 -147 -90 -268z" />
<glyph unicode="&#x4ed8;" d="M371 427l83 56q93 -128 173 -276l-86 -49q-81 149 -170 269zM310 670h452v140h108v-140h92v-92h-92v-516q0 -54 -3.5 -79t-20.5 -42t-43 -20t-81 -3q-74 0 -170 4l-4 93q108 -5 157 -5q42 0 49.5 7t7.5 45v516h-452v92zM250 574v-664h-105v456q-39 -71 -79 -118l-43 120 q134 186 185 446l99 -18q-18 -114 -57 -222z" />
<glyph unicode="&#x4ee3;" d="M699 764l69 64q87 -70 160 -148l-69 -63q-83 86 -160 147zM545 812h105q0 -114 10 -229l290 26l5 -92l-285 -26q19 -143 55 -254.5t66 -158t47 -46.5q8 0 14 10t14.5 47.5t18.5 110.5l87 -34q-27 -254 -127 -254q-37 0 -76 28.5t-80.5 90t-75.5 178t-51 272.5l-264 -24 l-6 92l261 24q-8 115 -8 239zM250 523v-613h-105v446q-35 -56 -71 -97l-53 99q157 186 217 456l102 -23q-28 -147 -90 -268z" />
<glyph unicode="&#x4ee4;" d="M82 390h820v-258q0 -54 -3 -79.5t-17.5 -42t-36 -19.5t-67.5 -3q-68 0 -153 4l-7 93q98 -5 137 -5q32 0 37.5 6.5t5.5 45.5v166h-298v-386h-110v386h-308v92zM778 561v-71h-556v71q-77 -43 -157 -78l-37 86q220 104 407 249h130q187 -145 407 -249l-37 -86 q-80 35 -157 78zM744 580q-127 71 -244 164q-117 -93 -244 -164h488z" />
<glyph unicode="&#x4ee5;" d="M782 792h108q0 -205 -20.5 -341.5t-70.5 -231.5q102 -120 183 -244l-84 -55q-73 110 -157 211q-58 -69 -147 -122t-222 -101l-51 87q100 37 166 70.5t121 80.5t86 99.5t52 133.5t28.5 177.5t7.5 235.5zM336 672l77 64q123 -126 221 -271l-81 -58q-96 141 -217 265z M230 165q135 48 298 122l27 -90q-269 -125 -509 -190l-24 93q56 15 103 30v652h105v-617z" />
<glyph unicode="&#x4eee;" d="M485 426l100 33q40 -133 110 -232q73 101 112 245h-352v-54q0 -143 -37 -272t-106 -221l-71 85q109 165 109 478v292h595v-90h-490v-130h460v-88q-50 -195 -151 -325q86 -86 208 -137l-49 -90q-133 57 -229 151q-100 -93 -247 -151l-45 91q132 51 223 136 q-91 118 -140 279zM232 506v-596h-104v435q-38 -61 -70 -95l-42 116q70 91 126 212t81 236l101 -22q-23 -129 -92 -286z" />
<glyph unicode="&#x4ef0;" d="M840 32q-22 0 -108 4l-12 95q57 -3 92 -3q29 0 33.5 6.5t4.5 45.5v482h-160v-750h-102v790q-88 -24 -196 -44v-484q79 27 166 63l6 -94q-161 -72 -325 -117l-20 94q23 6 71 20v595q175 25 333 75l19 -58h308v-574q0 -36 -1 -57.5t-6 -39.5t-11 -26.5t-20 -14t-29.5 -7 t-42.5 -1.5zM198 536v-626h-103v425q-22 -44 -43 -78l-41 116q108 182 149 440l95 -4q-17 -145 -57 -273z" />
<glyph unicode="&#x4ef2;" d="M850 292v246h-180v-246h180zM562 292v246h-180v-246h180zM670 202v-292h-108v292h-180v-60h-102v488h282v180h108v-180h285v-488h-105v60h-180zM225 523v-613h-103v439q-27 -48 -66 -96l-43 115q67 89 110 185h-1h1q51 114 80 261l99 -18q-25 -151 -77 -273z" />
<glyph unicode="&#x4ef6;" d="M259 428q122 174 189 378l97 -20q-21 -63 -43 -118h120v142h108v-142h200v-90h-200v-246h230v-92h-230v-330h-108v330h-332v92h332v246h-160q-53 -110 -121 -207zM238 537v-627h-106v454q-32 -56 -65 -97l-54 98q148 184 202 449l97 -15q-26 -144 -74 -262z" />
<glyph unicode="&#x4efb;" d="M960 312h-285v-270h250v-92h-615v92h258v270h-288v96h288v225q-136 -13 -240 -15l-6 92q354 12 584 80l23 -92q-100 -30 -254 -52v-238h285v-96zM225 535v-625h-105v443q-31 -53 -69 -100l-43 115q139 186 190 446l99 -18q-23 -139 -72 -261z" />
<glyph unicode="&#x4f0f;" d="M697 764l69 67q90 -76 170 -160l-69 -66q-77 80 -170 159zM555 800h107v-205h288v-95h-283q32 -327 298 -501l-63 -83q-95 60 -171 161.5t-120 225.5q-44 -123 -120.5 -224t-172.5 -163l-68 83q129 82 206.5 210.5t94.5 290.5h-276v95h280v205zM225 541v-631h-103v438 q-34 -59 -69 -100l-42 120q133 184 184 446l100 -18q-23 -137 -70 -255z" />
<glyph unicode="&#x4f11;" d="M968 625v-93h-237q82 -199 258 -393l-63 -101q-162 193 -247 393v-521h-105v519q-92 -203 -264 -392l-73 82q196 200 290 413h-249v93h296v185h105v-185h289zM225 529v-619h-105v439q-34 -57 -67 -96l-42 115q64 85 109 185v0q51 114 80 261l100 -18q-26 -151 -75 -267z " />
<glyph unicode="&#x4f1a;" d="M774 233q94 -160 160 -290l-93 -41l-49 93q-366 -50 -687 -60l-5 90q95 4 141 7q56 104 104 223h-270v90h850v-90h-467q-47 -120 -97 -215q186 13 386 38l-64 114zM785 521v-76h-570v76q-77 -48 -142 -83l-45 89q224 122 406 285h132q182 -163 406 -285l-45 -89 q-65 35 -142 83zM767 532q-139 91 -267 210q-128 -119 -267 -210h534z" />
<glyph unicode="&#x4f1d;" d="M693 292l94 38q96 -175 178 -380l-97 -37l-40 95q-279 -41 -548 -63l-8 92l97 9q62 174 119 376h-206v93h668v-93h-348q-50 -180 -113 -365q217 24 301 36q-51 111 -97 199zM350 675v93h548v-93h-548zM225 535v-625h-105v443q-31 -53 -69 -100l-43 115q139 186 190 446 l99 -18q-23 -139 -72 -261z" />
<glyph unicode="&#x4f2f;" d="M598 827l107 -14q-22 -79 -44 -135h274v-753h-107v60h-393v-60h-105v753h219q28 66 49 149zM435 382h393v206h-393v-206zM435 295v-223h393v223h-393zM232 521v-611h-104v454q-34 -58 -66 -97l-54 98q148 184 202 449l102 -15q-29 -160 -80 -278z" />
<glyph unicode="&#x4f34;" d="M968 248v-93h-271v-245h-105v245h-316v93h316v134h-294v90h294v338h105v-338h246v-90h-246v-134h271zM959 740q-45 -130 -113 -256l-91 37q67 124 110 251zM411 768q58 -112 113 -248l-92 -35q-50 127 -112 247zM225 535v-625h-105v443q-31 -53 -69 -100l-43 115 q139 186 190 446l99 -18q-23 -139 -72 -261z" />
<glyph unicode="&#x4f3c;" d="M818 792h104q0 -399 -79 -577q81 -122 144 -243l-86 -52q-53 101 -115 195q-86 -116 -279 -207l-52 84q93 45 152 89t103 102.5t66 143t32 193.5t10 272zM482 678l82 58q101 -129 175 -271l-83 -53q-78 144 -174 266zM425 204q83 38 203 108l30 -89q-205 -123 -396 -190 l-28 92q18 6 86 32v625h105v-578zM215 535v-625h-103v425q-22 -48 -54 -97l-42 135q118 188 159 441l98 -21q-21 -139 -58 -258z" />
<glyph unicode="&#x4f46;" d="M290 -60v90h670v-90h-670zM232 521v-611h-104v454q-34 -58 -66 -97l-54 98q148 184 202 449l102 -15q-29 -160 -80 -278zM452 512h350v178h-350v-178zM452 425v-177h350v177h-350zM452 160h-102v620h560v-620h-458z" />
<glyph unicode="&#x4f4d;" d="M285 -60v95h354q102 226 156 521l105 -19q-50 -275 -150 -502h212v-95h-677zM345 529l102 22q56 -204 100 -443l-102 -16q-41 218 -100 437zM680 700h270v-92h-645v92h267v128h108v-128zM238 537v-627h-106v454q-32 -56 -65 -97l-54 98q148 184 202 449l97 -15 q-26 -144 -74 -262z" />
<glyph unicode="&#x4f4e;" d="M312 -55v90h441q-105 94 -138 383h-187v-220q101 22 195 52l11 -93q-179 -55 -366 -79l-9 89q11 1 32 5t31 5v568q319 0 552 65l25 -90q-81 -23 -197 -39q2 -95 9 -173h219v-90h-208q21 -149 57.5 -233.5t68.5 -84.5q26 0 44 163l88 -28q-25 -245 -111 -245q-20 0 -37 4 v-49h-520zM606 508q-6 96 -7 161q-70 -8 -171 -11v-150h178zM230 515v-605h-102v454q-34 -58 -66 -97l-54 98q148 184 202 449l102 -15q-28 -154 -82 -284z" />
<glyph unicode="&#x4f4f;" d="M682 32h280v-92h-677v92h290v226h-240v90h240v187h-277v93h652v-93h-268v-187h230v-90h-230v-226zM449 733l30 92q167 -31 331 -98l-35 -91q-153 65 -326 97zM238 537v-627h-106v454q-32 -56 -65 -97l-54 98q148 184 202 449l97 -15q-26 -144 -74 -262z" />
<glyph unicode="&#x4f53;" d="M968 645v-90h-246q87 -215 267 -416l-60 -101q-48 57 -85 110v-68h-175v-170h-105v170h-185v67q-29 -38 -91 -110l-63 72v-199h-103v438q-34 -59 -69 -100l-42 120q133 184 184 446l100 -18q-23 -137 -70 -255v-414q199 211 290 428h-237v90h286v165h105v-165h299z M564 459q-66 -153 -170 -291h170v291zM830 168q-98 140 -161 294v-294h161z" />
<glyph unicode="&#x4f55;" d="M784 62v616h-458v92h635v-92h-72v-616q0 -36 -1.5 -57t-7.5 -39t-13.5 -26t-25.5 -14t-37.5 -7t-54.5 -1q-57 0 -165 4l-5 93q132 -5 152 -5q38 0 45.5 7.5t7.5 44.5zM238 534v-624h-106v462q-33 -58 -70 -105l-54 98q148 184 202 449l102 -15q-27 -147 -74 -265z M430 242h164v243h-164v-243zM430 160v-80h-105v488h371v-408h-266z" />
<glyph unicode="&#x4f59;" d="M644 206l72 65q132 -121 238 -266l-81 -60q-103 142 -229 261zM50 29q148 105 223 241l84 -47q-81 -159 -247 -275zM75 378h380v122h-217v62q-92 -51 -173 -86l-37 83q220 104 407 249h130q187 -145 407 -249l-37 -83q-81 35 -173 86v-62h-200v-122h363v-88h-363v-225 q0 -99 -21.5 -122t-115.5 -23q-20 0 -130 5l-5 93q93 -6 122 -6q31 0 37 7.5t6 45.5v225h-380v88zM718 588q-116 68 -218 149q-102 -81 -218 -149h436z" />
<glyph unicode="&#x4f5c;" d="M965 635h-297v-160h267v-90h-267v-165h267v-92h-267v-218h-113v725h-33q-60 -144 -146 -273l-85 64q124 184 189 398l102 -20q-7 -27 -25 -79h408v-90zM270 549v-639h-110v458q-40 -65 -79 -109l-52 99q158 189 216 456l102 -23q-25 -133 -77 -242z" />
<glyph unicode="&#x4f7f;" d="M830 352v160h-155v-34q0 -74 -4 -126h159zM960 742v-90h-285v-57h257v-385h-102v60h-167q-15 -104 -54 -172q133 -74 356 -83l-13 -92q-235 8 -403 102q-77 -66 -248 -102l-33 90q133 32 190 73q-64 54 -109 124l85 50q38 -58 87 -101q23 42 34 111h-147h-100v325h260v57 h-266v90h266v78h107v-78h285zM232 554v-644h-102v447q-36 -63 -74 -109l-43 120q134 186 185 446l99 -18q-22 -132 -65 -242zM408 352h156q4 49 4 126v34h-160v-160z" />
<glyph unicode="&#x4f8b;" d="M835 795h103v-730q0 -98 -16.5 -121.5t-86.5 -23.5q-35 0 -128 5l-4 95q82 -5 99 -5q24 0 28.5 7t4.5 46v727zM670 115v630h98v-630h-98zM265 685v90h385v-90h-204q-4 -39 -18 -110h202v-77v-6q-9 -190 -94 -343t-218 -231l-61 76q133 84 205 229q-56 44 -124 89 q-26 -52 -56 -95l-69 71q106 168 133 397h-81zM198 536v-626h-103v425q-22 -44 -43 -78l-41 116q108 182 149 440l95 -4q-17 -145 -57 -273zM497 308q28 84 37 184h-127q-15 -50 -33 -96q81 -54 123 -88z" />
<glyph unicode="&#x4f9b;" d="M652 133l71 72q131 -102 241 -232l-73 -71q-103 127 -239 231zM252 -15q148 96 246 220l76 -65q-109 -140 -259 -232zM515 332h205v236h-205v-236zM515 658h205v147h108v-147h110v-90h-110v-236h142v-92h-705v92h145v236h-110v90h110v147h105v-147zM225 535v-625h-105 v443q-31 -53 -69 -100l-43 115q139 186 190 446l99 -18q-23 -139 -72 -261z" />
<glyph unicode="&#x4fa1;" d="M465 50v408h-83v-408h83zM562 50h83v408h-83v-408zM742 50h83v408h-83v-408zM382 -35v-45h-100v625h176v140h-188v2q-24 -90 -52 -157v-620h-103v438q-31 -53 -69 -100l-38 120q134 186 185 446l102 -11q-1 -4 -2.5 -12.5t-2.5 -12.5h670v-93h-210v-140h180v-625h-105v45 h-443zM560 685v-140h88v140h-88z" />
<glyph unicode="&#x4fbf;" d="M832 330v75h-161q0 -27 -4 -75h165zM308 780h652v-85h-288v-65h260v-440h-100v60h-175q-17 -97 -52 -156q135 -70 360 -79l-13 -92q-238 8 -409 99q-77 -65 -244 -99l-31 90q131 33 184 69q-70 55 -118 128l68 40h-94v380h262v65h-262v85zM426 250q40 -56 93 -100 q23 38 35 100h-128zM405 330h160q2 24 4 75h-164v-75zM405 480h165v70h-165v-70zM672 550v-70h160v70h-160zM232 554v-644h-102v447q-36 -63 -74 -109l-43 120q134 186 185 446l99 -18q-22 -132 -65 -242z" />
<glyph unicode="&#x4fc2;" d="M688 135l68 69q128 -105 223 -201l-66 -68q-108 106 -225 200zM237 12q114 80 205 185l70 -62q-89 -105 -213 -196zM780 448l84 37q63 -128 120 -270l-82 -37l-35 81l-209 -10v-327h-108v322l-290 -14l-3 90l191 8l21 18l-188 207l73 63l57 -63q61 53 130 122 q-115 -5 -222 -5l-9 90q364 0 602 45l17 -87q-107 -22 -249 -34q-88 -96 -205 -201l68 -76q141 120 279 264l73 -60q-141 -147 -298 -276l231 10zM220 535v-625h-105v438q-31 -53 -69 -100l-38 120q134 186 185 446l99 -18q-23 -139 -72 -261z" />
<glyph unicode="&#x4fdd;" d="M910 785v-345h-238v-72h278v-88h-223q87 -125 248 -241l-45 -88q-160 118 -258 259v-298h-107v292q-98 -136 -252 -251l-51 89q161 112 250 238h-217v88h270v72h-127h-100v345h572zM438 525h372v173h-372v-173zM225 535v-625h-105v438q-31 -53 -69 -100l-38 120 q134 186 185 446l99 -18q-23 -139 -72 -261z" />
<glyph unicode="&#x4fe1;" d="M810 35v90h-370v-90h370zM345 268v84h563v-84h-563zM345 410v85h563v-85h-563zM295 552v90h670v-90h-670zM358 698v87h554v-87h-554zM440 -50v-40h-105v300h583v-300h-108v40h-370zM225 535v-625h-105v438q-31 -53 -69 -100l-38 120q134 186 185 446l99 -18 q-23 -139 -72 -261z" />
<glyph unicode="&#x4fee;" d="M258 30v625h97v-58q89 95 138 230l94 -11q-11 -36 -22 -61h377v-87h-69q-43 -91 -121 -155q79 -39 202 -68l-33 -90q-86 20 -150 46l19 -58q-146 -91 -362 -128l-26 85q201 37 338 114q-36 15 -78 40q-103 -54 -261 -89l-35 85q122 26 213 65q-54 47 -89 101 q-40 -58 -86 -104l-49 56v-538h-97zM387 -13q348 51 545 187l29 -85q-200 -143 -548 -189zM400 145q286 45 452 160l31 -85q-172 -115 -458 -162zM195 517v-607h-97l-2 425q-21 -41 -44 -78l-41 116q117 185 159 440l95 -9q-22 -158 -70 -287zM666 562q66 46 103 106h-206 q39 -60 103 -106z" />
<glyph unicode="&#x4ff3;" d="M975 220v-92h-205v-218h-105v900h105v-130h200v-92h-200v-136h190v-87h-190v-145h205zM292 370v88h178v130h-188v92h188v130h100v-420q0 -194 -45 -298.5t-168 -195.5l-74 77q67 46 105 90.5t57 105.5q-83 -29 -164 -51l-21 90q109 30 205 64q3 32 5 98h-178zM225 535 v-625h-105v443q-31 -53 -69 -100l-43 115q139 186 190 446l99 -18q-23 -139 -72 -261z" />
<glyph unicode="&#x4ff5;" d="M258 99l-32 91q176 66 272 150h-240v85h297v73h-240v82h240v72h-265v88h265v85h107v-85h270v-88h-270v-72h243v-82h-243v-73h303v-85h-277q22 -69 64 -135q76 66 127 128l71 -62q-65 -76 -140 -139q72 -75 177 -127l-44 -87q-120 51 -212.5 154.5t-137.5 241.5 q-42 -46 -91 -84v-191q112 20 192 38l10 -87q-215 -51 -418 -70l-9 90q80 8 121 14v138q-66 -34 -140 -63zM215 529v-619h-103v430q-33 -55 -64 -92l-42 120q133 184 184 446l100 -18q-26 -151 -75 -267z" />
<glyph unicode="&#x4ff8;" d="M915 120v-88h-253v-127h-107v127h-273v88h273v80h-147v57q-75 -79 -166 -134l-32 103q107 61 181 162h-156v82h209q11 20 31 62h-185v78h214q11 35 17 60h-246v66q-26 -121 -73 -223v-604h-102v421q-28 -49 -58 -85l-34 127q122 173 177 440l102 -17q-1 -6 -3.5 -19.5 t-4.5 -20.5h259q4 26 10 70l107 -3q-3 -34 -9 -67h306v-85h-323q-5 -20 -17 -60h313v-78h-178q5 -13 27 -62h206v-82h-158q65 -97 163 -162l-33 -103q-81 55 -144 129v-52h-146v-80h253zM783 282q-42 56 -70 106h-205q-35 -55 -78 -106h125v80h107v-80h121zM672 470 q-9 20 -25 62h-64q-18 -42 -28 -62h117z" />
<glyph unicode="&#x5009;" d="M758 28v94h-445v-94h445zM565 822q184 -111 407 -195l-24 -91q-53 19 -113 45v-326h-579q-2 -20 -8 -50h617v-297h-107v40h-445v-40h-105v200q-36 -114 -109 -189l-72 79q70 78 101.5 177t31.5 243v161q-43 -18 -108 -43l-24 91q223 84 407 195h130zM263 462h465v58h-465 v-58zM263 390v-22q0 -24 -1 -36h466v58h-465zM204 598h592q-77 34 -138 67v-35h-320v33q-67 -36 -134 -65zM405 700h190q-47 27 -95 58q-48 -31 -95 -58z" />
<glyph unicode="&#x500b;" d="M835 38v664h-460v-664h460zM538 92h-98v303h115v103h-147v82h147v102h100v-102h147v-82h-147v-103h115v-303h-232zM538 174h134v140h-134v-140zM375 -48v-42h-103v880h668v-880h-105v42h-460zM200 550v-640h-102v435q-33 -64 -49 -88l-41 116q110 185 150 440l94 -6 q-16 -136 -52 -257z" />
<glyph unicode="&#x500d;" d="M790 40v178h-355v-178h355zM278 378v90h143q-19 76 -54 182h-67v88h260v92h110v-92h275v-88h-83q-19 -90 -54 -182h147v-90h-677zM225 535v-625h-105v443q-31 -53 -69 -100l-43 115q139 186 190 446l99 -18q-23 -139 -72 -261zM435 -45v-40h-105v390h568v-390h-108v40 h-355zM704 468q33 79 57 182h-291q28 -87 53 -182h181z" />
<glyph unicode="&#x5019;" d="M398 168v87h234v3v92h-115q-34 -50 -63 -81l-80 52q68 74 120 181h-96v88h356l13 112h-337v88h453l-19 -200h96v-88h-363q-16 -39 -30 -67h368v-85h-195v-92v-3h220v-87h-206q39 -115 217 -168l-35 -92q-81 21 -145.5 70t-104.5 115q-47 -67 -131.5 -115.5t-198.5 -69.5 l-35 92q245 47 295 168h-218zM258 30v625h97v-625h-97zM195 517v-607h-100v425q-22 -44 -43 -78l-41 116q117 185 159 440l95 -9q-22 -158 -70 -287z" />
<glyph unicode="&#x501f;" d="M802 202v78h-367v-78h367zM435 120v-80h367v80h-367zM435 -45v-40h-105v453h580v-453h-108v40h-367zM528 728h194v92h106v-92h110v-86h-110v-137h137v-85h-693v85h153v137h-123v86h123v92h103v-92zM528 642v-137h194v137h-194zM225 535v-625h-105v443q-31 -53 -69 -100 l-43 115q139 186 190 446l99 -18q-23 -139 -72 -261z" />
<glyph unicode="&#x5024;" d="M402 565v-525h566v-88h-566v-42h-104v655h104zM812 172v66h-232v-66h232zM302 660v88h322q8 46 11 75l105 -4q-2 -13 -5.5 -37t-4.5 -34h238v-88h-252l-12 -70h214v-500h-338h-102v500h119q6 26 13 70h-308zM580 445h232v60h-232v-60zM580 372v-62h232v62h-232zM215 529 v-619h-103v430q-33 -55 -64 -92l-42 120q133 184 184 446l100 -18q-26 -151 -75 -267z" />
<glyph unicode="&#x5049;" d="M970 100v-88h-220v-102h-110v102h-398v88h113v58h-73v82h358v42h-202h-106v210h583v-210h-165v-42h192v-82h-192v-58h220zM895 755v-143h70v-84h-703v84h210q9 23 19 58h-161v85h186q3 11 8.5 33t8.5 33l107 -7l-15 -59h270zM225 541v-631h-103v438q-34 -59 -69 -100 l-42 120q133 184 184 446l100 -18q-23 -137 -70 -255zM438 358h372v60h-372v-60zM640 158h-182v-58h182v58zM601 670q-10 -35 -19 -58h206v58h-187z" />
<glyph unicode="&#x505c;" d="M560 -80q-48 0 -128 5l-4 90q73 -5 114 -5q36 0 42 6.5t6 45.5v83h-208v90h453v-90h-135v-80q0 -99 -22.5 -122t-117.5 -23zM965 155h-105v130h-502v-130h-103v215h710v-215zM670 748h300v-90h-691q-22 -81 -49 -143v-605h-102v454q-34 -58 -66 -97l-54 98 q148 184 202 449l102 -15q-2 -9 -5.5 -27t-4.5 -24h258v77h110v-77zM430 410h-105v208h570v-208h-465zM430 482h358v60h-358v-60z" />
<glyph unicode="&#x5065;" d="M918 760v-142h52v-86h-52v-144h-186v-63h198v-83h-198v-64h213v-86h-213v-74h224l-5 -90h-227q-144 0 -233.5 23.5t-153.5 85.5q-37 -67 -95 -125l-52 67v-69h-100v425q-22 -44 -43 -78l-41 116q110 186 149 440l95 -4q-1 -7 -2.5 -20t-2.5 -19h179v-90 q-40 -112 -100 -208h112v-87q-15 -148 -57 -260q42 -51 99 -74.5t147 -30.5l3 72h-200v86h197v64h-173v83h173v63h-157v80h157v64h-210v86h210v60h-167v82h167v55h107v-55h186zM190 528v-226l73 47q32 -80 53 -124q21 69 29 160h-129v87q71 110 114 208h-101 q-17 -82 -39 -152zM190 281v-284q46 51 83 119q-42 66 -83 165zM732 678v-60h88v60h-88zM732 468h88v64h-88v-64z" />
<glyph unicode="&#x5074;" d="M459 109l77 47q79 -96 133 -196l-78 -45q-56 101 -132 194zM224 -36q89 98 132 196l81 -42q-57 -130 -136 -209zM835 795h103v-730q0 -98 -16.5 -121.5t-86.5 -23.5q-35 0 -128 5l-4 95q82 -5 99 -5q24 0 28.5 7t4.5 46v727zM675 125v630h97v-630h-97zM370 605h155v90 h-155v-90zM370 525v-90h155v90h-155zM370 355v-90h155v90h-155zM370 175h-100v610h350v-610h-250zM198 536v-626h-103v425q-22 -44 -43 -78l-41 116q108 182 149 440l95 -4q-17 -145 -57 -273z" />
<glyph unicode="&#x5099;" d="M820 5q9 0 10.5 4t1.5 27v46h-127v-160h-97v160h-123v-167h-100v527h550v-412q0 -78 -14.5 -95t-80.5 -17q-54 0 -88 2l-5 88q60 -3 73 -3zM365 362q0 -251 -95 -437l-68 79v-95h-102v421q-28 -49 -58 -85l-34 127q122 173 177 440l102 -17q-28 -156 -85 -282v-491 q34 91 47 179t13 231v138h700v-82h-597v-126zM822 742h130v-84h-130v-68h-104v68h-186v-68h-102v68h-140v84h140v78h102v-78h186v78h104v-78zM608 295v67h-123v-67h123zM705 295h127v67h-127v-67zM485 222v-67h123v67h-123zM705 222v-67h127v67h-127z" />
<glyph unicode="&#x50b5;" d="M675 550h285v-75h-685v75h290v32h-243v68h243v32h-267v80h267v58h110v-58h265v-80h-265v-32h240v-68h-240v-32zM432 335h370v33h-370v-33zM432 272v-32h370v32h-370zM432 178v-33h370v33h-370zM735 70q131 -44 228 -95l-41 -74q-111 58 -266 109l27 60h-151l29 -51 q-102 -69 -275 -114l-32 75q133 37 235 90h-57h-107v372h587v-372h-177zM222 541v-631h-102v438q-31 -53 -69 -100l-43 120q134 186 185 446l99 -18q-22 -137 -70 -255z" />
<glyph unicode="&#x50b7;" d="M275 272v80h690v-80h-430q-3 -4 -7 -8.5t-9 -10t-8 -8.5h429q0 -141 -12.5 -212.5t-36.5 -94.5t-71 -23q-45 0 -125 5l-5 85q62 -5 96 -5q26 0 38.5 34t13.5 134h-34q-41 -74 -117 -150t-155 -120l-63 61q64 35 126.5 92t105.5 117h-77q-51 -61 -131 -122.5t-158 -97.5 l-58 64q131 59 231 156h-82q-68 -55 -139 -90l-52 65q96 47 186 129h-146zM241 518q120 139 177 319l97 -16q-8 -27 -20 -61h460v-85h-495l-13 -27h451v-268h-443h-103v114q-20 -26 -31 -39zM455 542h335v36h-335v-36zM455 485v-35h335v35h-335zM222 544v-636h-102v443 q-33 -56 -69 -101l-43 120q135 188 185 446l99 -18q-22 -138 -70 -254z" />
<glyph unicode="&#x50cd;" d="M747 -57l-1 94q49 -9 75 -9q13 0 20 26.5t12 128t5 297.5v42h-66q-9 -236 -38.5 -369t-86.5 -238l-74 46q-166 -24 -367 -38l-6 89q143 11 163 13v50h-150v80h150v45h-52h-93v310h145v45h-150v80h150v48q-39 -4 -115 -8l-10 87q191 10 357 45l19 -89q-61 -13 -146 -24 v-59h148v-23h62q2 122 2 200h98q0 -108 -3 -200h163v-64q0 -115 -0.5 -197.5t-3 -149.5t-5 -109.5t-9 -74.5t-12 -47.5t-16.5 -24.5t-20.5 -11t-26.5 -2q-41 0 -118 11zM192 528v-618h-100v425q-21 -45 -43 -78l-41 116q110 185 150 440l94 -4q-18 -150 -60 -281zM488 35 q63 7 135 17q60 156 72 470h-75v33h-132v-45h143v-310h-143v-45h135v-80h-135v-40zM386 385v47h-55v-47h55zM486 385h55v47h-55v-47zM331 325v-47h55v47h-55zM486 325v-47h55v47h-55z" />
<glyph unicode="&#x50cf;" d="M560 6q27 0 34.5 14t7.5 71v18q-65 -53 -152 -98q82 -5 110 -5zM837 180q64 -93 151 -160l-53 -88q-97 72 -177 195t-117 262h-52q116 -135 116 -303q0 -97 -21 -132t-76 -35q-72 0 -163 5l-4 82q-94 -48 -195 -82l-35 87q240 74 377 184q-9 29 -19 50 q-121 -89 -318 -156l-32 82q192 58 312 139q-15 20 -33 39q-95 -55 -239 -103l-33 78q107 29 189 65h-130v100l-71 50l-14 -32v-598h-100v421q-28 -49 -58 -85l-34 127q122 173 177 440l102 -17q-24 -131 -66 -239q136 119 202 270l103 -16q-3 -8 -17 -41h283v-85 q-6 -10 -32 -45h180v-250h-203q17 -62 52 -129q56 52 105 115l70 -55q-62 -81 -127 -140zM660 554v-88h178v88h-178zM560 554h-175v-88h175v88zM632 639q8 7 40 45h-210q-9 -15 -31 -45h201z" />
<glyph unicode="&#x50e7;" d="M420 -50v-40h-102v395h590v-395h-106v40h-382zM420 162h382v60h-382v-60zM420 92v-64h382v64h-382zM375 430h187v65h-187v-65zM375 358h-100v341q-19 -79 -50 -158v-631h-103v438q-34 -59 -69 -100l-42 120q133 184 184 446l100 -18q-6 -33 -17 -84h151q-31 46 -63 87 l95 24q38 -47 80 -111h144q44 60 73 111l99 -21q-23 -39 -59 -90h152v-354h-575zM660 635v-70h188v70h-188zM562 635h-187v-70h187v70zM660 495v-65h188v65h-188z" />
<glyph unicode="&#x5104;" d="M987 -30l-82 -42q-50 107 -115 199l84 44q69 -105 113 -201zM703 91l-60 -66q-64 61 -144 117l36 38h-160h-107v288h650v-288h-320q60 -45 105 -89zM722 91l93 -17q-7 -99 -26 -124t-91 -31q-40 -4 -110 -4q-68 0 -111 3q-67 4 -83 23.5t-16 93.5v105h103v-79 q0 -39 4.5 -47.5t27.5 -10.5q27 -3 74 -3q43 0 74 3q40 4 48 15.5t13 72.5zM238 500v85h168q-10 21 -42 75h-89v88h270v82h110v-82h287v-88h-117q-17 -39 -39 -75h176v-85h-724zM375 360h435v35h-435v-35zM375 292v-40h435v40h-435zM674 585q26 39 44 75h-241l40 -75h157z M195 -35v-55h-100v420q-29 -54 -51 -83l-38 126q124 184 169 441l97 -13q-23 -153 -77 -286v-500q48 65 78 143l84 -37q-37 -108 -108 -192z" />
<glyph unicode="&#x512a;" d="M282 702v83h670v-83h-309l-12 -30h261v-227h68v-163h-55q34 -48 49 -72l-69 -50q-41 64 -84 118q-8 -44 -43.5 -53.5t-161.5 -9.5h-60q-19 -16 -27 -23h339v-64q-52 -47 -126 -85q115 -28 249 -38l-19 -87q-177 14 -347 75q-152 -54 -349 -75l-19 84q149 14 255 40 q-52 27 -92 56l35 30h-23q-73 -43 -155 -70l-29 79q113 37 200 90q-13 6 -17 17.5t-4 35.5v5q-39 -61 -100 -110l-60 56q29 24 54 51h-53v163h67v227h205q5 10 13 30h-251zM704 350l-44 -62q-63 32 -137 60l20 30h-201v-43q2 3 16 25l49 -33v33h95v-52q0 -21 12 -24.5 t80 -3.5h47.5t30.5 2.5t21 4.5t9.5 11t6 16.5t1.5 25.5l86 -5l43 31l26 -32v44h-218q7 -4 27 -13.5t30 -14.5zM422 590h363v30h-363v-30zM422 548v-30h363v30h-363zM422 475v-30h363v30h-363zM608 77q59 22 107 51h-218q49 -28 111 -51zM195 515v-605h-100v420 q-29 -54 -51 -83l-38 126q124 184 169 441l97 -13q-23 -153 -77 -286z" />
<glyph unicode="&#x5143;" d="M150 685v93h700v-93h-700zM308 422h-238v93h860v-93h-265v-352q0 -29 11.5 -34.5t75.5 -5.5q51 0 63 11q20 16 25 98q2 28 5 111l105 -8q-2 -67 -3.5 -100t-7 -73t-8.5 -55t-17.5 -34.5t-24 -23.5t-36.5 -10t-48 -6h-65t-71 1.5t-49 6t-33 11t-18 20.5t-9 29.5t-2 41.5 v372h-146q-3 -195 -72 -307t-233 -190l-56 85q140 66 196.5 155.5t60.5 256.5z" />
<glyph unicode="&#x5144;" d="M248 445h504v245h-504v-245zM318 358h-70h-108v422h720v-422h-195v-293q0 -29 12.5 -34.5t84.5 -5.5q54 0 67 11q21 15 26 95q2 29 5 114l100 -8q-2 -67 -3.5 -100t-7 -73t-8.5 -55t-17.5 -34.5t-24 -23.5t-36.5 -10t-48 -6h-65q-55 0 -86.5 2.5t-55 8t-33 19.5t-13.5 31 t-4 49v313h-134q-7 -167 -83.5 -268t-244.5 -170l-55 85q145 58 207 136.5t70 216.5z" />
<glyph unicode="&#x5145;" d="M673 -76q-77 1 -97 14t-20 59v357l-130 -12q-12 -181 -93 -285.5t-243 -148.5l-33 92q129 39 190.5 116.5t71.5 217.5q-125 -8 -241 -12l-5 90q101 4 151 7q57 106 104 223h-268v90h385v93h110v-93h385v-90h-500q-42 -108 -99 -216q185 12 372 33l-103 118l85 50 q144 -154 242 -286l-83 -56l-73 93q-21 -2 -60.5 -6.5t-57.5 -6.5v-317q0 -24 4.5 -28.5t28.5 -6.5q6 0 18.5 -0.5t18.5 -0.5q7 0 19.5 0.5t18.5 0.5q17 1 25 4t15.5 10.5t10.5 29t5 50t4 83.5l102 -10q-2 -51 -4 -80.5t-6 -60t-8 -45.5t-13.5 -30.5t-18 -20.5t-27 -10.5 t-35.5 -6.5t-47 -2q-36 -2 -51 -2q-18 0 -50 2z" />
<glyph unicode="&#x5146;" d="M666 506q94 97 179 232l85 -50q-84 -139 -183 -238zM738 15q30 0 60 3q18 3 24.5 5.5t14 7.5t10 24.5t4.5 40t5 69.5l97 -15q-3 -66 -7.5 -100.5t-10.5 -61.5t-21.5 -37.5t-33.5 -16t-54 -9.5q-48 -5 -90 -5q-54 0 -91 4q-70 5 -87 28.5t-17 117.5v730h107v-451l50 75 q133 -72 256 -160l-57 -82q-106 75 -249 154v-251q0 -46 4 -55t27 -12q27 -3 59 -3zM329 400v400h107v-400q0 -155 -30.5 -246.5t-99 -148.5t-198.5 -105l-61 90q144 55 202.5 113t72.5 171q-113 -69 -241 -116l-32 99q152 54 280 127v16zM72 662l83 61q94 -117 160 -228 l-80 -58q-69 107 -163 225z" />
<glyph unicode="&#x5148;" d="M86 503q94 136 142 308l97 -25q-11 -48 -27 -91h162v120h110v-120h310v-90h-310v-170h372v-93h-272v-272q0 -35 12.5 -42.5t79.5 -7.5q54 0 67 11q19 14 25 89q2 21 6 78l97 -8q-4 -69 -7 -106.5t-13 -71t-20 -47t-34.5 -24t-50.5 -12t-74 -1.5q-131 0 -163.5 19.5 t-32.5 100.5v294h-105q-35 -335 -368 -427l-43 92q133 37 213 124t94 211h-295v93h402v170h-197q-34 -75 -84 -151z" />
<glyph unicode="&#x5149;" d="M882 723q-51 -118 -138 -246l-90 46q82 122 134 242zM209 761q75 -115 138 -238l-91 -46q-70 133 -137 237zM845 250l105 -8q-2 -67 -3.5 -100t-7 -73t-8.5 -55t-17.5 -34.5t-24 -23.5t-36.5 -10t-48 -6h-65t-71 1.5t-49 6t-33 11t-18 20.5t-9 29.5t-2 41.5v308h-131 q-7 -168 -80 -266t-240 -167l-56 85q140 57 199.5 133.5t68.5 214.5h-249v90h375v362h110v-362h375v-90h-265v-288q0 -29 11.5 -34.5t75.5 -5.5q51 0 63 11q20 16 25 98q2 28 5 111z" />
<glyph unicode="&#x514d;" d="M77 412l-45 95q175 140 256 328l102 -17q-20 -48 -22 -53h342v-85q-40 -48 -89 -92h277v-338h-250v-208q0 -23 5 -28t32 -6h40h42q19 1 27.5 3.5t17 8.5t11.5 25t5.5 43t4.5 72l102 -10q-3 -61 -6 -93.5t-11 -62.5t-16 -41t-29 -20.5t-41.5 -11t-61.5 -2.5q-18 -1 -55 -1 q-35 0 -53 1q-81 3 -101.5 15.5t-20.5 57.5v258h-86q-11 -130 -104 -218t-263 -129l-30 92q274 67 290 255h-97v-60h-105v278q-39 -35 -68 -56zM579 680h-257q-28 -46 -65 -92h222q54 44 100 92zM572 500v-165h220v165h-220zM470 500h-220v-165h220v165z" />
<glyph unicode="&#x5150;" d="M110 250v542h105v-542h-105zM562 258h108v-197q0 -29 13 -35t79 -6h27t20 3t15.5 4.5t9.5 11t7 16.5t4 26.5t3.5 35t1.5 48.5l105 -8q-3 -62 -5 -93.5t-12 -62t-19 -41t-36 -19.5t-53 -10t-80 -1q-46 0 -74 1t-51 6t-34 11t-18.5 20t-9 30t-1.5 43v217zM330 260l100 -5 q-8 -134 -89.5 -215.5t-249.5 -121.5l-45 87q147 35 210 92.5t74 162.5zM432 580h350v118h-350v-118zM432 498v-120h350v120h-350zM432 292h-102v493h560v-493h-458z" />
<glyph unicode="&#x515a;" d="M312 312h376v138h-376v-138zM445 228q-27 -249 -359 -318l-45 90q139 28 210.5 83.5t86.5 144.5h-26h-107v307h590v-307h-130v-173q0 -29 12.5 -34.5t84.5 -5.5q56 0 69 10q20 14 25 86q1 22 4 84l100 -8q-2 -58 -3.5 -86.5t-7 -63t-8.5 -48t-17.5 -30t-24 -20.5 t-36.5 -9t-48 -5h-65q-55 0 -86.5 2.5t-55 8t-33 19.5t-13.5 31t-4 49v193h-113zM768 682h167v-264h-105v174h-660v-174h-105v264h170q-35 60 -63 100l94 24q40 -57 77 -124h102v140h110v-140h106q38 59 72 128l92 -25q-26 -54 -57 -103z" />
<glyph unicode="&#x5165;" d="M207 775h381v-90q0 -228 98.5 -412.5t265.5 -275.5l-57 -82q-121 61 -217.5 190.5t-146.5 293.5q-61 -157 -174 -286.5t-252 -197.5l-57 82q190 99 310 281.5t120 366.5v35h-271v95z" />
<glyph unicode="&#x5168;" d="M70 28h375v180h-285v87h285v147h-240v72q-86 -52 -132 -76l-45 89q224 122 406 285h132q182 -163 406 -285l-45 -89q-67 36 -129 75v-71h-243v-147h285v-87h-285v-180h375v-90h-860v90zM771 530q-142 92 -271 212q-129 -120 -271 -212h542z" />
<glyph unicode="&#x516b;" d="M31 -17q193 259 252 588l108 -21q-61 -348 -261 -620zM969 -17l-99 -53q-219 316 -260 725h-320v95h420q13 -210 80 -407.5t179 -359.5z" />
<glyph unicode="&#x516c;" d="M634 292l92 41q124 -190 223 -380l-93 -41l-51 94q-364 -48 -720 -61l-5 93q74 2 148 6q94 216 167 465l105 -30q-69 -233 -151 -427q192 13 407 38zM578 740l96 35q107 -211 289 -366l-74 -75q-202 174 -311 406zM422 740q-109 -232 -311 -406l-74 75q182 155 289 366z " />
<glyph unicode="&#x516d;" d="M832 -67q-105 248 -233 467l95 47q135 -228 240 -473zM285 444l105 -34q-79 -257 -226 -473l-98 51q142 210 219 456zM70 640h375v175h110v-175h375v-95h-860v95z" />
<glyph unicode="&#x5171;" d="M565 136l68 71q164 -102 296 -231l-73 -72q-119 120 -291 232zM73 -13q182 99 296 221l72 -66q-59 -65 -140 -127.5t-166 -106.5zM748 805v-147h162v-90h-162v-236h207v-92h-910v92h207v236h-162v90h162v147h108v-147h280v147h108zM360 568v-236h280v236h-280z" />
<glyph unicode="&#x5175;" d="M639 152q171 -77 294 -168l-59 -83q-128 96 -311 182l42 69h-205l44 -60q-137 -111 -327 -184l-49 87q180 68 300 157h-323v93h145v403v92q183 0 355.5 19.5t275.5 50.5l28 -95q-188 -55 -549 -66v-64h608v-90h-149v-250h196v-93h-316zM651 245v250h-351v-250h351z" />
<glyph unicode="&#x5177;" d="M55 122v88h890v-88h-314q178 -62 307 -135l-48 -86q-137 81 -320 149l38 72h-224l47 -63q-118 -90 -329 -151l-39 89q183 54 297 125h-305zM748 705h-496v-70h496v70zM252 560v-72h496v72h-496zM252 412v-74h496v74h-496zM252 258h-107v532h710v-532h-603z" />
<glyph unicode="&#x5178;" d="M580 60l41 79q189 -67 327 -152l-48 -86q-139 88 -320 159zM53 -3q198 62 313 146l55 -74q-54 -44 -142.5 -87.5t-186.5 -73.5zM965 152h-930v90h65v476h238v104h94v-104h136v104h94v-104h238v-476h65v-90zM662 630v-145h136v145h-136zM568 630h-136v-145h136v145z M338 630h-136v-145h136v145zM202 400v-158h136v158h-136zM432 242h136v158h-136v-158zM662 242h136v158h-136v-158z" />
<glyph unicode="&#x5185;" d="M442 825h108v-107h368v-638q0 -99 -23 -122t-120 -23q-17 0 -160 5l-5 92q107 -4 145 -4q41 0 48 6.5t7 45.5v165l-76 -51q-121 156 -243 241q-78 -142 -254 -234l-47 59v-328h-108v786h360v107zM528 524q158 -106 282 -262v363h-263q-5 -55 -19 -101zM190 294 q119 60 179 139t71 192h-250v-331z" />
<glyph unicode="&#x5186;" d="M92 772h816v-684q0 -36 -1.5 -57.5t-7.5 -39.5t-14 -26t-26 -14t-38.5 -7.5t-55.5 -1.5q-31 0 -160 6l-5 92q133 -5 145 -5q40 0 47.5 7t7.5 46v232h-600v-382h-108v834zM552 680v-270h248v270h-248zM448 680h-248v-270h248v270z" />
<glyph unicode="&#x518a;" d="M810 -62q-48 0 -113 5l-4 92q50 -5 65 -5q22 0 26 6.5t4 45.5v243h-126v-363h-100v363h-124v-363h-100v363h-126v-393h-104v393h-80v90h80v363h784v-363h80v-90h-80v-243q0 -96 -14 -120t-68 -24zM438 685v-270h124v270h-124zM338 685h-126v-270h126v270zM788 415v270 h-126v-270h126z" />
<glyph unicode="&#x518d;" d="M768 365h-228v-110h228v110zM540 620h332v-365h98v-87h-98v-118q0 -35 -1 -54t-6.5 -36.5t-13 -24.5t-25.5 -12.5t-38 -6.5t-56 -1q-22 0 -135 5l-4 90q107 -5 122 -5q38 0 45.5 7t7.5 40v116h-536v-258h-104v258h-98v87h98v365h310v75h-373v85h870v-85h-395v-75z M540 538v-96h228v96h-228zM438 538h-206v-96h206v96zM232 365v-110h206v110h-206z" />
<glyph unicode="&#x5197;" d="M698 580v-510q0 -30 10.5 -35t73.5 -5q22 0 32.5 3t20.5 10.5t13.5 31t6.5 54.5t5 91l100 -8q-3 -71 -5.5 -110.5t-12 -74t-19 -49t-33.5 -25t-48.5 -12t-71.5 -1.5q-82 0 -118 8.5t-49 30t-13 71.5v445h-200v-70q0 -195 -66 -307.5t-225 -192.5l-58 85 q139 69 191.5 161.5t52.5 268.5v140h413zM915 770v-282h-100v194h-630v-204h-100v292h830z" />
<glyph unicode="&#x5199;" d="M40 148v90h634q1 12 4.5 45.5t5.5 54.5h-391l-21 -60l-108 18q67 191 111 396h-97v-150h-100v238h844v-228h-87v-37h-489q-13 -54 -27 -97h482q-7 -99 -15 -180h174v-90l-185 -1q-11 -76 -24 -119.5t-36 -66t-48.5 -28t-71.5 -5.5q-115 0 -255 7l-2 90q147 -7 232 -7 q31 0 45 6t26.5 34t21.5 90h-623zM367 600h455v92h-435q-5 -24 -20 -92z" />
<glyph unicode="&#x51ac;" d="M196 10l18 92q303 -30 599 -113l-30 -86q-290 73 -587 107zM413 440q-83 54 -162 126q-76 -63 -162 -112l-42 90q201 120 310 288l109 -19q-23 -38 -43 -65h399v-88q-96 -130 -228 -220q142 -65 374 -128l-28 -92q-264 74 -434 165q-67 -36 -148 -70q183 -47 351 -116 l-42 -84q-171 71 -359 118l27 73q-118 -47 -272 -88l-23 94q233 62 373 128zM502 488q116 70 195 172h-346l-30 -31q79 -82 181 -141z" />
<glyph unicode="&#x51b7;" d="M193 510q-67 109 -157 216l83 55q81 -97 151 -207q154 104 282 244h106q142 -150 320 -264l-38 -88q-58 35 -115 78v-54h-440v48q-62 -48 -123 -86l-33 81zM280 390h642v-258q0 -99 -18 -121.5t-97 -22.5q-59 0 -122 5l-5 92q77 -5 108 -5q24 0 28 6.5t4 45.5v166h-218 v-386h-107v386h-202q-64 -204 -169 -359l-88 54q104 157 167 344l77 -29v82zM778 580q-93 75 -173 162q-71 -81 -167 -162h340z" />
<glyph unicode="&#x51c6;" d="M288 275q-66 -197 -164 -337l-88 58q98 146 162 326zM273 581l-82 -66q-78 120 -152 206l83 63q88 -103 151 -203zM780 690h165v-90h-187v-125h172v-85h-172v-128h172v-84h-172v-130h202v-88h-492v-55h-106v568q-31 -56 -77 -111l-69 89q142 154 214 380l104 -16 q-17 -57 -44 -125h182q26 58 51 142l101 -16q-18 -63 -44 -126zM652 178h-184v-130h184v130zM652 262v128h-184v-128h184zM652 475v125h-184v-125h184z" />
<glyph unicode="&#x51e0;" d="M735 775v-700q0 -33 8.5 -39t54.5 -6q41 0 53 12q19 19 24 125q2 39 5 143l100 -10q-2 -63 -3 -98t-4.5 -78t-5.5 -62.5t-10 -45t-12.5 -34.5t-19 -22t-24.5 -15t-33.5 -6t-40.5 -4h-52q-99 0 -124.5 19.5t-25.5 95.5v630h-285v-90q0 -262 -57.5 -416.5t-187.5 -258.5 l-62 97q105 88 151 222t46 371v170h505z" />
<glyph unicode="&#x51e6;" d="M31 350q93 180 124 463l97 -10q-6 -65 -16 -115h217q-7 -308 -115 -507q60 -88 160 -124.5t264 -36.5h196l-6 -92h-214q-168 0 -275.5 38t-178.5 130q-80 -107 -199 -185l-53 81q121 80 195 196q-41 84 -72 200q-24 -63 -56 -120zM828 770v-530q0 -30 2 -35t15 -5 q12 0 15 12q6 19 10 178l85 -8q-1 -55 -2 -88t-4.5 -65.5t-6 -48.5t-10.5 -32t-15 -21.5t-22 -10.5t-28 -5.5t-37 -0.5q-67 0 -86 19.5t-19 90.5v458h-110v-126q0 -184 -31.5 -290.5t-97.5 -172.5l-72 80q54 54 76 138.5t22 257.5v205h316zM282 292q57 135 66 303h-130 q-12 -58 -32 -120l46 16q22 -121 50 -199z" />
<glyph unicode="&#x51f6;" d="M180 -32v-53h-105v860h105v-717h645v717h105v-860h-105v53h-645zM200 620l64 76q127 -84 248 -193q97 143 165 299l94 -40q-67 -168 -179 -333q97 -96 211 -223l-74 -70q-106 120 -198 210q-124 -159 -264 -267l-73 73q138 109 259 268q-125 115 -253 200z" />
<glyph unicode="&#x51fa;" d="M140 730h105v-245h200v330h110v-330h200v245h105v-335h-305v-327h245v252h105v-405h-105v60h-600v-60h-105v405h105v-252h245v327h-305v335z" />
<glyph unicode="&#x5200;" d="M102 750h786v-165q0 -146 -3 -245t-12.5 -172.5t-21.5 -114.5t-35 -65.5t-48.5 -32t-65.5 -7.5q-66 0 -205 12l-2 100q117 -12 187 -12q36 0 54 27.5t29.5 132.5t11.5 314v133h-326q-6 -199 -38 -332.5t-90.5 -223t-159.5 -170.5l-73 80q89 71 140 149t78 196.5t33 300.5 h-239v95z" />
<glyph unicode="&#x5203;" d="M143 469l54 87q78 -37 161 -87q11 91 14 191h-270v95h786q0 -145 -2 -252.5t-7 -193.5t-11 -144t-18.5 -100t-24.5 -65.5t-32.5 -37t-40.5 -17t-50 -3.5q-54 0 -205 13l-2 100q118 -13 177 -13q30 0 46.5 17t31.5 77.5t21 186.5t6 337h-296q-5 -149 -22 -255 q90 -61 202 -152l-67 -83q-90 72 -160 123q-35 -120 -99.5 -206t-171.5 -163l-74 80q104 73 162.5 154t87.5 201q-99 63 -196 110z" />
<glyph unicode="&#x5206;" d="M477 -67l-2 94q93 -6 151 -6q30 0 45.5 20t24.5 91t9 213v55h-253q-15 -184 -83 -298t-207 -194l-67 84q119 64 178 158.5t74 249.5h-135v65q-52 -59 -114 -111l-74 75q183 155 289 366l96 -35q-66 -144 -172 -268h526q-106 124 -172 268l96 35q106 -211 289 -366 l-74 -75q-46 40 -90 84v-48q0 -130 -5 -211t-15 -134.5t-32 -78t-48 -33t-72 -8.5q-66 0 -163 8z" />
<glyph unicode="&#x5207;" d="M440 357q-2 -70 -4.5 -110t-11 -74.5t-17.5 -48.5t-31 -25t-45 -12.5t-66 -1.5q-104 0 -127 19.5t-23 108.5v227l-86 -17l-10 92l96 20v260h103v-240l241 50l10 -92l-251 -52v-242q0 -35 6.5 -41t45.5 -6q44 0 55 11q17 16 20 105q1 24 2 80zM586 662h-218v93h574v-137 q0 -135 -3 -232.5t-8 -172t-16 -121.5t-23 -78.5t-33 -46t-42.5 -20t-54.5 -5.5q-41 0 -155 13l-1 97q85 -12 136 -12q38 0 56 29.5t29 141t11 341.5v110h-152q-8 -295 -74.5 -455t-228.5 -284l-78 68q102 74 158.5 154.5t86.5 203t36 313.5z" />
<glyph unicode="&#x520a;" d="M230 682h-162v93h460v-93h-190v-242h200v-92h-200v-430h-108v430h-182v92h182v242zM822 795h106v-730q0 -98 -21 -121.5t-109 -23.5q-44 0 -143 5l-5 97q96 -4 128 -4q30 0 37 7.5t7 44.5v725zM585 125v630h103v-630h-103z" />
<glyph unicode="&#x5211;" d="M820 795h105v-730q0 -98 -21 -121.5t-109 -23.5q-47 0 -133 5l-4 97q83 -4 117 -4q31 0 38 7.5t7 44.5v725zM612 125v630h100v-630h-100zM163 445q2 94 2 157v83h-100v90h503v-90h-83v-240h83v-90h-83v-430h-103v430h-123q-9 -177 -39.5 -271t-94.5 -168l-78 80 q53 59 78 134t34 225h-104v90h108zM263 445h119v240h-117v-83q0 -61 -2 -157z" />
<glyph unicode="&#x5217;" d="M60 685v90h492v-90h-208q-12 -55 -30 -107h208v-86q-16 -191 -120 -344.5t-263 -229.5l-62 77q154 77 249 222q-52 41 -142 103q-40 -58 -86 -107l-67 75q71 79 124.5 183.5t79.5 213.5h-175zM822 795h106v-730q0 -98 -21 -121.5t-109 -23.5q-47 0 -133 5l-5 97 q83 -4 118 -4q30 0 37 7.5t7 44.5v725zM598 125v630h102v-630h-102zM373 305q40 88 53 187h-145q-23 -48 -45 -89q74 -49 137 -98z" />
<glyph unicode="&#x521d;" d="M258 660h114v-95q-30 -90 -82 -177l33 -37q47 59 85 133l76 -44q-42 -81 -102 -159q26 -32 49 -63l-70 -63q-35 47 -103 129v-374h-103v324q-43 -45 -106 -87l-34 107q177 122 251 311h-226v95h115v150h103v-150zM584 662h-189v93h545v-137q0 -158 -3 -265.5 t-12.5 -184.5t-21.5 -120.5t-34.5 -67.5t-46 -31t-62.5 -7q-41 0 -156 13l-1 97q85 -12 137 -12q38 0 56 29.5t28.5 141t10.5 341.5v110h-146q-9 -295 -77.5 -456t-228.5 -283l-80 68q101 74 158 154t87.5 203.5t35.5 313.5z" />
<glyph unicode="&#x5224;" d="M557 232v-92h-196v-230h-105v230h-214v92h214v136h-191v90h191v352h105v-352h176v-90h-176v-136h196zM568 728q-42 -129 -102 -241l-88 38q59 111 98 237zM138 757q61 -128 101 -232l-92 -37q-51 129 -101 232zM828 795h104v-730q0 -53 -3 -78.5t-18 -42.5t-38 -20.5 t-71 -3.5q-46 0 -132 5l-5 97q83 -4 117 -4q31 0 38.5 7.5t7.5 44.5v725zM600 125v630h102v-630h-102z" />
<glyph unicode="&#x5225;" d="M362 18q16 0 24.5 16t13.5 73.5t5 170.5h-153q-31 -241 -156 -369l-67 79q129 137 136 467h-95v325h438v-325h-243q-2 -58 -4 -87h247q0 -128 -3.5 -206.5t-9 -129.5t-19.5 -74t-30 -30.5t-44 -7.5q-63 0 -150 5l-4 97q63 -4 114 -4zM410 538v154h-238v-154h238zM822 795 h106v-730q0 -98 -21 -121.5t-109 -23.5q-47 0 -133 5l-5 97q83 -4 118 -4q30 0 37 7.5t7 44.5v725zM592 125v630h103v-630h-103z" />
<glyph unicode="&#x5229;" d="M822 795h106v-730q0 -98 -21 -121.5t-109 -23.5q-44 0 -143 5l-5 97q96 -4 128 -4q30 0 37 7.5t7 44.5v725zM572 125v630h103v-630h-103zM518 530v-90h-157l168 -255l-79 -61l-122 217v-431h-100v371q-54 -135 -144 -239l-58 89q120 138 172 309h-153v90h183v151 q-73 -8 -163 -13l-8 84q220 14 427 58l27 -82q-92 -21 -183 -34v-164h190z" />
<glyph unicode="&#x5236;" d="M446 75q14 0 17 4.5t3 30.5v142h-100v-342h-103v342h-97v-272h-98v358h195v90h-220v87h220v97h-95q-14 -46 -33 -87l-96 30q48 101 64 236l98 -9q-5 -44 -12 -84h74v112h103v-112h195v-86h-195v-97h217v-87h-217v-90h192v-238q0 -80 -12.5 -99t-64.5 -19q-20 0 -83 6 l-4 92q45 -5 52 -5zM822 795h103v-730q0 -98 -21 -121.5t-109 -23.5q-44 0 -130 5l-5 97q83 -4 120 -4q30 0 36 7t6 45v725zM632 125v630h98v-630h-98z" />
<glyph unicode="&#x5237;" d="M815 795h105v-730q0 -98 -21 -121.5t-109 -23.5q-44 0 -130 5l-5 97q83 -4 117 -4q31 0 37 7t6 45v725zM622 125v630h103v-630h-103zM408 79q36 -4 46 -4q11 0 13.5 7.5t2.5 45.5v180h-62v-229zM408 -13v-87h-103v408h-55v-330h-92v163q-29 -137 -68 -210l-67 91 q72 171 72 478v285h470v-293h-157v-94h157v-270q0 -70 -5.5 -99t-18.5 -38t-46 -9q-2 0 -87 5zM190 398h115v94h-113q0 -63 -2 -94zM198 575h264v123h-264v-123z" />
<glyph unicode="&#x5238;" d="M50 362v90h255q31 44 57 93h-277v90h127q-43 78 -76 127l96 31q51 -80 92 -158h76q31 91 43 188l105 -6q-10 -94 -38 -182h152q50 84 84 160l96 -28q-34 -72 -69 -132h142v-90h-264q24 -49 54 -93h245v-90h-169q79 -76 179 -128l-41 -98q-67 37 -127 84q-2 -103 -9 -161 t-28.5 -89t-49 -39.5t-80.5 -8.5q-47 0 -153 6l-2 89q102 -5 138 -5q33 0 47.5 11.5t21.5 50.5t8 124h-202q-72 -215 -332 -293l-48 82q215 64 276 211h-149v32q-69 -52 -150 -93l-40 97q105 52 186 128h-176zM651 362h-284q-31 -37 -75 -80h429q-39 41 -70 80zM591 452 q-28 49 -47 93h-67q-21 -48 -48 -93h162z" />
<glyph unicode="&#x523b;" d="M50 22q156 48 283 148.5t204 234.5l85 -53q-64 -112 -160 -203q84 -55 160 -151l-76 -70q-70 94 -157 158q-142 -108 -309 -156zM68 494l59 70l55 -51q41 53 79 115h-211v90h220v102h108v-102h214v-90h-221q-55 -100 -122 -180l63 -64q93 88 155 206l87 -48 q-75 -145 -197.5 -251t-274.5 -158l-33 89q99 36 192 102q-95 103 -173 170zM832 795h103v-730q0 -98 -21 -121.5t-109 -23.5q-44 0 -130 5l-5 97q83 -4 120 -4q30 0 36 7t6 45v725zM632 125v630h100v-630h-100z" />
<glyph unicode="&#x5247;" d="M325 83l73 64q102 -89 163 -171l-75 -62q-66 87 -161 169zM37 -26q105 83 161 174l79 -53q-68 -114 -167 -187zM815 795h105v-730q0 -98 -21 -121.5t-109 -23.5q-47 0 -133 5l-4 97q83 -4 117 -4q31 0 38 7.5t7 44.5v725zM595 125v630h100v-630h-100zM188 600h227v95 h-227v-95zM188 520v-95h227v95h-227zM188 345v-95h227v95h-227zM188 160h-103v625h427v-625h-324z" />
<glyph unicode="&#x524a;" d="M820 795h102v-730q0 -53 -3 -78.5t-18 -42.5t-38 -20.5t-71 -3.5q-44 0 -130 5l-4 97q103 -5 120 -5q30 0 36 7.5t6 45.5v725zM625 125v630h100v-630h-100zM580 763q-33 -93 -88 -211l-86 36q50 104 84 207zM137 790q46 -102 85 -203l-87 -34q-47 120 -84 202zM82 -80 v615h180v270h103v-270h177v-475q0 -37 -0.5 -56t-5.5 -37.5t-10.5 -25t-21.5 -12.5t-33 -6.5t-49 -0.5q-28 0 -112 6l-2 89q98 -5 100 -5q25 0 29.5 7t4.5 46v45h-257v-190h-103zM185 362h257v86h-257v-86zM185 282v-92h257v92h-257z" />
<glyph unicode="&#x524d;" d="M802 585h106v-520q0 -98 -21.5 -121.5t-111.5 -23.5q-44 0 -130 5l-5 97q83 -4 120 -4q30 0 36 7t6 45v515zM582 105v455h103v-455h-103zM362 15q26 0 31 7t5 46v62h-196v-210h-104v655h402v-515q0 -37 -0.5 -56t-5.5 -37.5t-11 -25t-22 -12.5t-33 -6.5t-50 -0.5 q-24 0 -93 6l-2 92q59 -5 79 -5zM50 632v88h248q-18 36 -52 95l101 23q35 -58 64 -118h182q31 54 60 117l104 -19q-21 -47 -49 -98h242v-88h-900zM202 392h196v96h-196v-96zM202 310v-98h196v98h-196z" />
<glyph unicode="&#x526f;" d="M828 795h104v-730q0 -53 -3 -78.5t-18 -42.5t-38 -20.5t-71 -3.5q-44 0 -130 5l-4 97q83 -4 117 -4q30 0 36.5 7.5t6.5 44.5v725zM635 125v630h103v-630h-103zM62 698v87h533v-87h-533zM172 -45v-40h-104v443h517v-443h-103v40h-310zM172 192h106v80h-106v-80zM172 118 v-83h106v83h-106zM378 192h104v80h-104v-80zM378 118v-83h104v83h-104zM205 405h-105v245h452v-245h-347zM205 480h245v90h-245v-90z" />
<glyph unicode="&#x5272;" d="M445 48v87h-245v-87h245zM375 355h225v-85h-555v85h225v53h-182v80h182v50h-168v42h-50v175h216v75h110v-75h214v-175h-50v-42h-167v-50h183v-80h-183v-53zM825 795h103v-730q0 -98 -21 -121.5t-107 -23.5q-44 0 -130 5l-5 97q83 -4 117 -4q31 0 37 7t6 45v725zM635 125 v630h100v-630h-100zM200 -40v-45h-105v307h455v-307h-105v45h-245zM150 620h120v48h-120v-48zM375 668v-48h120v48h-120z" />
<glyph unicode="&#x5275;" d="M470 30v98h-220v-98h220zM275 802h116q97 -74 221 -135l-42 -85q-23 12 -88 49v-33h-264v34q-43 -35 -96 -70h440v-312h-367q-1 -7 -2.5 -22t-2.5 -23h382v-293h-102v40h-220v-40h-100v183q-22 -93 -63 -155l-71 77q43 75 62.5 169t19.5 232v129l-55 -34l-21 104 q140 77 253 185zM832 795h106v-730q0 -98 -21 -121.5t-109 -23.5q-45 0 -131 5l-4 97q83 -4 117 -4q30 0 36 7t6 45v725zM630 125v630h102v-630h-102zM200 440h258v45h-258v-45zM200 370v-2q0 -29 -1 -43h259v45h-258zM265 670h157q-48 33 -87 64q-22 -22 -70 -64z" />
<glyph unicode="&#x5287;" d="M835 795h103v-730q0 -98 -21 -121.5t-107 -23.5q-44 0 -130 5l-5 97q83 -4 117 -4q31 0 37 7t6 45v725zM645 125v630h100v-630h-100zM482 146q70 -65 156 -109l-40 -85q-68 41 -131 101q0 -3 0.5 -8t0.5 -7q0 -71 -18.5 -94.5t-77.5 -23.5q-24 0 -102 3l-6 71 q-51 -25 -102 -44l-29 65q143 49 232 116q-4 14 -12 32q-74 -51 -181 -90l-23 50q-15 -104 -52 -202l-79 88q28 89 39 187.5t11 288.5v185h170v165h104v-45h220v-78h-220v-40h258v-82q-22 -49 -50 -88l40 -5q-1 -24 -2 -36.5t-5.5 -27t-7.5 -20t-15.5 -13t-23 -9t-35.5 -4 t-46.5 -2.5h-62.5q-55 0 -80 1.5t-47 4t-28 12.5t-9 21t-3 36l-60 -9v-39v-47h425v-70h-46l60 -41q-55 -63 -122 -108zM430 211q49 34 94 84h-139l-10 -8q34 -36 55 -76zM321 215q-8 10 -22 26q-53 -27 -117 -51l-22 46q-3 -51 -9 -99q100 34 170 78zM374 60 q-35 -26 -90 -56q11 0 30.5 -0.5t29.5 -1.5q19 0 24.5 8.5t5.5 49.5zM274 295h-111q0 -7 -0.5 -21.5t-1.5 -21.5q63 20 113 43zM463 539q12 17 32 51h-175v-44l139 21zM466 515l3 -17l-149 -23v-14q0 -11 9 -12.5t65 -1.5q72 0 85.5 7.5t15.5 49.5zM165 522l60 9v59h-60v-68 z" />
<glyph unicode="&#x529b;" d="M366 822h110q0 -84 -3 -157h415q0 -169 -3.5 -284.5t-13 -198t-22 -128.5t-36 -72t-47.5 -33t-64 -7q-54 0 -205 13l-2 100q132 -13 180 -13q28 0 44.5 16.5t30.5 70t20 160t7 281.5h-309q-19 -245 -89 -388t-218 -258l-74 80q131 100 192.5 223t78.5 343h-266v95h271 q3 72 3 157z" />
<glyph unicode="&#x529f;" d="M792 -68q-54 0 -182 11l-2 94q105 -9 157 -9q15 0 26 10t21 40.5t16.5 84t10 143.5t3.5 216h-196q-12 -171 -47 -283.5t-92.5 -185t-155.5 -140.5l-79 75q90 59 141.5 121t83.5 161t44 252h-146v90h151q4 80 4 200h105q0 -119 -4 -200h297q0 -141 -2.5 -240.5 t-6.5 -175.5t-13.5 -122t-19.5 -76.5t-29 -43.5t-37 -17.5t-48 -4.5zM435 166q-149 -61 -389 -106l-9 92q62 12 143 31v455h-132v90h377v-90h-140v-428q82 23 140 47z" />
<glyph unicode="&#x52a0;" d="M214 -47l-3 99q78 -10 127 -10q21 0 32.5 28.5t19 135.5t7.5 312v52h-122q-10 -252 -49.5 -393.5t-124.5 -252.5l-80 82q72 96 105.5 214.5t43.5 349.5h-128v95h131q2 96 2 157h105q0 -59 -2 -157h224v-85q0 -223 -5.5 -348.5t-23 -191t-39.5 -82t-64 -16.5 q-52 0 -156 11zM928 740v-802h-106v60h-164v-60h-103v802h373zM658 88h164v560h-164v-560z" />
<glyph unicode="&#x52a9;" d="M785 28q14 0 21.5 7t15.5 33t11.5 79.5t6 144.5t2.5 230h-137q-13 -227 -57 -363t-134 -245l-94 51q39 44 72 98q-219 -79 -447 -122l-11 89q8 1 26 4.5t28 5.5v720h357v-624l48 16l10 -69q79 146 97 439h-125v90h129q4 122 4 200h104q0 -139 -3 -200h239 q0 -459 -21 -572q-15 -84 -54 -100q-18 -8 -61 -8q-44 0 -152 11l-2 94q86 -9 127 -9zM190 64q58 13 158 42v116h-158v-158zM190 535h158v140h-158v-140zM190 452v-147h158v147h-158z" />
<glyph unicode="&#x52aa;" d="M516 624l83 49q49 -78 114 -138q67 65 108 147h-321v-30q-27 -97 -88 -174q33 -19 83 -51l-45 -69l72 -3l-21 50q73 28 137 70q-72 68 -122 149zM55 652v88h135q12 31 28 81l95 -8q-12 -44 -22 -73h202v30h435v-88q-48 -124 -137 -211q88 -61 184 -99l-36 -85 q-121 46 -223 121q-79 -55 -171 -91q-1 -12 -5 -29h353q-5 -166 -21 -242t-48 -100t-102 -24q-71 0 -212 8l-2 87q138 -7 187 -7q37 0 53 12.5t25 51.5t14 128h-271q-43 -110 -138.5 -180.5t-261.5 -113.5l-45 89q140 36 217 83t113 122h-296v69q-18 -7 -32 -11l-32 85 q131 42 217 110q-43 22 -95 42q-15 -20 -34 -41l-65 65q51 58 87 131h-96zM328 521q52 63 72 131h-144q-18 -38 -43 -82q58 -22 115 -49zM346 408q-79 -72 -197 -120h281q5 19 11 59q-68 45 -95 61z" />
<glyph unicode="&#x52b4;" d="M680 20q36 0 52 16t25.5 74t14.5 192h-268q-25 -144 -121 -239.5t-269 -149.5l-46 93q148 46 225.5 116t99.5 180h-278v90h287v18v120h110v-120v-18h371q-3 -129 -9.5 -209t-17 -133.5t-31.5 -78.5t-46 -34t-67 -9q-89 0 -213 10l-3 92q110 -10 184 -10zM818 562h-636 v-144h-102v232h155q-37 74 -72 130l94 38q53 -87 90 -168h124q-34 70 -75 140l93 38q49 -78 93 -178h65q62 96 99 172l96 -27q-35 -71 -81 -145h159v-232h-102v144z" />
<glyph unicode="&#x52b9;" d="M131 329l68 67q55 -56 92 -100q34 73 54 158l52 -12q-45 71 -91 127l83 47q90 -116 153 -229l-76 -59l-35 59q-25 -91 -71 -173q60 -74 107 -144l-79 -68q-36 56 -85 122q-96 -131 -225 -208l-53 83q133 85 215 207q-64 77 -109 123zM31 386q95 105 144 228l85 -38 q-55 -142 -161 -252zM330 715h190v-73h90q2 53 2 170h103q0 -64 -2 -170h229q0 -131 -1 -224.5t-4.5 -170.5t-7 -126t-12 -86.5t-16.5 -56t-23 -30t-29 -14t-37 -2.5q-47 0 -155 11l-2 94q83 -9 120 -9q19 0 29 14t18.5 66t12 157.5t3.5 286.5h-129q-14 -248 -62.5 -391 t-147.5 -247l-78 75q89 97 131 218.5t54 344.5h-108v73h-458v90h185v105h105v-105z" />
<glyph unicode="&#x52be;" d="M43 21q135 45 248.5 140t181.5 220l84 -45q-49 -91 -114 -163q37 -31 71 -69q80 149 97 448h-106v70h-165q-54 -97 -113 -172l55 -62q81 87 133 200l82 -46q-67 -143 -176 -248.5t-244 -156.5l-34 84q92 38 171 103q-87 100 -162 168l59 73l51 -49q37 49 71 106h-183v90 h192v108h108v-108h182v-70h83q3 80 3 170h102q0 -90 -3 -170h228q0 -131 -1 -224.5t-4.5 -170.5t-7 -126t-12 -86.5t-16.5 -56t-23 -30t-29 -14t-37 -2.5q-47 0 -155 11l-2 94q81 -9 120 -9q24 0 36 28.5t19 143.5t7 352h-127q-15 -251 -64.5 -394t-147.5 -244l-86 58 q28 30 40 46q-39 49 -80 86q-131 -117 -298 -170z" />
<glyph unicode="&#x52c7;" d="M770 492v63h-218v-63h218zM110 705v85h778v-85q-54 -29 -170 -73h157v-362h-328q-6 -30 -10 -45h381q-3 -103 -11 -161t-29 -91t-49.5 -42t-80.5 -9q-72 0 -213 8l-5 90q128 -8 185 -8q49 0 65 22t21 104h-298q-94 -168 -389 -230l-48 84q242 47 321 146h-312v87h357 q5 16 10 45h-212h-105v362h183l-75 38l57 35h-180zM230 492h218v63h-218v-63zM230 418v-66h218v66h-218zM552 418v-66h218v66h-218zM491 632h16q106 36 193 73h-355z" />
<glyph unicode="&#x52c9;" d="M768 160q23 0 33.5 20.5t17 108t6.5 269.5h-110q-14 -196 -57 -313.5t-130 -210.5l-81 57q75 79 113.5 181t51.5 286h-97v-303h-100v-203q0 -27 9 -32t61 -7q8 0 60 -0.5t60 -0.5q21 0 63 0.5t62 0.5q34 1 49 2t32.5 4t24 9.5t12 17t8.5 28.5q-20 -8 -48 -6 q-58 0 -146 10l-4 92q71 -10 110 -10zM620 812h102q0 -114 -2 -164h210q0 -405 -25 -504l60 -4q-5 -58 -8 -87.5t-14.5 -58.5t-22 -39t-40.5 -19t-59 -10.5t-88 -2.5q-21 0 -64.5 -0.5t-66.5 -0.5q-8 0 -61.5 0.5t-63.5 0.5q-105 4 -136 19.5t-31 59.5v253h-48 q-11 -242 -182 -347l-53 91q128 82 135 256h-82v230l-59 21q97 143 142 328l99 -11q-6 -27 -15 -58h203v-85q-22 -47 -50 -92h102v60h115q3 73 3 164zM341 680h-123q-23 -58 -40 -92h108q28 41 55 92zM182 340h68v160h-68v-160zM345 500v-160h70v160h-70z" />
<glyph unicode="&#x52d5;" d="M50 635h198v49q-120 -8 -178 -9l-5 87q239 10 457 45l13 -89q-77 -13 -179 -24v-59h182v-23h92q2 61 2 200h100q0 -138 -2 -200h218v-64q0 -151 -1.5 -248t-8 -169.5t-13.5 -109t-23 -58.5t-32 -26.5t-45 -4.5q-51 0 -136 11l-1 97q73 -10 107 -10q18 0 26.5 25.5 t14.5 126.5t6 300v40h-116q-12 -232 -47.5 -368t-104.5 -239l-79 49q-229 -32 -450 -41l-5 87q117 5 208 13v52h-190v80h190v45h-76h-100v310h176v45h-198v80zM172 385h76v47h-76v-47zM172 325v-47h76v47h-76zM356 33q72 7 159 17l3 -35q47 84 73 201t35 306h-101v33h-169 v-45h169v-310h-169v-45h169v-80h-169v-42zM356 432v-47h74v47h-74zM356 325v-47h74v47h-74z" />
<glyph unicode="&#x52d9;" d="M477 499l-75 55q106 122 156 273l93 -13q-11 -36 -20 -59h327v-87h-46q-39 -109 -113 -184q73 -41 170 -69l-33 -92q-126 36 -216 97q-36 -25 -85 -47l90 -1q-1 -37 -8 -80h211q0 -126 -5.5 -196.5t-23 -109t-40.5 -48.5t-67 -10q-48 0 -135 7l-4 90q71 -7 109 -7 q24 0 36 12t18 51.5t6 120.5h-127q-72 -210 -293 -289l-54 79q99 39 156.5 88.5t84.5 121.5h-149v90h171q5 35 6 73q-51 -23 -120 -42l-22 62q-40 -106 -96 -193l-63 37v-159q0 -71 -7 -101t-25 -39.5t-61 -9.5q-24 0 -111 5l-6 90q68 -5 82 -5q20 0 24 8t4 50v164 q-58 -110 -135 -198l-50 97q100 109 172 261h-155v93h167q-71 80 -124 131l62 60q57 -56 99 -101q51 52 101 117h-285v88h397v-88q-63 -93 -150 -186l18 -21h145v-72q97 28 166 69q-51 50 -91 117q-39 -61 -76 -100zM721 540q58 52 89 128h-188q39 -77 99 -128zM316 264 q34 54 66 128h-66v-128z" />
<glyph unicode="&#x52dd;" d="M362 378v90h149q21 44 35 87h-174v90h61q-27 60 -54 114l93 36q26 -53 67 -150h33q21 88 28 178l104 -4q-7 -85 -29 -174h92q36 80 61 149l97 -24q-26 -68 -52 -125h77v-90h-161q11 -43 29 -87h150v-90h-108q49 -85 118 -144l-36 -102q-26 21 -50 47q-2 -116 -15.5 -171 t-35.5 -70t-71 -16q-44 0 -123 6l-2 89q70 -5 93 -5q22 0 31 9t13.5 42.5t4.5 111.5h-114q-33 -96 -101 -164t-165 -103l-54 79q171 65 220 188h-108v44q-42 -47 -83 -78l-44 59v-135q0 -70 -6 -99t-20 -37.5t-50 -8.5q-20 0 -95 5l-5 92q55 -5 58 -5q16 0 19 7t3 46v153 h-79q-11 -176 -58 -305l-80 81q25 82 35 177.5t10 273.5v340h268v-547q70 57 124 140h-100zM600 348h100q0 -44 -6 -86h128q-41 58 -68 116h-180q-28 -54 -73 -116h94q5 45 5 86zM716 468q-15 38 -28 87h-38q-15 -45 -33 -87h99zM168 550h74v145h-74v-145zM168 462v-80 q0 -14 -0.5 -39.5t-0.5 -37.5h75v157h-74z" />
<glyph unicode="&#x52e2;" d="M914 515l73 -38q-7 -227 -109 -227q-30 0 -49 24t-31 88l-47 -60q-53 59 -94 99q-39 -83 -113 -134q-2 -23 -6 -45h372q-4 -135 -20 -197.5t-48 -82.5t-102 -20q-71 0 -213 8l-4 90q126 -8 185 -8q48 0 64 21.5t22 101.5h-286q-84 -166 -389 -230l-50 85q248 43 325 145 h-312v87h351q5 24 7 56h92l-45 46l1 -29q-185 -25 -433 -42l-5 84q27 2 56.5 4t64 5t51.5 4v45h-130v47q-15 -6 -33 -12l-23 82q102 31 133 78h-119v78h172v32h-137v75h137v50h106v-50h142v-75h-142v-32h160v-51l57 -4q-2 -42 -5 -60l28 31q18 -10 32 -21q5 36 7 89h-109v88 h110v85h97v-85h175q0 -355 20 -355q8 0 14 130zM478 470v-75h-150v-35q78 7 156 17l1 -25q65 43 93 118q-20 17 -55 40q-12 -12 -34.5 -15.5t-73.5 -3.5q-69 0 -87 4v-25h150zM793 393q-14 102 -15 259h-73q-2 -92 -17 -157q50 -43 105 -102zM237 540h53v7v43h-25 q-8 -23 -28 -50zM222 523q-28 -30 -69 -53h69v53zM449 590h-61v-15q0 -11 3.5 -13t25.5 -2q14 0 19.5 1.5t8.5 7.5t4 21z" />
<glyph unicode="&#x52e4;" d="M250 298v44h-78h-100v236h60v70h-92v87h92v83h103v-83h123v83h102v-83h102v-87h-102v-70h68v34h104q3 91 3 200h100q0 -107 -3 -200h218v-64q0 -151 -1.5 -248t-7.5 -169.5t-13 -109t-23 -58.5t-32 -26.5t-45 -4.5q-53 0 -136 11l-1 97q71 -10 107 -10q17 0 26 25.5 t15 127t6 299.5v40h-116q-12 -232 -47.5 -368t-104.5 -239l-80 49q-228 -32 -452 -41l-5 87q119 5 210 13v62h-175v80h175v50h-192v83h192zM358 33q75 7 157 17l3 -39q48 84 74.5 201.5t36.5 309.5h-99v-180h-95h-77v-44h174v-83h-174v-50h152v-80h-152v-52zM435 418v87h-77 v-87h77zM172 418h78v87h-78v-87zM235 578h123v70h-123v-70z" />
<glyph unicode="&#x52fa;" d="M281 442l85 74q123 -125 228 -278l-88 -68q-97 142 -225 272zM758 -65q-96 0 -243 8l-5 97q131 -8 195 -8q22 0 34.5 16t25 74.5t20.5 174.5t15 315h-520q-73 -140 -174 -233l-77 72q75 73 135 174.5t94 211.5l105 -18q-19 -65 -38 -111h585q-5 -216 -13 -354.5 t-18 -224.5t-29 -127.5t-38.5 -54t-53.5 -12.5z" />
<glyph unicode="&#x5302;" d="M432 182h37.5t27.5 3t21.5 4.5t14 11t10 15.5t5.5 25.5t5 33.5t3 46l103 -12l-6 -69t-8.5 -51t-10 -38.5t-18.5 -24.5t-25.5 -16.5t-39.5 -7t-51 -4.5h-69q-107 0 -149.5 5.5t-55 18.5t-12.5 47v376q-55 -97 -118 -161l-75 72q66 73 119.5 174.5t82.5 210.5l104 -15 q-11 -48 -33 -108h634q-7 -272 -17 -428.5t-30 -237t-42 -101.5t-64 -21q-86 0 -220 8l-5 92q118 -8 178 -8q27 0 41.5 34.5t27.5 167.5t23 401h-565q-16 -35 -33 -65h99v-139q134 38 285 111l46 -87q-165 -80 -331 -121v-117q0 -17 10 -20q13 -5 101 -5z" />
<glyph unicode="&#x5305;" d="M96 384l-75 72q66 73 119.5 174.5t82.5 210.5l104 -15q-11 -46 -29 -98h592q-7 -244 -18.5 -360.5t-32.5 -158.5l91 -25q-5 -47 -8.5 -76t-10.5 -58t-13.5 -44.5t-21 -30t-28 -21t-39 -12.5t-50.5 -8t-66 -4q-112 -5 -205 -5q-81 0 -183 5q-41 2 -62.5 4t-42 9.5t-28 16 t-14 29t-7.5 43t-1 63.5v235h392v142h-340v54q-48 -82 -106 -142zM648 267q56 -2 70 -2q17 0 24.5 7t16 44.5t13 110.5t10.5 211h-521q-18 -40 -39 -78h426v-293zM602 240h-342v-140q0 -54 8.5 -64.5t56.5 -13.5q72 -4 167 -4q91 0 178 4q31 2 44.5 2.5t33 4.5t26 7t17 12.5 t13 19t7.5 29t7 38.5t5 52q-14 -13 -48 -15q-74 0 -170 6z" />
<glyph unicode="&#x5316;" d="M478 798h107v-312q150 77 304 210l64 -75q-184 -159 -368 -244v-289q0 -47 5.5 -56t34.5 -12q34 -3 75 -3q49 0 75 3q36 4 46 17q16 21 22 140q2 31 5 103l102 -10q-3 -64 -5 -103.5t-6 -78.5t-7.5 -59t-12.5 -40t-16.5 -28t-23.5 -16t-31 -10t-40 -5q-44 -5 -106 -5 t-105 4q-80 5 -99.5 29t-19.5 117v723zM298 545v-635h-108v479q-55 -84 -111 -140l-53 97q189 186 259 468l97 -18q-29 -140 -84 -251z" />
<glyph unicode="&#x5317;" d="M743 20q30 0 60 3q26 4 33 16q12 22 18 169q0 25 2 72l97 -10q-3 -85 -5.5 -133.5t-9 -90.5t-12.5 -59.5t-21.5 -32t-30 -18t-43.5 -6.5q-48 -5 -90 -5q-54 0 -91 4q-25 2 -38 4t-27 4.5t-20 10t-11.5 16t-7 26t-2.5 35.5t-1 50v735h110v-314q113 72 237 197l67 -71 q-151 -153 -304 -239v-293q0 -46 4 -55t27 -12q27 -3 59 -3zM298 810h108v-900h-108v214q-120 -48 -229 -79l-25 95q127 34 254 84v281h-240v93h240v212z" />
<glyph unicode="&#x533a;" d="M292 558l66 73q123 -78 239 -178q87 102 162 228l90 -54q-74 -124 -173 -244q108 -100 220 -222l-75 -67q-110 120 -212 216q-142 -149 -309 -249l-70 79q160 91 301 240q-116 100 -239 178zM918 785v-90h-713v-647h723v-90h-723v-48h-107v875h820z" />
<glyph unicode="&#x533b;" d="M221 345v87h300v3v123h-126q-45 -68 -89 -115l-83 48q84 94 138 209h-171v-658h748v-90h-748v-42h-102v880h840v-90h-461q-16 -40 -26 -60h435v-82h-252v-123v-3h292v-87h-275q56 -132 275 -211l-51 -79q-97 32 -172.5 91.5t-117.5 133.5q-46 -73 -125.5 -132.5 t-179.5 -92.5l-51 79q231 80 285 211h-283z" />
<glyph unicode="&#x5341;" d="M45 432h397v383h116v-383h397v-100h-397v-427h-116v427h-397v100z" />
<glyph unicode="&#x5343;" d="M130 730q430 0 734 80l22 -95q-145 -37 -331 -58v-249h395v-98h-395v-400h-110v400h-395v98h395v239q-150 -12 -315 -12v95z" />
<glyph unicode="&#x5347;" d="M955 435v-95h-203v-415h-110v415h-261q-19 -164 -74.5 -257t-168.5 -167l-68 88q90 61 135.5 134t63.5 202h-224v95h233q4 65 4 165v30q-80 -20 -182 -31l-25 93q245 33 448 125l49 -83q-83 -43 -180 -74v-68q0 -85 -3 -157h253v370h110v-370h203z" />
<glyph unicode="&#x5348;" d="M955 355v-93h-375v-352h-110v352h-425v93h425v270h-195q-60 -132 -135 -244l-89 57q123 178 189 388l102 -20q-16 -54 -31 -91h599v-90h-330v-270h375z" />
<glyph unicode="&#x534a;" d="M887 743q-52 -124 -138 -256l-95 39q81 123 134 251zM209 773q73 -115 138 -248l-96 -38q-68 136 -137 247zM554 245h401v-93h-401v-242h-108v242h-401v93h401v135h-371v90h371v340h108v-340h371v-90h-371v-135z" />
<glyph unicode="&#x5352;" d="M945 730v-88h-178q-15 -60 -41 -115q115 -74 225 -179l-63 -75q-99 98 -210 171q-42 -61 -109 -122l-60 72q119 109 157 248h-304q-15 -58 -39 -111q93 -64 168 -135l-60 -73q-76 73 -153 127q-65 -100 -175 -178l-53 80q161 120 208 290h-203v88h390v90h110v-90h390z M445 325h110v-83h405v-90h-405v-244h-110v244h-405v90h405v83z" />
<glyph unicode="&#x5354;" d="M682 425h100q0 -53 -1 -77h167q0 -105 -1 -172t-5.5 -116t-8.5 -73.5t-15 -39t-21 -17t-29 -2.5q-60 0 -128 5l-5 92q43 -5 77 -5q12 0 17 4.5t9.5 28.5t5.5 70.5t1 136.5h-68q-9 -129 -39 -208.5t-87 -140.5l-77 68q48 52 71.5 113t31.5 168h-67v88h72v77zM300 602v-90 h-90v-602h-105v602h-80v90h80v208h105v-208h90zM325 260h-75v88h79q1 24 1 77h27l-54 72q174 57 228 163h-201v90h229q6 36 6 78h105q0 -38 -5 -78h257q0 -75 -1.5 -121t-6.5 -82.5t-11.5 -54t-22 -28.5t-31 -13.5t-44.5 -2.5q-77 0 -173 5l-4 89q79 -4 140 -4q21 0 29 7 t11.5 31t3.5 84h-168q-56 -154 -255 -235h39q0 -29 -2 -77h159q0 -105 -1 -172t-5 -116.5t-8.5 -73.5t-15 -38.5t-21 -17t-29.5 -2.5q-52 0 -120 5l-5 92q43 -5 75 -5q11 0 15.5 3.5t8.5 28.5t5 70t1 138h-63q-9 -129 -39 -208.5t-87 -140.5l-74 68q48 53 71.5 114t31.5 167 z" />
<glyph unicode="&#x5357;" d="M308 465l92 25q34 -89 58 -168h81q41 80 69 169l92 -25q-23 -73 -58 -144h133v-82h-223v-88h216v-82h-216v-145h-104v145h-216v82h216v88h-223v82h134q-20 63 -51 143zM788 -85q-23 0 -136 5l-4 90q108 -5 117 -5q38 0 45.5 7t7.5 46v450h-636v-596h-102v683h368v73h-398 v84h398v73h104v-73h398v-84h-398v-73h368v-535q0 -99 -21 -122t-111 -23z" />
<glyph unicode="&#x5358;" d="M785 488v84h-230v-84h230zM393 795l94 38q51 -84 91 -175h68q52 77 97 169l96 -27q-35 -73 -79 -142h130v-418h-335v-72h410v-90h-410v-173h-110v173h-410v90h410v72h-230h-105v418h121q-35 71 -70 127l93 38q45 -70 89 -165h124q-31 65 -74 137zM445 322v88h-230v-88 h230zM555 322h230v88h-230v-88zM215 488h230v84h-230v-84z" />
<glyph unicode="&#x535a;" d="M574 28l-61 -74q-76 68 -171 134l51 64h-133v86h480v40h-322h-100v337h250v40h-308v85h308v80h107v-80h120l-55 65l85 34q46 -52 83 -99h64v-85h-297v-40h250v-337h-77v-40h124v-86h-124v-102q0 -51 -3 -75t-19 -39.5t-38.5 -18t-72.5 -2.5q-28 0 -133 5l-4 90 q92 -5 114 -5q36 0 42 6t6 41v100h-326q82 -56 160 -124zM285 588v-90h-80v-588h-105v588h-80v90h80v222h105v-222h80zM568 485v57h-150v-57h150zM675 485h147v57h-147v-57zM418 415v-63h150v63h-150zM675 415v-63h147v63h-147z" />
<glyph unicode="&#x5360;" d="M415 405v415h110v-128h395v-92h-395v-195h355v-495h-108v60h-544v-60h-108v495h295zM228 60h544v252h-544v-252z" />
<glyph unicode="&#x5369;" d="M635 190q39 0 46 7t7 45v458h-346v-790h-107v880h560v-550q0 -99 -22 -122t-115 -23q-34 0 -186 5l-4 95q150 -5 167 -5z" />
<glyph unicode="&#x5370;" d="M175 388v-220h277v-90h-277v-90h-107v747q179 23 365 75l26 -90q-143 -40 -284 -63v-179h267v-90h-267zM778 140q38 0 45 6.5t7 45.5v490h-218v-772h-107v862h430v-582q0 -99 -22 -122t-115 -23q-22 0 -106 2l-4 95q72 -2 90 -2z" />
<glyph unicode="&#x5371;" d="M77 412l-45 95q175 140 256 328l102 -17q-7 -20 -17 -43h357v-85q-35 -43 -81 -85h287v-87h-692v-116q0 -159 -32.5 -273t-105.5 -219l-74 85q62 98 85.5 197.5t23.5 272.5q-29 -28 -64 -53zM730 358h-288v-296q0 -37 8 -44t56 -10q60 -3 112 -3q58 0 129 3q25 1 35 1.5 t23 7.5t16.5 12t9.5 25.5t8 38.5t6 60l107 -9q-6 -56 -10 -87.5t-13.5 -59t-18.5 -39.5t-30 -21.5t-42.5 -12t-62.5 -4.5q-90 -5 -167 -5q-64 0 -146 5q-86 6 -105 25t-19 100v397h500q-7 -150 -19 -213.5t-32 -82t-67 -18.5q-62 0 -170 7l-5 85q99 -8 133 -8q19 0 27 8 t14 38t11 100zM508 605q56 49 91 85h-271q-26 -44 -58 -85h238z" />
<glyph unicode="&#x5373;" d="M822 45q-54 0 -115 4l-7 94q62 -3 100 -3q24 0 28 6.5t4 45.5v498h-177v-780h-103v870h383v-590q0 -44 -2 -66.5t-7 -41t-19 -25t-32.5 -9.5t-52.5 -3zM285 235l87 45q89 -135 168 -293l-86 -44q-14 31 -54 102q-175 -59 -363 -86l-13 91l56 9v721h410v-472h-305v-229 q74 16 170 44zM185 585h205v107h-205v-107zM185 505v-113h205v113h-205z" />
<glyph unicode="&#x5375;" d="M365 405v240h100v-255q0 -215 -76.5 -325t-264.5 -170l-56 85q120 38 183.5 87.5t89.5 133.5q-142 -60 -293 -102l-22 93l54 15v528q191 24 376 75l27 -90q-157 -43 -303 -65v-88l66 36q68 -100 119 -212v14zM815 42q-20 0 -110 4l-7 95q60 -3 102 -3q30 0 35 6.5t5 45.5 v97l-67 -36q-52 132 -128 261v-602h-100v862h395v-584q0 -100 -19.5 -123t-105.5 -23zM364 364l-71 -36q-47 107 -113 210v-300q78 25 181 65q3 57 3 61zM645 553l62 35q77 -126 133 -258v352h-195v-129z" />
<glyph unicode="&#x5384;" d="M845 183l107 -11q-5 -59 -9 -92.5t-13.5 -62.5t-19 -41.5t-31.5 -22.5t-44.5 -13t-64.5 -5q-92 -5 -172 -5q-69 0 -151 5q-49 3 -71 7.5t-37.5 22t-18 43t-2.5 80.5v494h535q-4 -114 -9.5 -178.5t-12 -110t-21 -63.5t-30 -24t-45.5 -6q-61 0 -178 10l-4 90 q103 -10 138 -10q15 0 21.5 4t13 25t9.5 60t7 116h-317v-400q0 -46 9 -54.5t60 -12.5q58 -3 114 -3q60 0 132 3q27 2 38 2.5t25 7.5t17.5 12.5t10 27.5t8.5 41t6 64zM108 488v287h830v-90h-726v-267q0 -167 -24 -280t-78 -212l-77 83q43 93 59 194t16 285z" />
<glyph unicode="&#x539a;" d="M545 58v12h-347v85h347v33h71q43 11 89 27h-453v77h630v-77q-79 -35 -150 -60h226v-85h-303v-20q0 -88 -22.5 -109t-117.5 -21q-42 0 -160 5l-5 85q113 -5 148 -5q34 0 40.5 7.5t6.5 45.5zM208 408q0 -311 -103 -492l-77 83q77 166 77 479v307h837v-87h-734v-290z M375 525h403v50h-403v-50zM375 460v-50h403v50h-403zM375 338h-100v314h607v-314h-507z" />
<glyph unicode="&#x539f;" d="M208 412q0 -310 -103 -491l-77 83q77 166 77 478v298h837v-88h-317l-18 -66h275v-392h-234v-170q0 -54 -3 -79.5t-18.5 -42.5t-38.5 -20t-73 -3q-49 0 -123 5l-4 92q90 -5 112 -5q30 0 36 7t6 46v170h-162h-100v392h214q14 44 19 66h-305v-280zM687 157l79 61 q111 -109 195 -234l-80 -58q-86 123 -194 231zM185 -7q116 95 178 223l86 -47q-66 -141 -189 -244zM380 471h398v73h-398v-73zM380 394v-78h398v78h-398z" />
<glyph unicode="&#x53b3;" d="M438 452h150v-72q46 101 78 236l89 -14q-9 -44 -21 -87h221v-85h-44q-19 -206 -82 -317q53 -66 146 -118l-50 -79q-96 52 -154 117q-60 -64 -164 -117l-54 76q108 52 162 119q-45 82 -65 190q-30 -54 -46 -78l-62 43v-358h-100v88q-130 -22 -278 -37l-7 83q12 2 34.5 4.5 t33.5 3.5v320h-33q-4 -293 -100 -459l-74 83q39 83 56.5 193.5t17.5 284.5v236h151q-26 50 -50 87l94 38q36 -57 70 -125h123q-32 60 -54 97l93 38q35 -58 73 -135h102q37 59 72 129l96 -27q-23 -48 -55 -102h138v-86h-753v-170h143v56h-113v77h336v-77h-120v-56zM322 62 q40 5 120 17v49h-120v-66zM322 315h120v55h-120v-55zM322 250v-58h120v58h-120zM773 210q32 81 46 220h-113l-13 -35l35 8q14 -118 45 -193zM542 294q17 26 41 76h-41v-76z" />
<glyph unicode="&#x53bb;" d="M641 252l93 49q114 -166 210 -338l-93 -48l-52 88q-376 -46 -704 -55l-5 92l143 6q72 157 123 309h-301v93h390v167h-320v90h320v107h110v-107h320v-90h-320v-167h390v-93h-474q-49 -148 -116 -302q220 15 393 35z" />
<glyph unicode="&#x53c2;" d="M50 445v85h321q32 35 55 71q-152 -10 -313 -13l-6 84q22 1 66 2.5t66 2.5q47 73 87 153l99 -21q-29 -59 -71 -127q101 5 331 21l-65 69l92 39q121 -124 199 -225l-91 -41l-66 81q-68 -7 -210 -17q-15 -36 -46 -79h452v-85h-229q108 -78 245 -120l-25 -90 q-177 61 -306 160l28 -62q-180 -78 -451 -100l-18 60q-70 -33 -135 -55l-26 89q133 42 240 118h-223zM186 -8q432 35 685 167l38 -81q-260 -141 -697 -175zM186 157q364 30 574 132l35 -78q-221 -114 -583 -143zM578 445h-156q-69 -64 -163 -118q218 24 362 80 q-25 20 -43 38z" />
<glyph unicode="&#x53c8;" d="M200 596l97 33q73 -209 209 -345q165 159 242 391h-668v95h780v-95q-88 -280 -275 -461q145 -116 367 -192l-39 -92q-248 86 -407 215q-172 -133 -422 -215l-36 92q226 75 380 194q-147 151 -228 380z" />
<glyph unicode="&#x53ca;" d="M70 680v92h652v-92q-13 -75 -30 -140h223v-88q-70 -192 -205 -316q105 -74 249 -134l-48 -84q-161 65 -280 155q-139 -96 -345 -155l-39 86q184 54 307 134q-140 130 -221 312q-23 -182 -78.5 -307.5t-153.5 -223.5l-72 72q114 113 165.5 271.5t55.5 417.5h-180zM633 197 q116 102 180 255h-147q-10 -34 -24 -69l-97 24q49 130 75 273h-267q63 -294 280 -483z" />
<glyph unicode="&#x53cb;" d="M55 628v90h242q7 60 8 110l105 -3q-2 -60 -7 -107h542v-90h-553q-6 -40 -19 -100h495v-88q-75 -179 -208 -297q123 -77 306 -126l-32 -92q-214 57 -357 154q-146 -98 -358 -154l-32 92q181 49 307 127q-100 91 -167 218q-79 -236 -223 -423l-78 67q202 263 260 622h-231z M577 204q116 97 182 236h-408q-12 -44 -19 -65l80 39q67 -128 165 -210z" />
<glyph unicode="&#x53cd;" d="M908 780v-90h-658v-130h608v-88q-68 -197 -201 -324q126 -87 290 -138l-44 -90q-187 60 -326 161q-137 -100 -340 -161l-43 90q181 54 302 138q-120 113 -188 262l97 42q61 -138 172 -239q110 102 172 259h-499v-54q0 -152 -35.5 -279.5t-100.5 -213.5l-76 85 q107 160 107 478v292h763z" />
<glyph unicode="&#x53ce;" d="M475 617l100 21q35 -210 125 -360q111 168 147 387h-409v93h512v-93q-42 -279 -187 -478q87 -109 217 -183l-50 -88q-135 76 -233 190q-106 -115 -250 -191l-45 64v-69h-102v207q-140 -45 -271 -71l-13 91q20 4 62 14v584h97v-560q41 11 125 37v598h102v-803 q134 73 230 184q-114 174 -157 426z" />
<glyph unicode="&#x53d6;" d="M388 690h-188v-122h188v122zM525 589l97 22q36 -198 105 -328q81 150 114 357h-311v50h-38v-671q103 68 177 170q-98 161 -144 400zM388 75q-186 -32 -347 -50l-9 90q22 2 68 8v567h-55v90h505v-48h395v-92q-41 -267 -156 -455q77 -101 189 -171l-51 -88 q-114 75 -196 175q-80 -102 -188 -175l-51 78v-96h-104v167zM388 166v112h-188v-142q95 14 188 30zM200 488v-130h188v130h-188z" />
<glyph unicode="&#x53d7;" d="M226 240l79 57q73 -79 183 -140q112 67 179 151h-462v84h580v-84q-78 -114 -199 -199q162 -69 355 -97l-32 -89q-224 29 -419 127q-169 -90 -399 -127l-32 89q184 25 332 94q-97 62 -165 134zM835 460h-670v-152h-105v234h189q-31 68 -55 113h-74l-11 90q472 0 770 62 l23 -89q-79 -17 -143 -25l66 -15q-25 -66 -59 -136h174v-234h-105v152zM661 542q37 73 65 147q-100 -13 -205 -20q33 -67 58 -127h82zM476 542q-21 52 -56 120q-21 -1 -62 -2.5t-61 -2.5q26 -50 54 -115h125z" />
<glyph unicode="&#x53e3;" d="M792 78v577h-584v-577h584zM208 -12v-60h-110v820h804v-820h-110v60h-584z" />
<glyph unicode="&#x53e4;" d="M752 68v242h-504v-242h504zM248 -22v-60h-108v484h305v186h-395v92h395v140h110v-140h395v-92h-395v-186h305v-484h-108v60h-504z" />
<glyph unicode="&#x53e5;" d="M96 384l-75 72q66 73 119.5 174.5t82.5 210.5l104 -15q-11 -48 -33 -108h634q-7 -272 -17 -428.5t-30 -237t-42 -101.5t-64 -21q-86 0 -220 8l-5 92q118 -8 178 -8q27 0 41.5 34.5t27.5 167.5t23 401h-565q-69 -150 -159 -241zM340 240h235v215h-235v-215zM340 155v-80 h-105v465h443v-385h-338z" />
<glyph unicode="&#x53ec;" d="M98 770h794q0 -88 -2.5 -146t-10 -103.5t-18 -70.5t-30.5 -41.5t-44.5 -21.5t-61.5 -5q-65 0 -190 6l-2 90q138 -6 172 -6q33 0 48 13t22 56.5t7 138.5h-273q-36 -119 -149.5 -220t-274.5 -152l-32 97q123 37 216.5 112.5t129.5 162.5h-301v90zM262 55h476v180h-476v-180 zM262 -30v-50h-107v402h690v-402h-107v50h-476z" />
<glyph unicode="&#x53ef;" d="M750 68v614h-698v93h896v-93h-90v-610q0 -99 -23 -121.5t-120 -22.5q-57 0 -165 4l-5 88q133 -5 153 -5q38 0 45 7.5t7 45.5zM250 248h265v242h-265v-242zM250 165v-80h-108v487h478v-407h-370z" />
<glyph unicode="&#x53f0;" d="M616 666l82 58q150 -144 276 -298l-81 -64l-78 93q-399 -41 -765 -51l-5 94q82 2 123 4q104 152 195 325l104 -36q-81 -152 -170 -283q196 10 442 31zM742 48v204h-484v-204h484zM258 -40v-50h-108v432h700v-432h-108v50h-484z" />
<glyph unicode="&#x53f2;" d="M785 422v213h-225v-155q0 -39 -1 -58h226zM404 181q29 55 40 154h-232h-102v390h340v97h110v-97h330v-455h-105v65h-232q-15 -131 -62 -209q185 -99 459 -108l-15 -93q-288 9 -504 126q-105 -94 -355 -126l-24 90q212 29 292 92q-94 69 -155 152l83 57q56 -76 132 -135z M449 422q1 19 1 58v155h-238v-213h237z" />
<glyph unicode="&#x53f3;" d="M885 410v-490h-107v50h-418v-50h-110v332q-78 -102 -162 -166l-61 81q220 173 311 443h-273v92h299q15 62 24 126l107 -6q-7 -58 -21 -120h461v-92h-487q-33 -104 -83 -200h520zM360 58h418v262h-418v-262z" />
<glyph unicode="&#x53f7;" d="M856 260q-9 -99 -18 -157t-19 -97.5t-28.5 -56t-38.5 -22t-57 -5.5q-69 0 -235 8l-5 92q133 -7 205 -7q12 0 18.5 1t13.5 3t10.5 10t8 16.5t7.5 28.5t6 40.5t8 57.5h-446q-23 -65 -52 -126l-106 27q52 108 95 255h-173v90h900v-90h-615q-6 -22 -20 -68h541zM262 558h476 v140h-476v-140zM262 478h-107v307h690v-307h-583z" />
<glyph unicode="&#x53f8;" d="M120 510v85h598v-85h-598zM170 410h492v-348h-387v-80h-105v428zM75 780h830v-710q0 -99 -22.5 -122t-120.5 -23q-28 0 -165 5l-4 92q105 -4 152 -4q38 0 45.5 7.5t7.5 44.5v620h-723v90zM275 142h285v188h-285v-188z" />
<glyph unicode="&#x5404;" d="M718 42v168h-436v-168h436zM504 392q-103 -54 -236 -100h479q-135 46 -243 100zM596 447q146 -63 372 -120l-28 -92l-115 33v-350h-107v42h-436v-42h-107v345l-112 -30l-23 94q230 57 369 119q-80 50 -160 120q-77 -65 -165 -115l-37 91q201 118 310 288l104 -19 q-17 -31 -44 -69h405v-87q-95 -122 -226 -208zM501 493q112 64 195 162h-352l-26 -27q82 -79 183 -135z" />
<glyph unicode="&#x5408;" d="M43 527q217 118 391 285h132q174 -167 391 -285l-45 -89q-79 43 -132 77v-70h-560v70q-53 -34 -132 -77zM742 48v204h-484v-204h484zM246 532h508q-135 91 -254 210q-119 -119 -254 -210zM258 -38v-50h-108v428h700v-428h-108v50h-484z" />
<glyph unicode="&#x5409;" d="M742 52v188h-484v-188h484zM945 630h-390v-132h340v-86h-790v86h340v132h-390v90h390v100h110v-100h390v-90zM258 -32v-50h-108v410h700v-410h-108v50h-484z" />
<glyph unicode="&#x540c;" d="M248 520v85h504v-85h-504zM812 72v628h-624v-778h-106v868h836v-718q0 -99 -21.5 -121.5t-111.5 -22.5q-57 0 -165 4l-5 93q133 -5 145 -5q38 0 45 7t7 45zM390 152h220v188h-220v-188zM390 72v-80h-100v428h420v-348h-320z" />
<glyph unicode="&#x540d;" d="M68 539q219 135 335 296l86 -41q-20 -30 -31 -44h367v-90q-79 -176 -296 -312h391v-428h-108v50h-397v-50h-105v318q-109 -43 -245 -76l-30 86q211 47 389 146q-56 68 -120 135l77 62q66 -68 130 -144q153 105 205 213h-337q-105 -105 -266 -199zM415 260v-205h397v205 h-397z" />
<glyph unicode="&#x540e;" d="M772 -80v50h-410v-50h-104v438h622v-438h-108zM228 548h707v-90h-707v-20q0 -310 -121 -513l-77 82q50 93 72.5 205t22.5 273v247q420 0 739 65l22 -89q-280 -61 -658 -65v-95zM362 55h410v215h-410v-215z" />
<glyph unicode="&#x540f;" d="M768 358v160h-206v-38q0 -73 -4 -122h210zM940 748v-90h-378v-58h308v-385h-102v60h-221q-20 -100 -62 -164q187 -86 463 -93l-16 -93q-302 7 -516 112q-105 -83 -338 -112l-24 90q189 26 268 75q-76 51 -128 112l78 61q52 -58 122 -104q29 44 44 116h-206h-102v325h322 v58h-392v90h392v74h110v-74h378zM232 358h216q4 48 4 122v38h-220v-160z" />
<glyph unicode="&#x5411;" d="M815 72v533h-630v-683h-107v773h290q30 63 60 142l109 -15q-31 -78 -54 -127h439v-623q0 -99 -21 -121.5t-111 -22.5q-57 0 -165 4l-5 93q100 -5 142 -5q38 0 45.5 7t7.5 45zM392 235h216v187h-216v-187zM392 152v-80h-102v433h420v-353h-318z" />
<glyph unicode="&#x541b;" d="M778 -80v45h-418v-45h-105v240q-80 -94 -170 -153l-58 90q164 106 258 263h-165v82h207q20 44 33 86h-315v87h339q12 54 16 83h-260v82h725v-165h90v-87h-90v-168h-460q-23 -45 -41 -72h521v-368h-107zM360 48h418v157h-418v-157zM505 698q-8 -56 -14 -83h269v83h-255z M470 528q-11 -41 -29 -86h319v86h-290z" />
<glyph unicode="&#x5426;" d="M742 58v177h-484v-177h484zM615 614q178 -73 348 -175l-48 -83q-172 103 -345 180zM70 685v90h860v-90h-318q-18 -19 -58 -55v-282h-108v199q-152 -107 -366 -192l-42 87q287 110 443 243h-411zM258 -28v-50h-108v400h700v-400h-108v50h-484z" />
<glyph unicode="&#x542b;" d="M762 50v152h-524v-152h524zM155 390v90h680v-90q-39 -49 -90 -100h125v-378h-108v50h-524v-50h-108v378h473q62 53 104 100h-552zM722 595v-55h-444v55q-103 -61 -213 -109l-37 83q220 104 407 249h130q187 -145 407 -249l-37 -83q-110 48 -213 109zM669 628 q-84 51 -169 119q-85 -68 -169 -119h338z" />
<glyph unicode="&#x5438;" d="M365 688v92h493v-92q-25 -75 -59 -148h156v-88q-52 -168 -157 -296q82 -91 187 -157l-48 -86q-119 72 -207 170q-110 -104 -258 -170l-55 78q148 64 253 166q-82 114 -135 264q-40 -292 -189 -507l-77 64l21 32h-128v-60h-100v810h273v-674q118 224 122 602h-92zM240 100 v568h-78v-568h78zM737 230q80 100 122 222h-104l-28 -49l-78 49q66 113 110 236h-199q40 -270 177 -458z" />
<glyph unicode="&#x5442;" d="M782 68v182h-564v-182h564zM732 535v153h-464v-153h464zM218 -20v-60h-108v420h283q24 60 37 105h-162h-108v335h680v-335h-297q-15 -55 -36 -105h383v-420h-108v60h-564z" />
<glyph unicode="&#x5446;" d="M858 788v-370h-303v-63h380v-87h-319q126 -131 351 -249l-54 -86q-225 126 -358 276v-297h-110v301q-135 -154 -361 -279l-51 88q228 120 351 246h-319v87h380v63h-197h-106v370h716zM248 502h504v198h-504v-198z" />
<glyph unicode="&#x5448;" d="M555 25h380v-90h-870v90h380v100h-290v83h290v92h-345v85h800v-85h-345v-92h290v-83h-290v-100zM258 532h484v163h-484v-163zM258 450h-108v335h700v-335h-592z" />
<glyph unicode="&#x5449;" d="M570 60l41 79q189 -67 327 -152l-48 -86q-139 88 -320 159zM63 -3q198 62 313 146l55 -74q-54 -44 -142.5 -87.5t-186.5 -73.5zM808 242h147v-90h-910v90h653v76h-563v422h105v-338h568v-160zM752 548v154h-327v-154h327zM425 468h-103v322h536v-322h-433z" />
<glyph unicode="&#x544a;" d="M835 -80h-107v50h-456v-50h-107v382h670v-382zM895 710v-85h-327v-163h377v-90h-890v90h403v163h-209q-37 -70 -95 -143l-93 53q102 137 157 279l102 -27q-16 -47 -29 -77h167v105h110v-105h327zM272 52h456v166h-456v-166z" />
<glyph unicode="&#x5468;" d="M468 702h-256v-324q0 -181 -25.5 -284t-87.5 -187l-85 69q53 76 73.5 169t20.5 275v370h822v-730q0 -99 -22.5 -122t-117.5 -23q-23 0 -135 5l-5 90q107 -5 122 -5q38 0 45.5 7.5t7.5 45.5v644h-255v-72h198v-78h-198v-87h218v-80h-538v80h218v87h-198v78h198v72z M380 122h275v128h-275v-128zM380 45v-50h-100v335h475v-285h-375z" />
<glyph unicode="&#x5473;" d="M955 448v-90h-194q77 -163 213 -309l-63 -93q-126 149 -196 300v-356h-105v355q-78 -155 -212 -299l-57 54h-171v-60h-102v810h290v-694q133 142 208 292h-184v90h228v154h-212v90h212v128h105v-128h225v-90h-225v-154h240zM258 100v568h-88v-568h88z" />
<glyph unicode="&#x547c;" d="M955 626q-39 -134 -101 -266l-90 33q58 126 97 261zM483 611q49 -99 93 -218l-91 -33q-42 117 -92 217zM382 730q337 14 552 70l20 -92q-84 -24 -226 -43v-343h247v-92h-247v-165q0 -97 -20 -121t-98 -24q-45 0 -150 5l-5 90q90 -5 125 -5q29 0 35.5 7.5t6.5 44.5v168 h-244v92h244v331q-101 -10 -222 -15zM258 100v568h-88v-568h88zM170 10v-60h-102v810h290v-750h-188z" />
<glyph unicode="&#x547d;" d="M762 92q39 0 46 7t7 46v227h-180v-460h-105v548h388v-315q0 -99 -22.5 -122t-115.5 -23q-21 0 -105 2l-5 93q54 -3 92 -3zM355 98v262h-157v-262h157zM752 577v-59h-504v59q-104 -57 -183 -91l-37 83q220 104 407 249h130q187 -145 407 -249l-37 -83q-79 34 -183 91z M701 608q-103 61 -201 139q-98 -78 -201 -139h402zM198 10v-60h-103v500h360v-440h-257z" />
<glyph unicode="&#x548c;" d="M480 530v-90h-144l168 -255l-79 -61l-113 200v-414h-100v347q-52 -122 -133 -215l-58 89q120 138 172 309h-153v90h172v151q-65 -8 -152 -13l-8 84q203 14 397 58l27 -82q-74 -19 -164 -33v-165h168zM838 82v580h-223v-580h223zM615 -8v-60h-103v823h430v-823h-104v60 h-223z" />
<glyph unicode="&#x54c0;" d="M59 98l-30 89q211 49 328 123h-99h-108v290h700v-290h-261q38 -77 90 -135q85 56 150 124l82 -53q-74 -73 -164 -134q92 -70 225 -115l-49 -84q-147 45 -263.5 148t-172.5 239q-51 -43 -117 -82v-182q132 20 241 44l13 -85q-258 -57 -513 -80l-12 87q91 8 166 19v146 q-85 -37 -206 -69zM950 740v-88h-900v88h395v82h110v-82h395zM258 392h484v128h-484v-128z" />
<glyph unicode="&#x54c1;" d="M828 40v222h-183v-222h183zM355 40v222h-183v-222h183zM695 498v202h-390v-202h390zM645 -42v-40h-105v430h395v-430h-107v40h-183zM172 -42v-40h-107v430h395v-430h-105v40h-183zM305 415h-110v373h610v-373h-500z" />
<glyph unicode="&#x54e1;" d="M225 402h550v50h-550v-50zM225 332v-52h550v52h-550zM225 210v-52h550v52h-550zM225 80h-110v455h770v-455h-190q154 -49 257 -98l-47 -81q-132 65 -319 124l23 55h-219l25 -47q-122 -76 -329 -125l-37 84q156 39 267 88h-91zM262 575h-107v215h690v-215h-583zM262 645 h476v57h-476v-57z" />
<glyph unicode="&#x5510;" d="M792 35v105h-447v-105h447zM345 -45v-50h-105v317h660v-317h-108v50h-447zM792 405h-177v-55h177v55zM792 490v52h-177v-52h177zM508 350v55h-313v-23q0 -298 -95 -472l-77 87q37 81 53 183.5t16 274.5v297h373v83h110v-83h365v-84h-325v-48h280v-130h55v-85h-55v-133 h-657v78h270zM195 490h313v52h-270v78h270v48h-313v-178z" />
<glyph unicode="&#x552f;" d="M745 832l100 -14q-16 -61 -41 -128h136v-90h-155v-125h140v-85h-140v-128h140v-84h-140v-130h170v-88h-417v-55h-106v533q-25 -48 -43 -74l-31 35v-389h-186v-60h-102v810h288v-248q96 142 152 320l103 -16q-17 -61 -41 -126h128q27 70 45 142zM260 100v568h-88v-568h88z M685 178h-147v-130h147v130zM685 262v128h-147v-128h147zM685 475v125h-147v-125h147z" />
<glyph unicode="&#x5531;" d="M850 192v78h-382v-78h382zM230 100v568h-78v-568h78zM468 118v-80h382v80h-382zM468 -42v-40h-103v434h593v-434h-108v40h-382zM488 482h340v76h-340v-76zM488 405h-100v383h544v-383h-444zM488 630h340v72h-340v-72zM152 10v-60h-100v810h273v-750h-173z" />
<glyph unicode="&#x5546;" d="M815 490h-173v-71q0 -35 9 -41.5t59 -6.5q35 0 105 2v117zM185 299q98 47 129 85t31 106h-160v-191zM185 266v-354h-105v663h208q-17 42 -41 95h-197v82h398v83h104v-83h398v-82h-195q-26 -53 -55 -95h220v-513q0 -99 -21 -121.5t-111 -22.5q-45 0 -136 4l-4 76h-258v-46 h-100v297q-28 -17 -68 -36zM815 291q-77 -3 -153 -3q-74 0 -97 18.5t-23 81.5v102h-97q0 -74 -30 -127.5t-103 -100.5h398v-255q25 -2 52 -2q39 0 46 7t7 46v233zM581 575q33 46 59 95h-278q27 -59 39 -95h180zM390 75h220v110h-220v-110z" />
<glyph unicode="&#x554f;" d="M612 265h-224v-147h224v147zM790 -78q-30 0 -130 6l-5 90q93 -6 117 -6q40 0 48 7.5t8 45.5v350h-306v375h410v-722q0 -100 -22.5 -123t-119.5 -23zM68 -82v872h400v-375h-296v-497h-104zM388 35v-50h-103v363h430v-313h-327zM828 490v72h-203v-72h203zM828 632v73h-203 v-73h203zM172 632h193v73h-193v-73zM172 562v-72h193v72h-193z" />
<glyph unicode="&#x5584;" d="M748 32v68h-496v-68h496zM194 374l105 22q28 -52 41 -78h102v87h-392v85h392v48h-297v77h297v47h-354v88h194q-12 30 -31 67l105 19q19 -36 42 -86h199q28 46 46 85l106 -18q-20 -43 -33 -67h196v-88h-354v-47h297v-77h-297v-48h392v-85h-392v-87h102q23 38 41 77 l106 -20q-18 -38 -28 -57h171v-90h-900v90h173q-12 26 -29 56zM252 -50v-40h-112v275h720v-275h-112v40h-496z" />
<glyph unicode="&#x559c;" d="M748 32v53h-496v-53h496zM45 202v90h241q-16 36 -25 53h-99v177h676v-177h-97q-6 -12 -27 -53h241v-90h-910zM945 672h-390v-34h340v-83h-790v83h340v34h-390v88h390v68h110v-68h390v-88zM252 -50v-40h-112v260h720v-260h-112v40h-496zM593 292q11 17 31 53h-245 q13 -24 24 -53h190zM275 410h450v48h-450v-48z" />
<glyph unicode="&#x55b6;" d="M828 622h-656v-182h-107v268h148q-26 50 -50 87l94 38q36 -57 70 -125h123q-31 60 -54 97l93 38q35 -58 73 -135h112q37 59 72 129l96 -27q-23 -48 -55 -102h148v-268h-107v182zM248 42h504v120h-504v-120zM248 -35v-50h-108v333h263q13 34 23 67h-114h-107v263h590v-263 h-255q-10 -33 -23 -67h343v-333h-108v50h-504zM312 392h376v100h-376v-100z" />
<glyph unicode="&#x5606;" d="M352 120v88h250q2 8 2 27v25h-240v85h240v40h-127h-98v235h101v48h-128v87h128v70h98v-70h160v70h97v-70h123v-87h-123v-48h102v-235h-228v-40h240v-85h-240v-25q0 -11 2 -27h253v-88h-216q62 -79 222 -118l-37 -87q-88 21 -160 71.5t-114 116.5q-47 -65 -128.5 -116 t-179.5 -72l-40 84q181 41 250 121h-209zM228 100v568h-66v-568h66zM709 545v-87h128v87h-128zM604 545h-127v-87h127v87zM578 620h160v48h-160v-48zM162 10v-60h-100v810h260v-750h-160z" />
<glyph unicode="&#x5668;" d="M770 35v145h-145v-145h145zM375 35v145h-145v-145h145zM55 360v88h323q25 28 42 54h-208h-102v286h360v-250l60 -9v259h360v-286h-262h-93q-16 -32 -32 -54h442v-88h-224q105 -75 241 -118l-24 -93q-30 10 -68 26v-257h-100v40h-145v-40h-95v344h171q-67 43 -125 98h-147 q-56 -53 -126 -98h167v-344h-95v40h-145v-40h-100v256q-6 -2 -30.5 -11t-37.5 -14l-24 93q137 43 242 118h-225zM628 578h160v130h-160v-130zM212 578h160v130h-160v-130z" />
<glyph unicode="&#x56da;" d="M448 680h104v-105q0 -133 70.5 -247.5t188.5 -177.5l-66 -80q-75 41 -139 116t-104 166q-40 -92 -105 -166.5t-142 -115.5l-66 80q118 62 188.5 177t70.5 248v105zM822 38v664h-644v-664h644zM178 -48v-42h-106v880h856v-880h-106v42h-644z" />
<glyph unicode="&#x56db;" d="M825 266q-78 -6 -160 -6q-74 0 -97 23t-23 97v270h-107q0 -85 -1.5 -133.5t-9.5 -95.5t-18 -71.5t-35 -54.5t-52.5 -50.5t-76.5 -53.5l-60 73q42 29 62 43t41.5 39t28 43t13.5 60t7.5 83t0.5 118h-163v-540h650v156zM825 356v294h-180v-231q0 -51 8.5 -59.5t58.5 -8.5 t113 5zM175 20v-60h-105v780h860v-780h-105v60h-650z" />
<glyph unicode="&#x56de;" d="M815 58v637h-630v-637h630zM392 255h216v247h-216v-247zM392 168h-100v422h416v-422h-316zM185 -32v-53h-105v870h840v-870h-105v53h-630z" />
<glyph unicode="&#x56e0;" d="M450 680h100v-130h235v-88h-230q34 -203 256 -315l-66 -77q-164 88 -243 256q-79 -167 -247 -256l-66 77q223 113 256 315h-230v88h235v130zM822 38v664h-644v-664h644zM178 -48v-42h-106v880h856v-880h-106v42h-644z" />
<glyph unicode="&#x56e3;" d="M280 416l86 50q73 -99 131 -211l-88 -49q-57 109 -129 210zM790 582v-87h-92v-270q0 -38 -1 -59.5t-5.5 -40.5t-10.5 -27t-20 -14.5t-29.5 -7.5t-43.5 -1q-51 0 -161 5l-2 88q88 -6 125 -6q34 0 39.5 7t5.5 48v278h-385v87h385v96h103v-96h92zM822 38v664h-644v-664h644z M178 -48v-42h-106v880h856v-880h-106v42h-644z" />
<glyph unicode="&#x56f0;" d="M818 184l-60 -80q-125 111 -208 247v-291h-100v291q-83 -136 -208 -247l-60 80q161 131 253 291h-220v87h235v118h100v-118h235v-87h-220q92 -160 253 -291zM825 38v664h-650v-664h650zM175 -48v-42h-105v880h860v-880h-105v42h-650z" />
<glyph unicode="&#x56f2;" d="M828 38v664h-656v-664h656zM801 322v-87h-125v-173h-97v173h-169q-16 -57 -45.5 -100t-82.5 -89l-69 60q74 62 98 129h-115v87h135q6 55 8 158h-135v88h135v110h95v-110h145v110h97v-110h118v-88h-118v-158h125zM172 -48v-42h-104v880h864v-880h-104v42h-656zM434 480 q-2 -101 -8 -158h153v158h-145z" />
<glyph unicode="&#x56f3;" d="M196 338l41 79q144 -54 262 -114q138 135 229 316l82 -41q-84 -176 -227 -322q104 -60 208 -135l-59 -72q-106 79 -218 142q-103 -90 -215 -153h523v664h-644v-664h90l-48 59q119 68 207 141q-95 48 -231 100zM433 647l80 46q64 -101 111 -193l-80 -43q-49 96 -111 190z M256 587l81 48q72 -108 117 -198l-82 -45q-51 100 -116 195zM178 -48v-42h-106v880h856v-880h-106v42h-644z" />
<glyph unicode="&#x56fa;" d="M822 38v664h-644v-664h644zM375 92h-100v303h175v103h-232v82h232v98h100v-98h232v-82h-232v-103h175v-303h-350zM375 175h250v140h-250v-140zM178 -48v-42h-106v880h856v-880h-106v42h-644z" />
<glyph unicode="&#x56fd;" d="M828 35v670h-656v-670h656zM172 -48v-42h-104v880h864v-880h-104v42h-656zM739 190h46v-82h-570v82h230v165h-185v77h185v126h-217v80h544v-80h-227v-126h195v-77h-39q55 -67 97 -124zM687 355h-142v-165h171q-49 67 -95 119z" />
<glyph unicode="&#x5712;" d="M760 592h-208v-40h243v-72h-590v72h243v40h-208v68h208v50h-280v-680h283v130q-97 -57 -218 -105l-44 75q156 53 261 120h-100h-85v195h470v-183l23 22l56 -55q-35 -35 -87 -77l84 -50l-60 -61q-85 58 -200 120v-131h281v680h-280v-50h208v-68zM938 795v-890h-106v43 h-664v-43h-106v890h876zM652 193q35 25 70 57h-143l-15 -12zM350 318h300v60h-300v-60z" />
<glyph unicode="&#x571f;" d="M555 45h390v-95h-890v95h390v403h-320v92h320v252h110v-252h320v-92h-320v-403z" />
<glyph unicode="&#x5727;" d="M638 40h300v-92h-746v92h338v320h-268v90h268v205h108v-205h264v-90h-264v-320zM110 490v282h825v-90h-720v-262q0 -167 -24 -280t-79 -212l-77 84q43 93 59 194t16 284z" />
<glyph unicode="&#x5728;" d="M688 42h264v-92h-650v92h278v263h-235v90h235v195h108v-195h230v-90h-230v-263zM60 645v93h310q18 41 38 101l105 -11q-10 -37 -30 -90h457v-93h-499q-71 -134 -176 -245v-485h-107v398q-53 -50 -93 -77l-38 106q70 45 131 101v87h83q43 51 81 115h-262z" />
<glyph unicode="&#x5730;" d="M408 762h104v-171l103 24v200h100v-177l220 51v-54q0 -190 -9.5 -279t-26 -111.5t-54.5 -22.5q-18 0 -88 4l-17 92q42 -3 70 -3q7 0 10 5t6 29.5t4 75.5t2 143l-117 -28v-392h-100v368l-103 -24v-427q0 -29 11 -36q17 -11 131 -11h41h54t39.5 3.5t30.5 5.5t19.5 15 t14.5 21t7 34t6 45.5t4 62.5l100 -20q-3 -53 -5.5 -83t-10.5 -62.5t-14 -47t-25 -30.5t-35 -21t-52 -10t-68.5 -5.5t-91.5 -0.5q-49 0 -81 0.5t-61.5 3t-46.5 5.5t-32 10.5t-21.5 15t-11 21.5t-5.5 28t-1 36v422l-92 -22l-8 67h-63v-394q45 16 113 46l4 -91 q-152 -75 -310 -118l-11 97l99 29v431h-95v90h95v190h105v-190h107v-48l56 12v196z" />
<glyph unicode="&#x5742;" d="M952 780v-90h-462v-130h438v-88q-48 -192 -152 -326q85 -85 204 -136l-50 -90q-129 56 -224 151q-99 -93 -247 -151l-44 91q135 52 224 138q-86 115 -134 272l95 38q40 -134 108 -232q73 101 112 245h-330v-54q0 -143 -37 -272t-106 -221l-71 85q24 38 34 59 q-130 -56 -263 -94l-11 97l99 29v401h-95v90h95v200h105v-200h112v-90h-112v-364q55 19 112 44q33 124 33 306v292h567z" />
<glyph unicode="&#x5747;" d="M391 142q178 56 377 162l30 -84q-198 -109 -379 -165zM450 408v87h305v-87h-305zM812 -75q-76 0 -212 8l-5 94q112 -7 170 -7q15 0 23.5 4.5t18 24t14.5 56t10 104.5t8.5 164.5t7.5 241.5h-358q-65 -143 -146 -236l-69 69q27 33 48 64h-87v-364q45 16 113 46l4 -96 q-160 -74 -310 -113l-11 97l99 29v401h-95v90h95v190h105v-190h97v-73q85 133 126 300l101 -12q-14 -58 -33 -109h427q-3 -144 -6 -248t-7.5 -189t-9.5 -139t-14 -95t-17 -61.5t-23 -33t-28.5 -15t-35.5 -2.5z" />
<glyph unicode="&#x574a;" d="M251 792v-184h74v82h250v135h107v-135h288v-92h-372q0 -52 -4 -136h326q0 -228 -17.5 -341.5t-50.5 -148t-100 -34.5q-68 0 -172 10l-5 97q103 -10 147 -10q32 0 50 23t29.5 97.5t13.5 214.5h-228q-19 -163 -74 -264t-165 -188l-78 76q90 68 135 137.5t65 176.5t20 290 h-106v-80h-133v-368q59 21 118 47l7 -91q-152 -70 -323 -116l-11 95q56 15 107 30v403h-103v90h103v184h102z" />
<glyph unicode="&#x576a;" d="M949 613q-40 -126 -108 -251l-90 38q67 130 104 247zM441 364q-48 126 -105 247l91 37q52 -108 105 -248zM955 690h-260v-375h277v-93h-277v-317h-107v317h-303v93h303v375h-276v90h643v-90zM230 792v-224h102v-90h-102v-361q58 21 115 47l5 -91q-154 -75 -311 -118 l-11 97q64 18 97 29v397h-93v90h93v224h105z" />
<glyph unicode="&#x5782;" d="M712 508h-157v-106h157v106zM130 750q433 0 739 50l12 -92q-142 -23 -326 -35v-83h367v-82h-107v-106h137v-87h-137v-110h97v-83h-357v-94h383v-88h-876v88h383v94h-357v83h97v110h-137v87h137v106h-107v82h367v77q-140 -7 -315 -7v90zM288 508v-106h157v106h-157z M445 315h-157v-110h157v110zM712 205v110h-157v-110h157z" />
<glyph unicode="&#x578b;" d="M828 795h104v-365q0 -53 -3 -78.5t-18 -42.5t-38 -20.5t-71 -3.5q-46 0 -132 5l-5 90q78 -5 117 -5q31 0 38.5 8t7.5 45v367zM618 410v365h100v-365h-100zM555 132v-104h390v-88h-890v88h390v104h-315v86h315v67h-73v207h-112q-12 -87 -43 -147t-87 -107l-80 70 q46 39 71 80.5t35 103.5h-108v88h116q1 15 1 48v64h-97v88h502v-88h-92v-112h92v-88h-92v-172h77v-102h305v-86h-305zM267 580h105v112h-104v-64q0 -9 -0.5 -25t-0.5 -23z" />
<glyph unicode="&#x57ce;" d="M642 522q0 -298 -16 -360q-11 -45 -42 -52q-11 -2 -34 -2q-42 0 -108 7l-11 90q42 -7 74 -7q24 0 31 13q12 22 12 183v44h-113v-30q0 -318 -108 -493l-94 50q37 61 58 125q-123 -57 -252 -95l-13 87q47 12 104 32v374h-100v84h100v220h98v-220h84v-84h-84v-339 q58 24 86 38q19 114 18 295v233h324q-1 34 -1 105h103q0 -71 1 -105h64q-3 9 -35 90l84 35q24 -54 50 -125h40v-90h-201q7 -161 26 -304q41 88 73 210l90 -32q-53 -197 -135 -329q6 -27 13 -49.5t12.5 -37.5t11 -25.5t9.5 -15t7 -4.5q17 0 29 170l80 -33q-15 -255 -95 -255 q-89 0 -145 147q-69 -79 -172 -146l-68 73q129 82 207 186q-36 166 -46 445h-223v-103h207z" />
<glyph unicode="&#x57df;" d="M868 38q17 0 29 170l80 -33q-15 -255 -95 -255q-88 0 -140 144q-67 -77 -167 -143l-68 73q129 81 204 185q-34 164 -43 441h-373v90h371q-1 35 -1 110h103q0 -75 1 -110h56q-10 27 -37 95l84 35q28 -61 52 -130h38v-90h-191q7 -158 22 -291q37 85 67 202l90 -32 q-57 -207 -131 -329q6 -26 12 -48.5t11.5 -37.5t10.5 -26t8.5 -15.5t6.5 -4.5zM125 792h105v-217h85v-90h-85v-327q38 15 98 45l11 -87q195 47 313 108l16 -88q-136 -75 -354 -123l-14 84q-124 -61 -260 -99l-13 89q56 16 98 31v367h-95v90h95v217zM540 312v156h-105v-156 h105zM435 232h-100v316h300v-316h-200z" />
<glyph unicode="&#x57f7;" d="M205 235h-163v87h95q-20 102 -37 170h-62v88h167v92h-140v83h140v70h105v-70h138v-83h-138v-92h165v75h120v170h100v-170h177v-595q0 -33 2 -39t10 -6t10 10q5 22 8 270l86 -10q-7 -249 -23 -305q-13 -47 -48 -56q-16 -4 -55 -4q-60 0 -76 19.5t-16 95.5v108l-50 -54 l-74 91q-51 -159 -171 -269l-78 70q127 113 168 290q-65 68 -116 110l57 73q47 -39 79 -69q8 73 10 175h-113v-68h-52q-17 -85 -44 -170h96v-87h-172v-103h142v-82h-142v-145h-105v145h-147v82h147v103zM292 322q26 80 44 170h-144q21 -91 35 -170h65zM770 176v384h-75 q-2 -156 -22 -267z" />
<glyph unicode="&#x57fa;" d="M555 92v-72h377v-85h-864v85h377v72h-243v46q-60 -32 -139 -61l-35 88q141 46 231 110h-204v85h153v298h-143v84h143v88h107v-88h370v88h107v-88h143v-84h-143v-298h153v-85h-204q90 -64 231 -110l-35 -88q-79 29 -139 61v-46h-243zM737 175q-61 40 -116 100h-240 q-51 -57 -116 -100h180v75h110v-75h182zM315 605h370v53h-370v-53zM315 535v-53h370v53h-370zM315 412v-52h370v52h-370z" />
<glyph unicode="&#x5802;" d="M768 692h167v-264h-105v177h-660v-177h-105v264h170q-35 60 -63 100l94 24q40 -57 77 -124h102v140h110v-140h106q38 59 72 128l92 -25q-26 -54 -57 -103zM312 355h376v130h-376v-130zM312 275h-107v290h590v-290h-240v-80h307v-83h-307v-87h380v-90h-870v90h380v87h-307 v83h307v80h-133z" />
<glyph unicode="&#x5824;" d="M132 792h106v-220h102v-84h-102v-330q38 15 98 45l10 -87q-151 -77 -298 -118l-13 89q58 17 97 31v370h-94v84h94v220zM260 -38q109 131 135 294l100 -12q-10 -62 -28 -114q48 -54 121 -79v234h-266v87h636v-87h-263v-80h233v-85h-233v-92q83 -10 217 -10h48l-5 -90h-57 q-191 0 -296 25.5t-171 88.5q-33 -68 -82 -131zM475 420h-105v365h550v-365h-445zM475 640h340v62h-340v-62zM475 565v-65h340v65h-340z" />
<glyph unicode="&#x5831;" d="M618 351l83 45q24 -97 79 -189q50 97 68 212h-253v-505h-100v321h-170v-103h147v-82h-147v-145h-105v145h-152v82h152v103h-168v87h97q-12 69 -36 170h-65v88h172v92h-145v83h145v70h105v-70h143v-83h-143v-92h170v207h453l-2 -42q-6 -94 -14 -134t-21.5 -51t-45.5 -11 q-40 0 -183 5l-2 83q103 -5 140 -5q15 0 19 9.5t8 60.5h-252v-195h348v-88q-23 -164 -102 -297q61 -73 130 -116l-37 -93q-80 47 -150 126q-56 -71 -126 -123l-51 87q63 46 117 114q-72 108 -106 234zM404 322h91v170h-47q-17 -85 -44 -170zM309 322q28 89 45 170h-149 q21 -91 35 -170h69z" />
<glyph unicode="&#x5834;" d="M687 -77l-5 87q60 -5 96 -5q18 0 28 13.5t16 58.5t6 131v4h-21q-43 -85 -120.5 -171.5t-158.5 -140.5l-63 65q67 41 133.5 109.5t110.5 137.5h-80q-56 -73 -141.5 -144t-169.5 -113l-56 67q136 65 254 190h-80q-47 -34 -86 -55l5 -39q-154 -67 -308 -104l-14 91 q47 9 99 23v342h-94v85h94v237h106v-237h100v-85h-100v-313q34 11 76 26l-26 38q79 37 161 111h-127v83h636v-83h-392l-37 -40h403v-67q0 -128 -13.5 -195.5t-37.5 -89.5t-69 -22q-64 0 -125 5zM378 788h530v-338h-428h-102v338zM480 652h320v53h-320v-53zM480 578v-56h320 v56h-320z" />
<glyph unicode="&#x5869;" d="M228 792v-184h81q70 107 109 229l97 -16q-8 -27 -20 -61h445v-88h-481q-14 -31 -33 -64h472v-253h-438h-100v149q-16 -23 -39 -49l-79 63h-14v-370l97 44v100h590v-277h55v-85h-715v85h70v84q-148 -76 -288 -121l-14 94q76 25 102 35v411h-97v90h97v184h103zM425 15h67 v200h-67v-200zM585 15h67v200h-67v-200zM745 15h67v200h-67v-200zM460 430h330v98h-330v-98z" />
<glyph unicode="&#x5883;" d="M799 -82q-93 0 -115.5 12t-22.5 60v162h-86q-16 -93 -90.5 -153.5t-212.5 -95.5l-48 87q112 24 172.5 63t79.5 99h-17h-105v308h567v-308h-160v-120q0 -18 6 -21t42 -3q39 0 47 10q11 13 14 93q0 7 1 24l93 -10q-2 -45 -3 -68t-5 -49.5t-7 -37.5t-13.5 -24t-18.5 -16.5 t-29 -7.5t-38 -4h-51zM690 830v-80h255v-85h-80q-17 -41 -41 -87h138v-83h-634v-53h-103v-284q59 26 110 51l7 -88q-159 -86 -308 -133l-13 94q46 14 101 35v325h-97v90h97v260h103v-260h80v46h160l-45 87h-98v85h260v80h108zM459 342h352v46h-352v-46zM459 278v-50h352v50 h-352zM717 578q25 42 45 87h-236q22 -43 42 -87h149z" />
<glyph unicode="&#x5893;" d="M555 75v-55h375v-85h-860v85h375v55h-215v46q-78 -41 -163 -72l-39 83q128 44 210 96h-183v80h286q15 14 30 32h-119h-107v305h125v35h-215v85h215v65h105v-65h250v65h105v-65h215v-85h-215v-35h125v-305h-364q-12 -16 -26 -32h480v-80h-183q79 -51 210 -96l-39 -83 q-90 32 -163 72v-46h-215zM375 645h250v35h-250v-35zM712 155q-55 36 -96 73h-230q-45 -41 -98 -73h157v53h110v-53h157zM252 525h496v47h-496v-47zM252 462v-47h496v47h-496z" />
<glyph unicode="&#x5897;" d="M225 792v-204h75v-90h-75v-354q50 22 92 45l8 -88q-146 -83 -288 -133l-14 94q40 14 99 37v399h-94v90h94v204h103zM458 -50v-40h-103v395h570v-395h-105v40h-362zM458 162h362v60h-362v-60zM458 92v-64h362v64h-362zM420 430h172v65h-172v-65zM420 358h-100v354h139 q-31 46 -63 87l95 24q38 -47 80 -111h139q44 60 73 111l99 -21q-23 -39 -59 -90h137v-354h-540zM690 635v-70h168v70h-168zM592 635h-172v-70h172v70zM690 495v-65h168v65h-168z" />
<glyph unicode="&#x58eb;" d="M555 45h330v-93h-770v93h330v400h-380v95h380v252h110v-252h380v-95h-380v-400z" />
<glyph unicode="&#x58ee;" d="M21 640l89 44q35 -69 78 -171v297h102v-900h-102v279q-64 -37 -140 -73l-35 93q93 44 175 90v137l-60 -30q-49 121 -107 234zM958 470h-238v-435h220v-93h-595v93h265v435h-278v95h278v237h110v-237h238v-95z" />
<glyph unicode="&#x58f0;" d="M950 752v-84h-395v-58h345v-82h-800v82h345v58h-395v84h395v70h110v-70h395zM238 170q-21 -146 -109 -251l-83 64q51 65 73.5 149.5t22.5 222.5v115h723v-355h-103v55h-524zM552 390v-135h210v135h-210zM448 390h-200v-78q0 -21 -2 -57h202v135z" />
<glyph unicode="&#x58f2;" d="M552 302h108v-241q0 -29 13 -35t79 -6h27t20 3t15.5 4.5t9.5 11t7 16.5t4 26.5t3.5 35t1.5 48.5l105 -8q-3 -62 -5 -93.5t-12 -62t-19 -41t-36 -19.5t-53 -10t-80 -1q-46 0 -74 1t-51 6t-34 11t-18.5 20t-9 30t-1.5 43v261zM338 308l102 -10q-8 -151 -89.5 -242.5 t-249.5 -137.5l-45 87q146 41 208.5 109t73.5 194zM915 438v-210h-103v127h-624v-137h-103v220h830zM945 738v-86h-390v-72h320v-82h-750v82h320v72h-390v86h390v74h110v-74h390z" />
<glyph unicode="&#x5909;" d="M50 197q221 77 346 196l82 -43q-11 -11 -37 -35h367v-83q-68 -87 -173 -149q136 -50 306 -68l-24 -92q-207 24 -393 105q-181 -76 -441 -105l-24 92q212 21 356 67q-75 44 -125 88l65 62h-23q-110 -71 -235 -114zM692 576l84 50q104 -107 178 -225l-86 -52 q-70 113 -176 227zM130 342l-83 60q99 93 154 223l93 -36q-54 -142 -164 -247zM538 460q24 0 28 5t4 33v162h-104q-7 -112 -47.5 -187t-123.5 -137l-78 63q74 53 108 112t41 149h-298v88h377v82h110v-82h377v-88h-260v-158q0 -87 -16.5 -108.5t-83.5 -21.5q-33 0 -117 6 l-7 87q70 -5 90 -5zM528 128q84 43 150 104h-307q70 -60 157 -104z" />
<glyph unicode="&#x590f;" d="M760 335v40h-520v-40h520zM65 698v87h870v-87h-396q-10 -28 -15 -40h346v-386h-428q-28 -25 -42 -37h422v-75q-76 -66 -184 -114q132 -32 303 -46l-24 -87q-222 18 -411 82q-185 -58 -423 -82l-24 87q174 14 319 46q-68 32 -119 69l35 45h-1q-95 -56 -201 -92l-41 82 q152 48 265 122h-76h-110v386h282q8 20 14 40h-361zM240 545h520v40h-520v-40zM240 480v-40h520v40h-520zM510 83q96 32 168 77h-339q77 -45 171 -77z" />
<glyph unicode="&#x5915;" d="M347 423l63 76l267 -197q95 123 136 318h-399q-116 -164 -289 -292l-63 76q236 181 351 418l102 -24q-20 -44 -44 -88h449v-88v-2q-53 -293 -240.5 -465t-523.5 -235l-27 90q318 67 481 218z" />
<glyph unicode="&#x5916;" d="M401 382q37 115 41 238h-174q-67 -190 -169 -328l-66 76q134 201 190 453l97 -12q-9 -46 -23 -97h245q0 -64 -2 -95q64 -73 135 -138v331h107v-422q94 -74 208 -139l-43 -88q-76 44 -165 106v-357h-107v442q-73 61 -149 141q-36 -220 -144 -363.5t-276 -209.5l-41 87 q196 76 297 280l-160 119l58 78z" />
<glyph unicode="&#x5918;" d="M192 399l64 80l107 -88q38 111 48 229h-142q-66 -188 -168 -326l-70 72q136 204 194 465l100 -12q-16 -72 -26 -107h216v-92q-18 -246 -125 -428t-280 -267l-57 90q169 83 268 276q-42 38 -129 108zM768 160q38 0 45 6.5t7 45.5v468h-155v-760h-107v850h370v-560 q0 -99 -22.5 -122t-115.5 -23q-1 0 -85 2l-5 95q14 0 30 -0.5t24.5 -1t13.5 -0.5z" />
<glyph unicode="&#x591a;" d="M310 557l72 63l112 -100q109 68 181 164h-240q-153 -103 -322 -158l-49 82q143 47 254.5 109t171.5 123l84 -42q-16 -18 -37 -37h244v-77q-90 -155 -266.5 -257t-427.5 -141l-27 87q200 31 345 99zM188 235q150 47 274 115.5t189 137.5l87 -42q-18 -20 -37 -36h259v-83 q-96 -167 -287 -276t-462 -151l-29 92q215 32 376 108l-101 88l73 69l120 -108q123 78 197 178h-251q-175 -118 -357 -177z" />
<glyph unicode="&#x591c;" d="M520 382l63 77q74 -56 152 -121q43 71 71 160h-304q-24 -51 -67 -116q56 -117 161 -200q48 40 79 76q-67 57 -155 124zM950 750v-88h-900v88h395v82h110v-82h395zM516 125q-86 74 -143 173q-39 -51 -89 -99l-56 74v-363h-106v346q-29 -43 -61 -77l-47 104 q151 158 216 371l100 -25q-39 -127 -102 -228v-114q157 159 232 367l95 -28q-12 -36 -16 -46h371v-82q-64 -229 -229 -374q114 -68 288 -119l-38 -90q-199 59 -332 146q-125 -85 -310 -146l-56 84q169 54 283 126z" />
<glyph unicode="&#x5922;" d="M342 565h-124v-73h124v73zM730 768h220v-86h-220v-47h155v-215h-667h-103v215h155v47h-220v86h220v52h105v-52h250v52h105v-52zM290 114l72 63q89 -44 172 -92q96 41 156 103h-345q-104 -67 -228 -110l-56 74q181 65 296 153h-199v-103h-106v188h896v-198h-106v113h-351 q-24 -24 -36 -35h360v-82q-81 -117 -244 -187t-434 -93l-25 87q182 16 309 51q-55 30 -131 68zM435 492h130v73h-130v-73zM658 492h124v73h-124v-73zM375 635h250v47h-250v-47z" />
<glyph unicode="&#x5927;" d="M70 515v95h375v200h110v-200h375v-95h-371q19 -168 118.5 -297t269.5 -211l-57 -82q-131 60 -231.5 168.5t-154.5 244.5q-54 -136 -157 -244.5t-237 -168.5l-57 82q170 82 269.5 211t118.5 297h-371z" />
<glyph unicode="&#x5929;" d="M105 375v93h340v20v187h-375v93h860v-93h-375v-187v-20h340v-93h-326q31 -117 127 -209.5t251 -153.5l-51 -87q-134 52 -236 143t-156 205q-54 -114 -158 -205t-242 -143l-51 87q155 61 251 153.5t127 209.5h-326z" />
<glyph unicode="&#x592a;" d="M445 820h110v-142v-6q0 -7 0.5 -21t0.5 -21h374v-95h-362q60 -330 384 -518l-54 -91q-132 73 -235 199t-158 277q-56 -151 -162 -277t-241 -199l-54 91q159 92 256.5 223.5t127.5 294.5h-362v95h374q1 16 1 48v142zM379 136l82 55q82 -100 155 -203l-82 -54 q-67 94 -155 202z" />
<glyph unicode="&#x592b;" d="M445 820h110v-115h330v-93h-330v-124v-5v-1q0 -16 1 -24h374v-90h-360q61 -227 367 -353l-46 -90q-283 121 -387 338q-104 -217 -395 -338l-46 90q307 126 368 353h-361v90h374q1 8 1 24v130h-330v93h330v115z" />
<glyph unicode="&#x592e;" d="M445 820h110v-115h320v-335h90v-90h-387q75 -179 366 -273l-43 -92q-134 43 -237.5 122.5t-157.5 177.5q-56 -98 -163 -177.5t-244 -122.5l-43 92q290 93 366 273h-387v90h90v335h320v115zM555 398q0 -19 1 -28h216v242h-217v-214zM445 612h-217v-242h216q1 9 1 28v214z " />
<glyph unicode="&#x5931;" d="M70 330v92h384q1 10 1 28v155h-178q-49 -94 -118 -172l-88 55q117 136 174 314l103 -23q-18 -56 -29 -84h136v120h110v-120h305v-90h-305v-155q0 -18 1 -28h364v-92h-347q33 -103 121.5 -184.5t227.5 -133.5l-49 -87q-127 47 -223.5 132t-147.5 192q-55 -104 -158 -190 t-237 -134l-49 87q144 53 237 135.5t129 182.5h-364z" />
<glyph unicode="&#x5947;" d="M750 68v280h-698v90h50l-37 77q246 31 330 145h-313v90h354q9 39 9 85h110q0 -42 -8 -85h371v-90h-401l-3 -5q228 -69 421 -155l-38 -62h51v-90h-90v-276q0 -99 -23 -121.5t-120 -22.5q-57 0 -165 4l-5 88q133 -5 153 -5q38 0 45 7.5t7 45.5zM250 125h265v95h-265v-95z M250 45v-65h-108v320h478v-255h-370zM822 438q-175 80 -360 142q-95 -105 -278 -142h638z" />
<glyph unicode="&#x5949;" d="M875 118v-88h-320v-132h-110v132h-320v88h320v84h-180v70q-87 -84 -190 -139l-37 99q132 69 216 166h-209v82h270q13 20 35 62h-235v78h267q8 22 19 60h-321v85h340q5 27 10 71l107 -4q-3 -34 -9 -67h392v-85h-412q-5 -20 -19 -60h396v-78h-234q12 -26 34 -62h270v-82 h-209q87 -100 216 -166l-37 -99q-103 55 -190 139v-70h-180v-84h320zM722 285q-53 55 -93 113h-256q-40 -56 -95 -113h167v87h110v-87h167zM578 480q-16 28 -30 62h-91q-20 -42 -32 -62h153z" />
<glyph unicode="&#x594f;" d="M698 262h-136q0 -31 -5 -52h246q-57 45 -105 99v-47zM75 131l-37 98q130 68 216 166h-209v83h270q15 22 35 62h-235v78h267q8 22 19 60h-321v84h340q4 23 10 71l107 -4q-3 -32 -9 -67h392v-84h-412q-6 -24 -19 -60h396v-78h-234q13 -29 34 -62h270v-83h-209 q85 -97 216 -166l-37 -98q-49 25 -85 52v-53h-316l-6 -10q209 -53 409 -136l-52 -78q-197 88 -419 147q-122 -104 -343 -138l-39 85q257 40 338 130h-252v53q-43 -30 -85 -52zM452 210q6 26 6 52h-156v46q-47 -51 -106 -98h256zM668 342q-29 37 -39 53h-256q-19 -26 -41 -53 h336zM578 478q-16 28 -30 62h-91q-20 -42 -32 -62h153z" />
<glyph unicode="&#x5965;" d="M445 262h110v-52h400v-85h-368q89 -91 361 -125l-36 -90q-138 20 -244.5 69.5t-162.5 111.5q-57 -62 -166 -111.5t-251 -69.5l-36 90q274 35 361 125h-368v85h400v52zM898 245h-106v68l-53 -57q-101 93 -189 162v-133h-100v123q-80 -87 -193 -150l-49 56v-69h-106v513 h284q27 49 42 87l109 -13q-20 -44 -37 -74h398v-513zM772 520v-78h-124q66 -44 144 -109v339h-97l64 -35q-34 -54 -92 -117h105zM208 333q94 51 163 109h-143v78h108q-50 67 -95 117l63 35h-96v-339zM676 672h-350q42 -46 96 -119l-60 -33h88v132h100v-132h87l-58 34 q55 55 97 118z" />
<glyph unicode="&#x596e;" d="M67 506l-38 81q135 35 227 88h-201v83h313q43 41 75 92l109 -20q-28 -41 -58 -72h451v-83h-210q95 -57 236 -98l-38 -86q-54 16 -112 41h-243v-34h260v-58h-260v-35h260v-57h-260v-36h290v-67h-706v147q-34 -23 -79 -46l-38 78q138 62 224 162q-86 -44 -202 -80zM590 675 h-183l-28 -21l31 -9q-20 -32 -31 -47h97q16 29 35 69l101 -14q-9 -21 -27 -55h111q-55 33 -106 77zM468 348h-200v-36h200v36zM468 405v35h-200v-35h200zM468 498v34h-139q-10 -12 -32 -34h171zM212 -50v-35h-104v300h784v-300h-104v35h-576zM212 110h236v40h-236v-40z M212 52v-40h236v40h-236zM552 110h236v40h-236v-40zM552 52v-40h236v40h-236z" />
<glyph unicode="&#x5973;" d="M390 826l105 -7q-15 -75 -43 -164h498v-93h-156q-44 -237 -154 -377q126 -75 291 -201l-67 -68q-159 122 -288 200q-163 -149 -485 -191l-17 85q273 38 412 157q-109 58 -242 107q-9 -11 -53 -60l-77 57q120 134 190 291h-254v93h291q27 76 49 171zM552 235 q94 119 138 327h-273q-49 -117 -118 -215q126 -44 253 -112z" />
<glyph unicode="&#x5974;" d="M469 101l-73 -69q-56 64 -81 89q-90 -140 -227 -225l-58 73q134 86 213 222q-46 39 -88 69l-27 -71l-80 73q49 133 80 298h-90v90h105q13 91 20 166l102 -6q-8 -85 -18 -160h205q0 -250 -87 -438q54 -54 104 -111zM475 617l100 21q35 -210 125 -360q111 168 147 387h-422 v93h525v-93q-42 -279 -187 -478q87 -109 217 -183l-50 -88q-135 76 -233 190q-106 -115 -250 -191l-59 85q140 71 244 191q-114 174 -157 426zM186 357q49 -33 102 -76q53 129 63 279h-119q-21 -114 -46 -203z" />
<glyph unicode="&#x597d;" d="M475 73l-69 -69q-46 58 -103 118q-81 -136 -210 -226l-61 76q127 88 200 217q-40 36 -89 69q-9 -29 -26 -67l-79 73q48 136 77 301h-85v90h99q9 64 19 161l102 -4q-7 -81 -18 -157h200q0 -257 -83 -444q60 -60 126 -138zM980 402v-94h-192v-238q0 -99 -22.5 -122 t-115.5 -23q-36 0 -143 5l-4 92q81 -4 127 -4q36 0 43 7t7 45v238h-250v94h250v118h30q62 73 117 162h-359v93h470v-93q-73 -127 -150 -218v-62h192zM173 353q49 -33 102 -76q50 128 62 288h-118q-18 -109 -46 -212z" />
<glyph unicode="&#x598a;" d="M970 312h-235v-270h205v-92h-528v92h216v270h-240v96h240v225q-113 -13 -200 -15l-6 92q305 12 499 80l23 -92q-86 -30 -209 -50v-240h235v-96zM146 259q-9 -29 -26 -68l-77 73q48 136 77 301h-82v90h96q9 64 19 161l99 -4q-5 -74 -17 -157h145v-43q0 -230 -68 -401 q42 -58 82 -126l-73 -65q-21 37 -56 92q-72 -127 -185 -216l-45 88q104 87 166 216q-24 28 -55 59zM176 356q33 -26 63 -57q37 119 43 266h-61q-20 -115 -45 -209z" />
<glyph unicode="&#x59a8;" d="M688 690h287v-92h-357q0 -52 -4 -136h316q0 -228 -17.5 -341.5t-50.5 -148t-100 -34.5q-68 0 -172 10l-5 97q103 -10 147 -10q32 0 50 23t29.5 97.5t13.5 214.5h-218q-19 -163 -74 -264t-165 -188l-78 76q90 68 135 137.5t65 176.5t20 290h-105q-3 -215 -72 -380 q28 -27 68 -72l-60 -77q-23 28 -51 58q-77 -135 -202 -231l-46 88q105 85 172 215q-29 26 -66 52q-22 -56 -23 -60l-77 71q51 138 79 303h-82v90h96q13 95 19 161l100 -4q-10 -105 -17 -157h125v35h212v135h108v-135zM178 343q43 -27 76 -54q46 126 53 276h-79 q-21 -119 -50 -222z" />
<glyph unicode="&#x59b9;" d="M960 448v-90h-194q77 -163 213 -309l-63 -93q-126 149 -196 300v-356h-105v355q-78 -155 -212 -299l-77 73q158 157 245 329h-181v90h225v154h-210v90h210v128h105v-128h225v-90h-225v-154h240zM144 267q-23 -63 -29 -76l-77 73q48 136 77 301h-83v90h97q9 64 19 161 l99 -4q-5 -74 -17 -157h145v-43q0 -208 -56 -368q38 -37 80 -83l-60 -77q-26 32 -59 66q-74 -150 -205 -254l-45 88q114 97 175 236q-25 21 -61 47zM172 359q34 -19 66 -45q33 111 39 251h-61q-17 -109 -44 -206z" />
<glyph unicode="&#x59bb;" d="M60 205v80h260q17 19 34 40h-229v73h317v47h-392v77h392v46h-317v72h317v40h-382v82h382v63h116v-63h382v-82h-382v-40h307v-118h85v-77h-85v-120h-392q-8 -14 -28 -40h495v-80h-160q-44 -65 -113 -116q126 -44 255 -98l-57 -81q-170 79 -293 122q-174 -85 -469 -117 l-25 87q225 22 368 72q-73 22 -165 43q-39 -31 -80 -58l-82 52q64 45 119 94h-178zM560 123q66 36 109 82h-292l-28 -28q99 -21 211 -54zM760 445h-202v-47h202v47zM760 522v46h-202v-46h202z" />
<glyph unicode="&#x59c9;" d="M828 -8q-30 0 -83 6l-5 92q41 -5 65 -5q28 0 32.5 6.5t4.5 46.5v280h-126v-518h-105v518h-113v-426h-100v58l-67 -60q-43 78 -72 121q-69 -124 -184 -215l-45 88q105 90 165 215q-18 21 -54 59q-19 -51 -26 -67l-77 73q48 136 77 301h-83v90h97q9 64 19 161l99 -4 q-5 -74 -17 -157h125v63h256v102h105v-102h252v-93h-252v-115h226v-372q0 -99 -18 -122.5t-96 -23.5zM171 356q26 -22 62 -59q38 119 44 268h-61q-20 -115 -45 -209zM306 209q44 -58 92 -142v443h213v115h-236v-13q0 -228 -69 -403z" />
<glyph unicode="&#x59cb;" d="M815 48v204h-290v-204h290zM731 676l91 42q82 -141 158 -311l-92 -41l-38 84q-231 -36 -450 -45l-5 93q16 0 54 2q65 152 124 327l96 -26q-53 -160 -111 -293q126 11 249 27q-43 84 -76 141zM141 258q-19 -51 -26 -67l-77 73q48 136 77 301h-83v90h97q9 64 19 161l99 -4 q-5 -74 -17 -157h145v-43q0 -228 -69 -403q47 -62 98 -154l-73 -65q-43 78 -72 121q-69 -124 -184 -215l-45 88q105 90 165 215q-18 21 -54 59zM171 356q26 -22 62 -59q38 119 44 268h-61q-20 -115 -45 -209zM525 -40v-50h-105v432h502v-432h-107v50h-290z" />
<glyph unicode="&#x59d3;" d="M735 32h230v-92h-610v92h273v236h-213v90h213v194h-125q-28 -90 -62 -163l-79 34q-16 -112 -55 -212q42 -58 82 -126l-73 -65q-21 37 -56 92q-72 -127 -185 -216l-45 88q104 87 166 216q-24 28 -55 59q-9 -29 -26 -68l-77 73q48 136 77 301h-83v90h97q9 64 19 161l99 -4 q-5 -74 -17 -157h145v-43q0 -67 -6 -127q59 145 86 306l99 -16q-13 -78 -26 -130h100v165h107v-165h217v-93h-217v-194h193v-90h-193v-236zM171 356q33 -26 63 -57q37 119 43 266h-61q-20 -115 -45 -209z" />
<glyph unicode="&#x59d4;" d="M122 765q447 0 742 45l19 -82q-145 -23 -328 -35v-81h385v-82h-280q124 -80 307 -138l-27 -71v-61h-152q-52 -93 -143 -159q138 -46 277 -105l-57 -81q-180 84 -313 129q-171 -85 -449 -119l-25 87q208 24 346 73q-83 25 -167 42q-31 -25 -56 -43l-82 52q77 60 140 124 h-199v67l-27 65q183 58 307 138h-280v82h385v75q-140 -7 -317 -7zM445 509q-114 -91 -295 -167h183q29 37 60 83l52 -13v97zM555 509v-119h-71l-30 -48h398q-183 76 -297 167zM536 135q91 51 147 125h-291q-33 -40 -68 -73q106 -21 212 -52z" />
<glyph unicode="&#x59ff;" d="M247 445q155 27 230 80t75 121v29h-71q-54 -68 -118 -119l-78 66q110 88 168 200l105 -15q-12 -29 -21 -45h388v-87q-45 -80 -122 -142l-73 64q45 33 80 78h-152v-30q0 -79 67.5 -130.5t225.5 -82.5l-37 -84q-228 44 -313 162q-55 -62 -149 -102l60 -11q-21 -34 -42 -62 h470v-85h-157q-53 -86 -138 -149q138 -46 277 -105l-57 -81q-180 84 -313 129q-171 -85 -449 -119l-25 87q208 24 346 73q-60 18 -163 42q-24 -19 -60 -43l-82 52q82 57 144 114h-203v85h288q20 22 42 50q-48 -16 -109 -27zM48 465q147 58 247 127l43 -79q-99 -69 -249 -130 zM250 633q-85 48 -179 87l46 77q101 -41 180 -85zM536 135q87 49 139 115h-276q-28 -31 -66 -64q118 -26 203 -51z" />
<glyph unicode="&#x5a18;" d="M813 114q71 -72 171 -114l-46 -85q-117 47 -208.5 148t-134.5 232h-77v-255q68 13 163 37l11 -87q-180 -49 -356 -70l-9 90q45 5 85 12v723h198v90h105v-90h205v-444l39 -32q-68 -84 -146 -155zM756 181q57 53 108 114h-168q24 -63 60 -114zM518 562h294v96h-294v-96z M518 482v-102h294v102h-294zM141 259q-9 -29 -26 -68l-77 73q48 136 77 301h-83v90h97q9 64 19 161l99 -4q-5 -74 -17 -157h145v-43q0 -230 -68 -401q42 -58 82 -126l-73 -65q-21 37 -56 92q-72 -127 -185 -216l-45 88q104 87 166 216q-24 28 -55 59zM171 356q33 -26 63 -57 q37 119 43 266h-61q-20 -115 -45 -209z" />
<glyph unicode="&#x5a2f;" d="M667 68l56 74q144 -73 248 -164l-60 -76q-101 88 -244 166zM313 -11q153 67 243 159l60 -71q-89 -98 -251 -169zM888 242h87v-90h-643v90h448v76h-382v422h102v-338h388v-160zM642 468h-100v320h378v-320h-278zM642 548h173v152h-173v-152zM129 233q-6 -19 -17 -42 l-74 73q48 136 77 301h-83v90h97q9 64 19 161l97 -4q-7 -81 -18 -157h122v-43q0 -253 -67 -426q38 -57 75 -121l-71 -65q-37 66 -51 88q-62 -106 -164 -192l-44 88q94 86 146 195q-18 25 -44 54zM162 332q29 -29 50 -54q39 122 43 287h-41q-23 -136 -52 -233z" />
<glyph unicode="&#x5a66;" d="M585 315h-163v-67h163v67zM818 525v50h-423v75h423v50h-443v88h550v-343h-550v80h443zM808 -35q-26 0 -83 4l-2 89q46 -3 62 -3q26 0 30.5 3.5t4.5 24.5v85h-130v-268h-105v268h-113v-206h-100v238h-50v161q-15 -93 -45 -171q40 -55 85 -135l-71 -65q-42 75 -60 102 q-62 -112 -165 -196l-44 88q94 88 147 197q-25 32 -45 52q-8 -23 -17 -42l-74 73q48 136 77 301h-82v90h96q9 64 19 161l97 -4q-7 -81 -18 -157h120v-43q0 -118 -13 -212h641v-200h-50v-117q0 -83 -17 -100.5t-95 -17.5zM157 331q17 -16 51 -52q38 123 42 286h-41 q-23 -135 -52 -234zM690 248h180v67h-180v-67z" />
<glyph unicode="&#x5ae1;" d="M718 115v105h-130v-105h130zM812 5q26 0 31 5.5t5 34.5v445h-150v-55h130v-80h-130v-60h104v-260h-214v-50h-90v310h104v60h-130v80h130v55h-150v-578h-100v135l-61 -57q-42 75 -60 102q-62 -112 -165 -196l-44 88q94 88 147 197q-25 32 -45 52q-8 -23 -17 -42l-74 73 q48 136 77 301h-82v90h96q9 64 19 161l97 -4q-7 -81 -18 -157h120v-43q0 -252 -65 -422q36 -51 75 -119v504h130q-12 37 -34 95h-113v82h260v83h107v-83h268v-82h-116q-15 -45 -40 -95h134v-523q0 -89 -15.5 -111.5t-74.5 -22.5q-42 0 -128 5l-2 87q54 -5 84 -5zM157 331 q17 -16 51 -52q38 123 42 286h-41q-23 -135 -52 -234zM708 575q21 40 43 95h-197q19 -50 32 -95h122z" />
<glyph unicode="&#x5b50;" d="M175 682v93h665v-93q-124 -121 -268 -216v-64h383v-94h-383v-228q0 -99 -22.5 -122t-117.5 -23q-42 0 -160 5l-4 92q89 -4 144 -4q37 0 43.5 7t6.5 45v228h-417v94h417v118h30q122 78 215 162h-532z" />
<glyph unicode="&#x5b57;" d="M80 728h365v102h110v-102h365v-256h-102v168h-636v-168h-102v256zM232 472v90h540v-90q-88 -99 -202 -178v-2h385v-92h-385v-167q0 -35 -2.5 -53t-9 -32.5t-24 -20t-39 -7.5t-63.5 -2q-57 0 -160 4l-4 93q118 -5 152 -5q30 0 35 5t5 33v152h-415v92h415v80h53 q62 47 121 100h-402z" />
<glyph unicode="&#x5b58;" d="M60 655v93h315q22 53 33 91l105 -11q-10 -38 -26 -80h453v-93h-494q-69 -137 -181 -255v-485h-107v398q-53 -50 -93 -77l-38 106q70 45 131 101v87h83q49 57 87 125h-268zM620 55v143h-305v90h305v93h52q64 43 119 89h-386v90h515v-90q-87 -87 -192 -159v-23h222v-90 h-222v-168q0 -32 -2.5 -48.5t-8.5 -29.5t-23 -18t-39 -7t-63 -2q-25 0 -120 5l-4 90q90 -5 112 -5q29 0 34.5 6t5.5 34z" />
<glyph unicode="&#x5b5d;" d="M472 65v55h-397v85h397v55h66q59 20 138 52h-348q-120 -53 -257 -96l-35 89q85 25 149 49v41h101q78 34 156 77h-402v88h375v108h-285v82h285v75h110v-75h210v-65q51 49 104 115l83 -55q-78 -98 -185 -185h223v-88h-341q-66 -43 -126 -77h367v-83q-112 -62 -234 -107h324 v-85h-368v-65q0 -88 -22.5 -109t-117.5 -21q-40 0 -160 5l-4 87q112 -5 147 -5q34 0 40.5 7.5t6.5 45.5zM716 668h-191v-108h57q74 53 134 108z" />
<glyph unicode="&#x5b63;" d="M458 58v57h-398v90h398v50h60q62 21 111 43h-441v60q-61 -26 -121 -48l-34 82q183 58 307 138h-280v82h388v70q-177 -7 -320 -7l-6 90q447 0 742 45l19 -87q-147 -23 -331 -35v-76h388v-82h-280q124 -80 307 -138l-31 -82q-70 25 -124 49v-61q-95 -54 -194 -93h322v-90 h-372v-67q0 -88 -22.5 -109t-117.5 -21q-71 0 -161 5l-4 87q112 -5 147 -5t41.5 7.5t6.5 45.5zM768 380q-127 61 -216 131v-106h-104v106q-89 -71 -214 -131h534z" />
<glyph unicode="&#x5b66;" d="M818 602h-636v-160h-102v248h135q-34 62 -52 90l94 38q41 -67 71 -128h123q-24 46 -55 100l93 38q38 -62 74 -138h109q41 64 74 132l96 -27q-30 -60 -57 -105h135v-248h-102v160zM228 442v90h544v-90q-86 -95 -189 -170h372v-92h-385v-147q0 -35 -2.5 -53t-9 -32.5 t-24 -20t-39 -7.5t-63.5 -2q-57 0 -160 4l-4 93q118 -5 152 -5q30 0 35 5t5 33v132h-415v92h415v80h66q57 44 108 90h-406z" />
<glyph unicode="&#x5b6b;" d="M35 688v92h303v-92q-48 -102 -106 -185v-78l124 25l5 -95l-129 -27v-258q0 -67 -6 -96.5t-19 -39t-45 -9.5t-122 5l-5 92q47 -4 73 -4q16 0 19 6.5t3 45.5v237l-94 -19l-7 97l101 20v145h22q42 61 81 138h-198zM697 139l66 67q110 -91 216 -200l-65 -67q-92 95 -217 200z M255 14q119 84 209 189l67 -64q-89 -105 -213 -196zM784 449l85 36q59 -126 115 -270l-82 -35l-34 81l-198 -10v-329h-108v324l-279 -14l-3 90l180 9l31 25l-180 197l73 63l56 -63q76 68 129 122q-108 -5 -204 -5l-7 90q338 0 553 45l18 -87q-96 -20 -219 -32 q-90 -97 -206 -202l61 -67q148 128 271 258l72 -61q-140 -146 -299 -277l221 10z" />
<glyph unicode="&#x5b85;" d="M830 195l107 -15q-3 -42 -5 -67t-8 -53.5t-9.5 -43t-16 -32t-22 -24.5t-32 -15.5t-41 -11t-55 -5.5t-68 -3h-85.5q-68 0 -104.5 1t-70 6.5t-46.5 12t-23 24t-11.5 36t-1.5 53.5v145l-287 -28l-7 92l294 29v139q-108 -12 -205 -17l-5 82h-48v225h365v100h110v-100h365 v-225h-102v138h-636v-124q367 26 579 103l33 -89q-129 -47 -346 -79v-143l501 49l7 -92l-508 -50v-135q0 -37 10 -45q15 -13 107 -13h43h69t50 3.5t39 5t24.5 14t18 20t9 32t7.5 42t5 58.5z" />
<glyph unicode="&#x5b87;" d="M455 465h-227v90h544v-90h-207v-143h390v-92h-390v-197q0 -79 -21 -97t-116 -18q-58 0 -161 4l-4 93q118 -5 152 -5q30 0 35 5t5 33v182h-410v92h410v143zM80 728h365v102h110v-102h365v-263h-102v175h-636v-175h-102v263z" />
<glyph unicode="&#x5b88;" d="M181 276l80 62q90 -91 181 -215l-82 -62q-80 112 -179 215zM45 462h587v133h110v-133h213v-92h-213v-308q0 -54 -3.5 -79t-21.5 -42t-44.5 -20t-84.5 -3q-64 0 -176 4l-4 93q128 -5 162 -5q45 0 53.5 7t8.5 45v308h-587v92zM80 728h365v102h110v-102h365v-208h-102v118 h-636v-118h-102v208z" />
<glyph unicode="&#x5b89;" d="M58 405v90h274q25 51 56 129l106 -12q-21 -63 -46 -117h494v-90h-152q-49 -160 -149 -261q130 -60 287 -151l-61 -80q-165 100 -307 164q-157 -108 -457 -154l-25 89q240 38 371 112q-95 37 -205 68l-41 -42l-81 51q101 105 160 204h-224zM818 640h-636v-108h-102v193 h365v100h110v-100h365v-193h-102v108zM540 187q93 82 143 218h-281q-42 -73 -94 -139q116 -32 232 -79z" />
<glyph unicode="&#x5b8c;" d="M818 638h-636v-138h-102v225h365v100h110v-100h365v-225h-102v138zM850 190l100 -10q-3 -56 -4 -83t-6.5 -60.5t-9 -46t-16.5 -29t-22.5 -20t-35 -8.5t-46 -5h-62.5q-55 0 -86 2t-55 6t-34 14.5t-14 24t-4 37.5v278h-140q-5 -148 -73 -232t-233 -143l-58 85 q142 47 199 110t62 180h-232v90h840v-90h-258v-240q0 -10 1 -14.5t5 -9t15 -5.5t26.5 -2t45.5 -1q55 0 68 10q18 14 23 86q1 20 4 76zM225 472v88h550v-88h-550z" />
<glyph unicode="&#x5b97;" d="M650 168l68 66q125 -111 226 -228l-70 -65q-109 125 -224 227zM57 17q121 89 207 211l74 -54q-85 -128 -216 -227zM945 370v-90h-375v-233q0 -87 -22.5 -108t-115.5 -21q-51 0 -135 5l-4 89q83 -4 119 -4t42 4.5t6 31.5v236h-405v90h890zM228 470v90h544v-90h-544z M80 732h365v103h110v-103h365v-247h-102v160h-636v-160h-102v247z" />
<glyph unicode="&#x5b98;" d="M555 750h385v-240h-105v150h-670v-150h-105v240h385v90h110v-90zM302 45h456v125h-456v-125zM302 -35v-50h-107v687h610v-272h-503v-72h563v-343h-107v50h-456zM302 410h396v105h-396v-105z" />
<glyph unicode="&#x5b99;" d="M58 728h387v102h110v-102h387v-243h-64v-573h-106v56h-544v-56h-106v573h-64v243zM552 410v-130h220v130h-220zM448 410h-220v-130h220v130zM228 195v-143h220v143h-220zM552 52h220v143h-220v-143zM552 498h288v144h-680v-144h288v117h104v-117z" />
<glyph unicode="&#x5b9a;" d="M948 20l-6 -92h-67q-274 0 -416.5 43.5t-227.5 157.5q-43 -117 -99 -217l-91 38q108 194 154 421l97 -19q-11 -60 -27 -116q37 -63 82 -103.5t112 -65.5v398h-241v87h564v-87h-213v-145h291v-88h-291v-193q117 -19 311 -19h68zM818 638h-636v-143h-102v230h365v100h110 v-100h365v-230h-102v143z" />
<glyph unicode="&#x5b9b;" d="M952 145q-3 -64 -7 -98t-10 -60t-21 -36t-32.5 -15t-51.5 -7q-39 -4 -100 -4q-58 0 -100 3q-63 3 -80.5 22.5t-17.5 91.5v513h296v95h-656v-142h-102v230h375v102h110v-102h375v-220h-48v-228q-1 -76 -19.5 -94.5t-91.5 -18.5q-21 0 -93 4l-5 87q56 -3 75 -3q26 0 30 5 t4 35v167h-144v-412q0 -30 4.5 -35.5t30.5 -7.5q36 -2 65 -2q24 0 64 2q27 3 33 13q9 16 15 128zM195 271l55 78q71 -47 98 -66q36 81 46 169h-122q-69 -146 -178 -258l-63 74q138 148 194 348l100 -17q-11 -40 -20 -64h187v-83q-13 -182 -111.5 -322t-263.5 -212l-59 84 q153 68 242 197q-46 34 -105 72z" />
<glyph unicode="&#x5b9d;" d="M80 728h365v102h110v-102h365v-213h-70v-50h-300v-155h275v-85h-89q59 -73 114 -157l-72 -43h157v-90h-870v90h375v200h-265v85h265v155h-290v50h-70v213zM182 552h636v88h-636v-88zM760 25q-50 80 -115 157l72 43h-167v-200h210z" />
<glyph unicode="&#x5b9f;" d="M58 185v87h387v76h-290v82h290v70h-300v60h-70v188h370v77h110v-77h370v-188h-70v-60h-300v-70h290v-82h-290v-76h387v-87h-366q77 -125 363 -170l-35 -95q-134 25 -239 81.5t-160 128.5q-56 -71 -163.5 -128t-245.5 -82l-35 95q143 23 235 67.5t128 102.5h-366zM445 585 v75h-270v-75h270zM555 585h270v75h-270v-75z" />
<glyph unicode="&#x5ba2;" d="M718 35v123h-436v-123h436zM282 -48v-42h-107v296q-58 -15 -112 -26l-22 95q207 41 349 91q-73 40 -139 93q-72 -48 -154 -86l-45 84q194 88 301 209h-188v-127h-105v210h385v95h110v-95h385v-210h-105v127h-356q-14 -20 -49 -59h374v-80q-85 -92 -197 -160 q136 -46 361 -92l-25 -92q-72 16 -118 27v-300h-107v42h-436zM712 240q-122 35 -211 73q-85 -38 -199 -73h410zM497 410q96 46 172 117h-325l-14 -11q66 -60 167 -106z" />
</font>
</defs>
</svg>
